<svg xmlns="http://www.w3.org/2000/svg" xmlns:xlink="http://www.w3.org/1999/xlink" width="19.436" height="17.885" viewBox="0 0 19.436 17.885">
  <defs>
    <clipPath id="clip-path">
      <rect id="Rectangle_12858" data-name="Rectangle 12858" width="19.436" height="17.885" transform="translate(0 0)" fill="none"/>
    </clipPath>
  </defs>
  <g id="Group_2881" data-name="Group 2881" transform="translate(0 0)">
    <g id="Group_2880" data-name="Group 2880" clip-path="url(#clip-path)">
      <path id="Path_9373" data-name="Path 9373" d="M1.949,17.886A1.958,1.958,0,0,1,.011,15.914V2.581L0,2.444A2.365,2.365,0,0,1,2.278,0h.314A.413.413,0,0,1,3,.41V2.171H16.855a.413.413,0,0,1,.41.41V5.162h-.82V2.992H3V14.366a.413.413,0,0,1-.41.41h-.31c-.7,0-1.45.3-1.45,1.139s.685,1.141,1.326,1.141h14.29V9.923h.82v7.543a.413.413,0,0,1-.409.41H2.158a1.952,1.952,0,0,1-.195.01ZM2.172.831A1.553,1.553,0,0,0,.831,2.569V14.355a2.513,2.513,0,0,1,1.35-.4V.83Z" fill="#fff"/>
      <path id="Path_9374" data-name="Path 9374" d="M5.542,16.012a1.5,1.5,0,0,1-.007-2.99h5.182l.977-1.76.062-.078,5.922-5.92a1.054,1.054,0,0,1,1.454,0,1.033,1.033,0,0,1,0,1.46L13.2,12.653l-.083.059-1.957,1.081a.421.421,0,0,1-.2.05H5.542a.675.675,0,0,0,0,1.349H7.968v.82Zm6.826-4.278-.359.654.677-.375,4.481-4.486-.3-.3Zm5.377-4.786.85-.85.057.017a.453.453,0,0,0-.1-.269.215.215,0,0,0-.3,0l-.806.807Z" fill="#fff"/>
      <path id="Path_9375" data-name="Path 9375" d="M8.793,11.672a.412.412,0,0,1-.41-.409v-3.1a.413.413,0,0,1,.41-.41h3.1a.411.411,0,0,1,.41.41V9.4a.412.412,0,0,1-.409.41H10.753v1.45a.411.411,0,0,1-.409.41Zm1.14-.82V9.4a.413.413,0,0,1,.41-.41h1.14v-.42H9.2v2.28Z" fill="#fff"/>
      <path id="Path_9376" data-name="Path 9376" d="M10.654,6.712a.412.412,0,0,1-.409-.41V3.821a.412.412,0,0,1,.409-.41h3.1a.412.412,0,0,1,.41.41V6.3a.412.412,0,0,1-.41.41Zm2.69-2.481h-2.28V5.892h2.28Z" fill="#fff"/>
      <path id="Path_9377" data-name="Path 9377" d="M4.143,8.572a.413.413,0,0,1-.411-.409V3.821a.413.413,0,0,1,.41-.41H9.1a.416.416,0,0,1,.411.411v3.1a.413.413,0,0,1-.41.41H7.963v.83a.411.411,0,0,1-.409.41Zm3-.82v-.83a.413.413,0,0,1,.41-.41h1.14V4.231H4.552V7.752Z" fill="#fff"/>
      <rect id="Rectangle_12857" data-name="Rectangle 12857" width="0.603" height="0.603" transform="translate(8.452 15.274)" fill="#fff"/>
      <path id="Path_9378" data-name="Path 9378" d="M4.142,11.674a.413.413,0,0,1-.41-.41V9.714a.413.413,0,0,1,.41-.41H7.553a.413.413,0,0,1,.41.41v1.55a.413.413,0,0,1-.41.41Zm3-1.55H4.552v.73H7.143Z" fill="#fff"/>
      <path id="Path_9379" data-name="Path 9379" d="M12.206,16.634a.413.413,0,0,1-.411-.409V14.984a.413.413,0,0,1,.41-.41h1.14v-1.14a.413.413,0,0,1,.41-.41h1.55a.412.412,0,0,1,.41.41v2.79a.411.411,0,0,1-.409.41Zm2.689-.819v-1.97h-.729v1.14a.413.413,0,0,1-.41.41H12.614v.42Z" fill="#fff"/>
    </g>
  </g>
</svg>
