<svg id="Group_2883" data-name="Group 2883" xmlns="http://www.w3.org/2000/svg" xmlns:xlink="http://www.w3.org/1999/xlink" width="17.885" height="17.875" viewBox="0 0 17.885 17.875">
  <defs>
    <clipPath id="clip-path">
      <rect id="Rectangle_12859" data-name="Rectangle 12859" width="17.885" height="17.875" fill="#666"/>
    </clipPath>
  </defs>
  <g id="Group_2882" data-name="Group 2882" clip-path="url(#clip-path)">
    <path id="Path_9380" data-name="Path 9380" d="M1.14,17.875A1.139,1.139,0,0,1,0,16.736V1.136A1.14,1.14,0,0,1,1.137,0H14.879a1.139,1.139,0,0,1,1.135,1.136V2.965a.445.445,0,1,1-.89,0V1.135A.247.247,0,0,0,14.878.89H1.14a.247.247,0,0,0-.245.246v15.6a.246.246,0,0,0,.245.245H14.88a.247.247,0,0,0,.245-.245v-.967a.445.445,0,1,1,.89,0v.967a1.138,1.138,0,0,1-1.136,1.136Z" fill="#666"/>
    <path id="Path_9381" data-name="Path 9381" d="M2.106,9.763a.446.446,0,0,1-.445-.446V2.1a.444.444,0,0,1,.445-.444H13.913a.447.447,0,0,1,.44.44V3a.446.446,0,1,1-.891,0V2.548H2.551V9.317a.447.447,0,0,1-.445.446" fill="#666"/>
    <path id="Path_9382" data-name="Path 9382" d="M2.105,11.037a.445.445,0,1,1,.316-.758.444.444,0,0,1,0,.629.439.439,0,0,1-.313.129" fill="#666"/>
    <path id="Path_9383" data-name="Path 9383" d="M2.106,16.221a.446.446,0,0,1-.445-.445V11.927a.445.445,0,1,1,.89,0v3.4H13.468v-.314a.445.445,0,1,1,.89.005v.758a.445.445,0,0,1-.445.445Z" fill="#666"/>
    <path id="Path_9384" data-name="Path 9384" d="M9.627,13.772a.784.784,0,0,1-.556-.23l-.353-.353-.2.2a.445.445,0,1,1-.63-.63l.276-.276a.787.787,0,0,1,1.112,0l.353.353.612-.611a.447.447,0,0,1,.63,0,.448.448,0,0,1,.132.321.439.439,0,0,1-.133.313l-.685.681a.782.782,0,0,1-.556.23" fill="#666"/>
    <path id="Path_9385" data-name="Path 9385" d="M15.229,14.514a.442.442,0,0,1-.315-.13l-.79-.787-.791.787a.445.445,0,0,1-.63,0,.449.449,0,0,1-.129-.315V10.844c-.04,0-.1-.085-.143-.172a.212.212,0,0,0-.19-.116H12.12A1.1,1.1,0,0,1,11.077,9.4L4.45,9.381a.446.446,0,0,1,0-.891H10.4a1.113,1.113,0,0,1,.085-.765H4.451a.445.445,0,1,1,0-.89h5.915a1.1,1.1,0,0,1,.6-1.015.215.215,0,0,0,.115-.2.854.854,0,0,1,0-.113,1.1,1.1,0,0,1,1.1-1.043h.008c.141,0,.212-.044.248-.114.017-.033.036-.065.056-.1a1.1,1.1,0,0,1,1.521-.326.213.213,0,0,0,.231,0c.031-.02.063-.039.1-.056a1.1,1.1,0,0,1,1.481.479A.214.214,0,0,0,16,4.466h.122A1.1,1.1,0,0,1,17.17,5.621a.215.215,0,0,0,.116.2c.032.017.064.035.1.055A1.1,1.1,0,0,1,17.707,7.4a.217.217,0,0,0,0,.229,1,1,0,0,1,.056.1,1.1,1.1,0,0,1-.478,1.48.216.216,0,0,0-.115.2v.111a1.1,1.1,0,0,1-1.1,1.045h-.008c-.141,0-.212.044-.248.115a1.056,1.056,0,0,1-.17.24l.027,3.156a.444.444,0,0,1-.445.446m-1.106-1.985a.441.441,0,0,1,.314.129l.345.344V11.27a1.1,1.1,0,0,1-.544-.172.211.211,0,0,0-.115-.033.207.207,0,0,0-.116.034,1.111,1.111,0,0,1-.544.172V13l.346-.344a.439.439,0,0,1,.314-.129m0-2.352a1.107,1.107,0,0,1,.6.174.229.229,0,0,0,.115.034.212.212,0,0,0,.19-.116,1.105,1.105,0,0,1,.983-.6.266.266,0,0,0,.218-.068.214.214,0,0,0,.055-.154,1.114,1.114,0,0,1,.6-1.033.207.207,0,0,0,.1-.1l.009-.039a.21.21,0,0,0-.024-.166,1.112,1.112,0,0,1,0-1.19.218.218,0,0,0-.081-.306,1.113,1.113,0,0,1-.6-1.032.217.217,0,0,0-.213-.224h0a1.126,1.126,0,0,1-1.039-.6.222.222,0,0,0-.19-.115.211.211,0,0,0-.115.033,1.105,1.105,0,0,1-1.192,0,.229.229,0,0,0-.115-.034.213.213,0,0,0-.19.115,1.1,1.1,0,0,1-.982.6c-.127,0-.18.025-.218.068a.209.209,0,0,0-.056.154,1.113,1.113,0,0,1-.6,1.032.218.218,0,0,0-.111.144.215.215,0,0,0,.029.162,1.114,1.114,0,0,1,0,1.191.217.217,0,0,0-.024.18.212.212,0,0,0,.105.126,1.091,1.091,0,0,1,.277.2,1.125,1.125,0,0,1,.319.827.218.218,0,0,0,.213.224h.005a1.126,1.126,0,0,1,1.038.6.22.22,0,0,0,.19.116.212.212,0,0,0,.115-.034,1.107,1.107,0,0,1,.6-.174" fill="#666"/>
    <path id="Path_9386" data-name="Path 9386" d="M14.128,8.651a.442.442,0,0,1-.315-.13l-.7-.7a.445.445,0,0,1,.63-.629l.385.385L15.2,6.5a.447.447,0,0,1,.63,0,.453.453,0,0,1,0,.629L14.442,8.521a.44.44,0,0,1-.314.13" fill="#666"/>
    <path id="Path_9387" data-name="Path 9387" d="M4.073,4.961a.446.446,0,1,1,.313-.129.441.441,0,0,1-.313.129" fill="#666"/>
    <path id="Path_9388" data-name="Path 9388" d="M5.362,4.963a.446.446,0,0,1,0-.891h1.68a.446.446,0,0,1,0,.891Z" fill="#666"/>
    <path id="Path_9389" data-name="Path 9389" d="M6.611,11.039a.445.445,0,1,1,0-.89h3.947a.445.445,0,0,1,0,.89Z" fill="#666"/>
  </g>
</svg>
