<svg xmlns="http://www.w3.org/2000/svg" width="34.667" height="40" viewBox="0 0 34.667 40">
  <g id="exam-results" transform="translate(-4 -1)">
    <path id="Path_15144" data-name="Path 15144" d="M19.667,9.667H10.333a1.333,1.333,0,1,1,0-2.667h9.333a1.333,1.333,0,0,1,0,2.667Z" transform="translate(1.667 2)" fill="#fff"/>
    <path id="Path_15145" data-name="Path 15145" d="M23.667,14.667H10.333a1.333,1.333,0,1,1,0-2.667H23.667a1.333,1.333,0,0,1,0,2.667Z" transform="translate(1.667 3.667)" fill="#fff"/>
    <path id="Path_15146" data-name="Path 15146" d="M18.147,18.667H10.333a1.333,1.333,0,1,1,0-2.667h7.813a1.333,1.333,0,1,1,0,2.667Z" transform="translate(1.667 5)" fill="#fff"/>
    <path id="Path_15147" data-name="Path 15147" d="M14.947,22.667H10.333a1.333,1.333,0,1,1,0-2.667h4.613a1.333,1.333,0,1,1,0,2.667Z" transform="translate(1.667 6.333)" fill="#fff"/>
    <path id="Path_15148" data-name="Path 15148" d="M16.613,37H10.667A6.674,6.674,0,0,1,4,30.333V7.667A6.674,6.674,0,0,1,10.667,1h16a6.674,6.674,0,0,1,6.667,6.667V18.6a1.333,1.333,0,0,1-2.667,0V7.667a4,4,0,0,0-4-4h-16a4,4,0,0,0-4,4V30.333a4,4,0,0,0,4,4h5.947a1.333,1.333,0,1,1,0,2.667Z" fill="#fff"/>
    <path id="Path_15149" data-name="Path 15149" d="M25.333,35.667a9.333,9.333,0,1,1,9.333-9.333A9.344,9.344,0,0,1,25.333,35.667Zm0-16A6.667,6.667,0,1,0,32,26.333,6.674,6.674,0,0,0,25.333,19.667Z" transform="translate(4 5.333)" fill="#fff"/>
    <path id="Path_15150" data-name="Path 15150" d="M23.111,28.088a1.33,1.33,0,0,1-.943-.391L20.391,25.92a1.333,1.333,0,1,1,1.885-1.885l.835.835,2.613-2.612a1.333,1.333,0,1,1,1.885,1.885L24.053,27.7a1.33,1.33,0,0,1-.943.391Z" transform="translate(5.333 6.956)" fill="#fff"/>
  </g>
</svg>
