<svg xmlns="http://www.w3.org/2000/svg" width="22.998" height="22.998" viewBox="0 0 22.998 22.998">
  <g id="_02_User" data-name="02 User" transform="translate(0.006 0.003)">
    <path id="Path_15134" data-name="Path 15134" d="M1.117,22.994a1.123,1.123,0,0,1-.794-1.917L21.075.326a1.123,1.123,0,1,1,1.588,1.588L1.911,22.666a1.12,1.12,0,0,1-.794.329Z" transform="translate(0 0)" fill="#aeaeae"/>
    <path id="Path_15135" data-name="Path 15135" d="M21.871,22.994a1.12,1.12,0,0,1-.794-.329L.326,1.914A1.123,1.123,0,1,1,1.914.326L22.666,21.077a1.123,1.123,0,0,1-.794,1.917Z" transform="translate(-0.002 0)" fill="#aeaeae"/>
  </g>
</svg>
