<svg xmlns="http://www.w3.org/2000/svg" width="11.178" height="13.122" viewBox="0 0 11.178 13.122">
  <g id="disabilities" transform="translate(0 0)">
    <path id="Path_7192" data-name="Path 7192" d="M17.62,13.114l-.905.177-1.162-3.2a.487.487,0,0,0-.457-.321H11.929V7.4h1.6a.486.486,0,0,0,0-.972h-1.6v-.9a1.823,1.823,0,1,0-.972,0v4.723a.486.486,0,0,0,.486.486h3.311l1.188,3.275a.487.487,0,0,0,.456.321c.031,0,1.407-.266,1.407-.266a.486.486,0,0,0-.187-.954ZM11.444,2.972a.83.83,0,1,1-.851.829A.841.841,0,0,1,11.444,2.972Z" transform="translate(-7.021 -2)" fill="#fff"/>
    <path id="Path_7193" data-name="Path 7193" d="M8.5,19.426a3.381,3.381,0,0,1-3.406-3.349A3.323,3.323,0,0,1,6.971,13.1V12a4.351,4.351,0,0,0-2.9,4.08A4.433,4.433,0,0,0,11.772,19l-.407-1.123A3.41,3.41,0,0,1,8.5,19.426Z" transform="translate(-4.074 -7.312)" fill="#fff"/>
  </g>
</svg>
