<svg id="Group_2700" data-name="Group 2700" xmlns="http://www.w3.org/2000/svg" xmlns:xlink="http://www.w3.org/1999/xlink" width="48" height="48" viewBox="0 0 48 48">
  <defs>
    <clipPath id="clip-path">
      <rect id="Rectangle_12569" data-name="Rectangle 12569" width="48" height="48" fill="#889e9c"/>
    </clipPath>
  </defs>
  <g id="Group_2675" data-name="Group 2675" clip-path="url(#clip-path)">
    <path id="Path_7896" data-name="Path 7896" d="M308.624,57.248a4.624,4.624,0,1,1,4.624-4.624,4.629,4.629,0,0,1-4.624,4.624m0-7.046a2.422,2.422,0,1,0,2.422,2.422,2.425,2.425,0,0,0-2.422-2.422" transform="translate(-270.532 -42.716)" fill="#889e9c"/>
    <path id="Path_7897" data-name="Path 7897" d="M15.192,48.007a1.1,1.1,0,0,1-.985-1.593l.974-1.947a.661.661,0,0,0-.3-.886l-1.947-.974a1.109,1.109,0,0,1-.492-.492L11.19,39.6a.66.66,0,0,0-1.058-.172l-.692.691a.66.66,0,0,0-.193.467v1.032a1.1,1.1,0,0,1-.609.985L5.116,44.368a1.1,1.1,0,0,1-1.271-.207L2.084,42.4a1.094,1.094,0,0,1-.323-.778V34.576a1.1,1.1,0,0,1,1.1-1.1H5.656a.66.66,0,0,0,.467-.194l.224-.224a.66.66,0,0,0,.083-.833L3.708,28.141a1.1,1.1,0,0,1,.913-1.713,1.053,1.053,0,0,1,.214.022l8.04,1.608a.661.661,0,0,0,.526-.119l6.437-4.827a.66.66,0,0,0-.187-1.155l-1.283-.428a1.1,1.1,0,0,1-.753-1.044V18.723a1.1,1.1,0,0,1,.609-.985l1.336-.669a.661.661,0,0,0,.171-1.058l-.772-.772a.66.66,0,0,0-.833-.083l-3.3,2.2a.661.661,0,0,0-.294.55v2.58a1.1,1.1,0,0,1-.609.985L10.4,23.231a1.1,1.1,0,0,1-1.478-.493L7.95,20.791a.66.66,0,0,0-.886-.3l-1.947.974a1.1,1.1,0,0,1-1.409-.375L.185,15.81a1.1,1.1,0,0,1-.128-.959L1.819,9.567a1.088,1.088,0,0,1,.775-.718L9.167,7.2a.66.66,0,0,0,.307-.174l2.281-2.279a.66.66,0,0,0,.124-.763L10.685,1.6a1.1,1.1,0,0,1,1.97-.985l1.761,3.523a1.1,1.1,0,0,1-.207,1.271L10.686,8.932a1.1,1.1,0,0,1-.512.289L4.068,10.749a.661.661,0,0,0-.466.432l-1.183,3.55a.66.66,0,0,0,.077.575L4.678,18.58a.661.661,0,0,0,.845.224l2.131-1.067a1.1,1.1,0,0,1,1.477.493l.974,1.947a.66.66,0,0,0,.886.3l.974-.487a.661.661,0,0,0,.365-.591V16.961a1.1,1.1,0,0,1,.49-.916L18.1,12.522a1.083,1.083,0,0,1,.608-.186,1.1,1.1,0,0,1,.781.324l3.523,3.523a1.1,1.1,0,0,1-.286,1.763l-1.834.917a.661.661,0,0,0,.087,1.218L24.348,21.2a1.1,1.1,0,0,1,.144,2.029l-3.38,1.691a.663.663,0,0,0-.1.062l-6.92,5.188a1.1,1.1,0,0,1-.663.219,1.164,1.164,0,0,1-.218-.021l-4.633-.926A.661.661,0,0,0,7.9,30.458L9.063,32.2a1.1,1.1,0,0,1-.138,1.389L7.163,35.354a1.094,1.094,0,0,1-.778.323H4.624a.661.661,0,0,0-.661.661v4.555a.66.66,0,0,0,.193.467l.348.347a.66.66,0,0,0,.762.124l1.414-.707a.661.661,0,0,0,.365-.591V39.86a1.094,1.094,0,0,1,.323-.778L9.13,37.321A1.094,1.094,0,0,1,9.908,37H11.67a1.1,1.1,0,0,1,.985.609l1.5,3a.66.66,0,0,0,.3.3l3,1.5a1.1,1.1,0,0,1,.6.857.66.66,0,0,0,.952.515l2.491-1.245a.662.662,0,0,0,.172-.124l2.806-2.8a.661.661,0,0,0,.194-.467V36.337a1.094,1.094,0,0,1,.323-.778L26.744,33.8a1.075,1.075,0,0,1,.767-.325,1.093,1.093,0,0,1,.183.015,1.107,1.107,0,0,1,.813.6l1.634,3.267a.663.663,0,0,0,.123.171l1.558,1.56a1.1,1.1,0,0,1,.265.429l.862,2.582a.66.66,0,0,0,1.094.258l1.507-1.507a1.094,1.094,0,0,1,.778-.323h1.032a.661.661,0,0,0,.467-.194l1.042-1.044A.662.662,0,0,0,39,39.112l1.634-3.267a1.1,1.1,0,0,1,1.479-.492l3.15,1.575a.66.66,0,0,0,.3.07H46.9a1.1,1.1,0,1,1,0,2.2H45.137a1.106,1.106,0,0,1-.492-.116L42.7,38.11a.66.66,0,0,0-.886.3l-.974,1.947a1.1,1.1,0,0,1-.207.286L38.87,42.4a1.094,1.094,0,0,1-.778.323H37.059a.66.66,0,0,0-.467.194l-3.007,3.007a1.091,1.091,0,0,1-.779.322,1.132,1.132,0,0,1-.255-.029,1.092,1.092,0,0,1-.788-.722L30.133,40.6a.659.659,0,0,0-.16-.258l-1.467-1.467a1.1,1.1,0,0,1-.207-.286l-.186-.372a.66.66,0,0,0-1.251.3V39.86a1.094,1.094,0,0,1-.323.778l-3.523,3.523a1.1,1.1,0,0,1-.286.207l-7.046,3.523a1.091,1.091,0,0,1-.492.116" transform="translate(0 -0.007)" fill="#889e9c"/>
    <path id="Path_7898" data-name="Path 7898" d="M300.862,268.889a1.122,1.122,0,0,1-.2-.017,13.683,13.683,0,0,1-1.791-.446,1.1,1.1,0,0,1,.334-2.149,1.109,1.109,0,0,1,.342.055,11.735,11.735,0,0,0,1.5.372,1.1,1.1,0,0,1-.192,2.185" transform="translate(-265.29 -236.962)" fill="#889e9c"/>
    <path id="Path_7899" data-name="Path 7899" d="M360.3,268.813a1.1,1.1,0,0,1-.2-2.183,11.593,11.593,0,0,0,1.5-.378,1.1,1.1,0,0,1,.686,2.092,13.28,13.28,0,0,1-1.793.451,1.023,1.023,0,0,1-.2.019" transform="translate(-319.66 -236.89)" fill="#889e9c"/>
    <path id="Path_7900" data-name="Path 7900" d="M257.686,229.723a1.1,1.1,0,0,1-.944-.53,4.6,4.6,0,0,1-.678-2.1,1.1,1.1,0,0,1,1.02-1.17h.039a1.125,1.125,0,0,1,1.139,1.029,2.4,2.4,0,0,0,.366,1.1,1.1,1.1,0,0,1-.942,1.669" transform="translate(-227.871 -201.053)" fill="#889e9c"/>
    <path id="Path_7901" data-name="Path 7901" d="M412.463,229.349a1.1,1.1,0,0,1-.944-1.665,2.4,2.4,0,0,0,.353-1.1,1.081,1.081,0,0,1,1.023-1.049.934.934,0,0,1,.1.006l.035,0a1.1,1.1,0,0,1,1.039,1.157,4.555,4.555,0,0,1-.658,2.106,1.094,1.094,0,0,1-.948.538" transform="translate(-366.076 -200.71)" fill="#889e9c"/>
    <path id="Path_7902" data-name="Path 7902" d="M265.908,26.862a1.092,1.092,0,0,1-.641-.206,25.477,25.477,0,0,1-3.909-3.7.66.66,0,0,0-.815-.148l-.04.02c-.041.02-.082.04-.121.063a1.1,1.1,0,0,1-1.5-.409,1.073,1.073,0,0,1,.277-1.371.66.66,0,0,0,.13-.872A18.608,18.608,0,0,1,256,9.908a9.909,9.909,0,0,1,18.865-4.24,9.747,9.747,0,0,1,.951,4.24,18.7,18.7,0,0,1-3.292,10.329.66.66,0,0,0,.131.871,1.073,1.073,0,0,1,.278,1.372,1.1,1.1,0,0,1-1.5.408c-.034-.02-.071-.038-.108-.056l-.031-.015a.662.662,0,0,0-.817.147,24.607,24.607,0,0,1-3.924,3.692,1.1,1.1,0,0,1-.641.207m0-24.661A7.715,7.715,0,0,0,258.2,9.908a17.059,17.059,0,0,0,3.842,10.412,25.5,25.5,0,0,0,3.429,3.666.661.661,0,0,0,.871,0c2.186-1.92,7.271-7.134,7.271-14.077a7.564,7.564,0,0,0-.739-3.294A7.743,7.743,0,0,0,265.908,2.2" transform="translate(-227.817)" fill="#889e9c"/>
  </g>
</svg>
