<svg xmlns="http://www.w3.org/2000/svg" xmlns:xlink="http://www.w3.org/1999/xlink" width="17.675" height="17.675" viewBox="0 0 17.675 17.675">
  <defs>
    <clipPath id="clip-path">
      <rect id="Rectangle_12896" data-name="Rectangle 12896" width="17.675" height="17.675" transform="translate(0 0.156)" fill="#666"/>
    </clipPath>
  </defs>
  <g id="Group_2891" data-name="Group 2891" transform="translate(0 -0.156)">
    <g id="Group_2890" data-name="Group 2890" clip-path="url(#clip-path)">
      <path id="Path_9410" data-name="Path 9410" d="M8.95,9.479a1.607,1.607,0,0,1-.819-.294L5.866,7.772A5.274,5.274,0,0,0,5.352,7.5,3.443,3.443,0,0,1,3.673,6.033,2.2,2.2,0,0,0,2.716,5.2a.5.5,0,1,1,.41-.912A3.187,3.187,0,0,1,4.521,5.5,2.518,2.518,0,0,0,5.787,6.6a6.137,6.137,0,0,1,.607.323L8.659,8.336a1.744,1.744,0,0,0,.228.122,1.3,1.3,0,0,0-.352-1.166l-1.257-1.3a.859.859,0,0,1-.231-.881,1.031,1.031,0,0,1,.893-.591c1.6-.269,2.075.554,2.629,1.505a.528.528,0,0,1-.165.711.472.472,0,0,1-.667-.153c-.553-.949-.7-1.211-1.545-1.091L9.251,6.593a2.3,2.3,0,0,1,.572,2.243.428.428,0,0,1-.039.1.959.959,0,0,1-.6.514.868.868,0,0,1-.234.032m3.643-1.952a.5.5,0,0,1-.436-.253L10.79,4.86c-.523-.971-1.354-1.1-2.666-1.228-.188-.018-.379-.037-.57-.06A7.031,7.031,0,0,1,4.138,2.316.5.5,0,0,1,4.715,1.5a6.041,6.041,0,0,0,2.943,1.08c.2.023.383.041.564.059,1.3.128,2.647.261,3.443,1.74l1.363,2.4a.5.5,0,0,1-.435.747" fill="#666"/>
      <path id="Path_9411" data-name="Path 9411" d="M2.274,5.866A1.009,1.009,0,0,1,1.8,5.747L.681,5.153h0A1.027,1.027,0,0,1,.258,3.77L1.974.541A1.024,1.024,0,0,1,3.356.119L4.472.713A1.025,1.025,0,0,1,4.895,2.1L3.179,5.324a1.025,1.025,0,0,1-.9.542M1.151,4.27l1.115.594L4.012,1.626,2.887,1,.916,4.711Z" fill="#666"/>
      <path id="Path_9412" data-name="Path 9412" d="M16.3,17.986H5.763a1.248,1.248,0,0,1-1.242-1.242V10.277a.5.5,0,0,1,.5-.5H17.036a.5.5,0,0,1,.5.5v6.466a1.248,1.248,0,0,1-1.24,1.243M5.521,10.777v5.966a.245.245,0,0,0,.244.243H16.294a.245.245,0,0,0,.242-.245V10.777Z" fill="#666"/>
      <path id="Path_9413" data-name="Path 9413" d="M12.332,10.78a.5.5,0,0,1-.324-.881A1.8,1.8,0,1,0,9.428,7.42.5.5,0,1,1,8.64,6.8a2.8,2.8,0,1,1,4.015,3.857.5.5,0,0,1-.323.119m-2.973,0a.5.5,0,0,1-.323-.119,2.8,2.8,0,0,1-.957-1.721.5.5,0,1,1,.989-.148A1.8,1.8,0,0,0,9.683,9.9a.5.5,0,0,1-.324.881" fill="#666"/>
      <path id="Path_9414" data-name="Path 9414" d="M17.037,12.822H10.331a.5.5,0,0,1,0-1h6.706a.5.5,0,0,1,0,1m-9.8,0H5.022a.5.5,0,0,1,0-1H7.234a.5.5,0,1,1,0,1" fill="#666"/>
      <path id="Path_9415" data-name="Path 9415" d="M14.324,16.284H7.733a.5.5,0,0,1-.5-.5v-1.76a.5.5,0,0,1,.5-.5h6.591a.5.5,0,0,1,.5.5v1.76a.5.5,0,0,1-.5.5m-6.091-1h5.591v-.76H8.233Z" fill="#666"/>
      <path id="Path_9416" data-name="Path 9416" d="M8.786,12.822a.507.507,0,0,1-.36-.15.508.508,0,0,1,0-.7.513.513,0,0,1,.71,0,.5.5,0,0,1-.35.85" fill="#666"/>
    </g>
  </g>
</svg>
