<svg xmlns="http://www.w3.org/2000/svg" xmlns:xlink="http://www.w3.org/1999/xlink" width="17.878" height="17.875" viewBox="0 0 17.878 17.875">
  <defs>
    <clipPath id="clip-path">
      <rect id="Rectangle_12873" data-name="Rectangle 12873" width="17.878" height="17.875" transform="translate(0 -0.001)" fill="#666"/>
    </clipPath>
  </defs>
  <g id="Group_2885" data-name="Group 2885" transform="translate(0 0)">
    <g id="Group_2884" data-name="Group 2884" clip-path="url(#clip-path)">
      <path id="Path_9390" data-name="Path 9390" d="M15.5,17.305a1.241,1.241,0,1,1,1.241-1.241A1.242,1.242,0,0,1,15.5,17.305m0-1.712a.471.471,0,1,0,.47.471.472.472,0,0,0-.47-.471Z" fill="#666"/>
      <path id="Path_9391" data-name="Path 9391" d="M12.645,17.305a1.241,1.241,0,1,1,1.241-1.241,1.242,1.242,0,0,1-1.241,1.241m0-1.711a.47.47,0,1,0,.47.47.471.471,0,0,0-.47-.47" fill="#666"/>
      <path id="Path_9392" data-name="Path 9392" d="M9.794,17.305a1.241,1.241,0,1,1,1.241-1.241,1.242,1.242,0,0,1-1.241,1.241m0-1.711a.47.47,0,1,0,.47.47.471.471,0,0,0-.47-.47" fill="#666"/>
      <path id="Path_9393" data-name="Path 9393" d="M0,17.875V17.1H.581a1.486,1.486,0,0,1,.54-1.356A2.893,2.893,0,0,1,0,13.472v-.167a2.885,2.885,0,0,1,1.43-2.488V5.129H2V3.988h.568v-.57h.77v.57h.37V2.277h.77V3.988h.37V2.848h.77v1.14h.57V5.129h.57V6.615a1.812,1.812,0,0,1,.47-.064h.118l.637.605V2.5L11.631.2A1.415,1.415,0,0,1,13.09.2l3.6,2.217.045,1.569h.573V10.92a.956.956,0,0,1,.57.868v1.14a.957.957,0,0,1-.955.955H14.167v.37h1.9a1.812,1.812,0,1,1,0,3.623Zm7.742-.77a1.8,1.8,0,0,1-.166-1.792c-.022,0-.046,0-.07,0a.748.748,0,0,0-.749.754v.385H6.372a.751.751,0,0,0-.485.183l-.347.3-.233-.39a.724.724,0,0,0-.633-.372.715.715,0,0,0-.215.033l-.4.114-.085-.405a.764.764,0,0,0-.678-.595l.04.054v.128a.957.957,0,0,1-.955.955l-.126-.013-.4-.23a.754.754,0,0,0-.514.714.778.778,0,0,0,.031.185ZM9.224,15.02a1.066,1.066,0,0,0-.791.326A1.041,1.041,0,0,0,9.19,17.1h6.877a1.054,1.054,0,0,0,1.074-1.071,1.034,1.034,0,0,0-1.039-1.01Zm-4.549.374a1.478,1.478,0,0,1,1.046.434,1.632,1.632,0,0,1,.3-.108,1.506,1.506,0,0,1,.1-.3,1.521,1.521,0,0,1,1.965-.765A1.81,1.81,0,0,1,8.84,14.3l0-.414a1.433,1.433,0,0,1-1.429-1.429,1.363,1.363,0,0,1,.025-.263l.269-1.437-.736-.68L4.393,13.167a2.807,2.807,0,0,0-.548,1.505A1.549,1.549,0,0,1,4.6,15.4l.071,0M1.782,11.5a2.107,2.107,0,0,0-1.012,1.8v.166a2.128,2.128,0,0,0,1.067,1.84l.657.376c-.007-.026.046-.076.064-.141l-.429-.5a2.083,2.083,0,0,1,.1-2.632,2.353,2.353,0,0,1-.446-.908M2.8,12.927a1.314,1.314,0,0,0-.051,1.651l.027.036a1.53,1.53,0,0,1,.309-.065,3.611,3.611,0,0,1,.376-1.323,2.333,2.333,0,0,1-.661-.3m10.6,1.322v-.37H9.609v.37ZM8.2,12.333a.676.676,0,0,0-.015.124.66.66,0,0,0,.658.656h8.081a.185.185,0,0,0,.185-.185V11.787a.184.184,0,0,0-.185-.184H13.116V8.936a.758.758,0,0,0-.755-.755H9.52a.659.659,0,0,0-.59.37h3.153a.673.673,0,0,1,.67.67V11.6H8.336ZM2.492,11.125A1.609,1.609,0,0,0,3.97,12.538L6.419,9.533l-.664-.665Zm9.481-.29V9.324H8.756l-.28,1.511Zm4.565,0V4.758h-3.8V6.464H10.352l-.313.941H12.36a1.531,1.531,0,0,1,1.527,1.526v1.9ZM2.2,10.4,3.75,9.318,3.707,6.269h.77V8.816l.413-.287-.043-2.26h.77V7.541a1.794,1.794,0,0,1,.4-.521L5.991,5.9H2.2ZM7.08,7.336a1.044,1.044,0,0,0-.887.922L7.869,9.887l.247-1.31a1.284,1.284,0,0,1,.042-.162Zm1.676.3a1.449,1.449,0,0,1,.468-.189L9.8,5.7h2.172V3.988h3.993v-.94H8.756ZM5.417,4.758H2.766v.37H5.417Zm9.574-2.484L12.687.86a.631.631,0,0,0-.653,0L9.73,2.274Z" fill="#666"/>
      <rect id="Rectangle_12860" data-name="Rectangle 12860" width="0.77" height="3.623" transform="translate(2.566 6.269)" fill="#666"/>
      <path id="Path_9394" data-name="Path 9394" d="M9.124,3.417H11.6V5.329H9.124Zm1.711.771H9.894v.37h.941Z" fill="#666"/>
      <rect id="Rectangle_12861" data-name="Rectangle 12861" width="0.77" height="0.77" transform="translate(14.257 5.129)" fill="#666"/>
      <rect id="Rectangle_12862" data-name="Rectangle 12862" width="0.77" height="0.77" transform="translate(15.397 5.129)" fill="#666"/>
      <rect id="Rectangle_12863" data-name="Rectangle 12863" width="0.771" height="0.77" transform="translate(13.116 5.129)" fill="#666"/>
      <rect id="Rectangle_12864" data-name="Rectangle 12864" width="0.77" height="0.771" transform="translate(14.257 6.269)" fill="#666"/>
      <rect id="Rectangle_12865" data-name="Rectangle 12865" width="0.77" height="0.771" transform="translate(15.397 6.269)" fill="#666"/>
      <rect id="Rectangle_12866" data-name="Rectangle 12866" width="0.771" height="0.771" transform="translate(13.116 6.269)" fill="#666"/>
      <rect id="Rectangle_12867" data-name="Rectangle 12867" width="0.77" height="0.77" transform="translate(14.257 8.55)" fill="#666"/>
      <rect id="Rectangle_12868" data-name="Rectangle 12868" width="0.77" height="0.77" transform="translate(14.257 9.691)" fill="#666"/>
      <rect id="Rectangle_12869" data-name="Rectangle 12869" width="0.77" height="0.77" transform="translate(14.257 7.41)" fill="#666"/>
      <rect id="Rectangle_12870" data-name="Rectangle 12870" width="0.77" height="0.77" transform="translate(15.397 9.691)" fill="#666"/>
      <rect id="Rectangle_12871" data-name="Rectangle 12871" width="0.77" height="0.77" transform="translate(15.397 8.55)" fill="#666"/>
      <rect id="Rectangle_12872" data-name="Rectangle 12872" width="0.77" height="0.77" transform="translate(15.397 7.41)" fill="#666"/>
    </g>
  </g>
</svg>
