<svg id="Group_2696" data-name="Group 2696" xmlns="http://www.w3.org/2000/svg" xmlns:xlink="http://www.w3.org/1999/xlink" width="78.395" height="71.83" viewBox="0 0 78.395 71.83">
  <defs>
    <clipPath id="clip-path">
      <rect id="Rectangle_12616" data-name="Rectangle 12616" width="78.395" height="71.83" fill="#7cd2c9"/>
    </clipPath>
  </defs>
  <g id="Group_2695" data-name="Group 2695" clip-path="url(#clip-path)">
    <path id="Path_8199" data-name="Path 8199" d="M78.123,238.314a5.814,5.814,0,0,0-5.782-4.08l-.56.023a6.51,6.51,0,0,0-4.348,1.9l-8.662,8.571a6.074,6.074,0,0,0-5.085-2.751H41.468a25.063,25.063,0,0,1-6.682-.888,16.428,16.428,0,0,0-15.3,3.2,22.131,22.131,0,0,0-4.069,4.387,5.493,5.493,0,0,0-7.087.706l-7.9,8.2a1.535,1.535,0,0,0,.028,2.158l6.351,6.264a1.536,1.536,0,1,0,2.157-2.187l-5.27-5.2,6.844-7.106a2.426,2.426,0,0,1,3.436-.058l12.211,11.85a2.426,2.426,0,0,1,.048,3.434l-6.726,6.9L17.778,272a1.535,1.535,0,1,0-2.117,2.223l2.829,2.7a1.536,1.536,0,0,0,2.159-.04l7.785-7.988a5.5,5.5,0,0,0,1.182-5.845l2.742-.319a33.479,33.479,0,0,1,3.848-.223H54.8c.285,0,.573-.012.856-.036l1.781-.148a10.308,10.308,0,0,0,7-3.6l12.527-14.738a5.973,5.973,0,0,0,1.16-5.666m-3.5,3.677L62.1,256.73a7.245,7.245,0,0,1-4.916,2.527l-1.782.148c-.2.017-.4.025-.6.025H36.206a36.563,36.563,0,0,0-4.2.243l-4.44.517-9.823-9.472a19,19,0,0,1,3.681-4.039,13.3,13.3,0,0,1,12.546-2.628,28.12,28.12,0,0,0,7.5,1H53.687a3.023,3.023,0,0,1,2.165.921,2.988,2.988,0,0,1,.781,1.5,1.51,1.51,0,0,0,.051.411,3,3,0,0,1-.655,2.051l-.047.059a2.99,2.99,0,0,1-2.343,1.124H43a1.535,1.535,0,1,0,0,3.071H53.639a6.045,6.045,0,0,0,4.738-2.274l.047-.059a6.058,6.058,0,0,0,1.333-3.781l9.842-9.739a3.455,3.455,0,0,1,2.308-1.012l.561-.022a2.733,2.733,0,0,1,2.723,1.922,2.917,2.917,0,0,1-.566,2.767" transform="translate(0 -205.51)" fill="#7cd2c9"/>
    <path id="Path_8200" data-name="Path 8200" d="M69.828,395.6a4.159,4.159,0,1,0,4.159,4.158,4.163,4.163,0,0,0-4.159-4.158m0,5.246a1.087,1.087,0,1,1,1.087-1.088,1.089,1.089,0,0,1-1.087,1.088" transform="translate(-57.618 -347.093)" fill="#7cd2c9"/>
    <path id="Path_8201" data-name="Path 8201" d="M288.454,373.528l-.079.019a1.535,1.535,0,1,0,.7,2.989l.079-.018a1.535,1.535,0,1,0-.7-2.99" transform="translate(-251.977 -327.693)" fill="#7cd2c9"/>
    <path id="Path_8202" data-name="Path 8202" d="M88.925,506.069l-.079.019a1.536,1.536,0,0,0,.7,2.99l.079-.018a1.536,1.536,0,0,0-.7-2.99" transform="translate(-76.913 -443.982)" fill="#7cd2c9"/>
    <path id="Path_8203" data-name="Path 8203" d="M250.241,32.5a16.252,16.252,0,0,0,0-32.5,16.085,16.085,0,0,0-10.027,3.461A16.252,16.252,0,0,0,250.241,32.5M238.8,9.7a13.263,13.263,0,0,1,3.311-3.826,13.048,13.048,0,0,1,8.131-2.806A13.174,13.174,0,1,1,238.8,9.7" transform="translate(-205.3 -0.001)" fill="#7cd2c9"/>
    <path id="Path_8204" data-name="Path 8204" d="M329.091,93.3a1.3,1.3,0,0,1-1.025-.495l-5-6.29a1.826,1.826,0,0,1,1.43-2.962h1.7a2.035,2.035,0,0,0,2.025-2.041v-.084a1.925,1.925,0,0,0-1.925-1.925h-2.871a1.309,1.309,0,1,1,0-2.618H326.3a4.542,4.542,0,0,1,4.543,4.542v.084a4.656,4.656,0,0,1-4.642,4.659h-.06l3.976,5.006a1.309,1.309,0,0,1-.211,1.839,1.314,1.314,0,0,1-.814.284" transform="translate(-282.623 -67.463)" fill="#7cd2c9"/>
    <path id="Path_8205" data-name="Path 8205" d="M337.841,79.51a1.309,1.309,0,0,1,0-2.618h6.506a1.309,1.309,0,1,1,0,2.618Z" transform="translate(-295.269 -67.464)" fill="#7cd2c9"/>
    <path id="Path_8206" data-name="Path 8206" d="M323.427,106.7a1.309,1.309,0,1,1,0-2.618H331.7a1.309,1.309,0,0,1,0,2.618Z" transform="translate(-282.622 -91.318)" fill="#7cd2c9"/>
  </g>
</svg>
