<svg id="Group_1152" data-name="Group 1152" xmlns="http://www.w3.org/2000/svg" xmlns:xlink="http://www.w3.org/1999/xlink" width="11.2" height="11.22" viewBox="0 0 11.2 11.22">
  <defs>
    <clipPath id="clip-path">
      <rect id="Rectangle_156" data-name="Rectangle 156" width="11.2" height="11.22" fill="#fff"/>
    </clipPath>
  </defs>
  <g id="Group_419" data-name="Group 419" clip-path="url(#clip-path)">
    <path id="Path_2310" data-name="Path 2310" d="M77.745,81.173A3.174,3.174,0,1,1,80.9,84.359a3.174,3.174,0,0,1-3.156-3.186" transform="translate(-75.322 -75.569)" fill="#fff"/>
    <path id="Path_2311" data-name="Path 2311" d="M46.974,47.9a.59.59,0,0,1,.33-.566.514.514,0,0,1,.6.083c.2.185.4.383.586.585a.552.552,0,0,1-.012.753.544.544,0,0,1-.758.045,7.13,7.13,0,0,1-.607-.613.98.98,0,0,1-.135-.288" transform="translate(-45.51 -45.8)" fill="#fff"/>
    <path id="Path_2312" data-name="Path 2312" d="M48.114,259.439a.587.587,0,0,1,.563.326.516.516,0,0,1-.078.6c-.187.208-.387.406-.592.6a.556.556,0,0,1-.787-.782,7.4,7.4,0,0,1,.6-.6,1.023,1.023,0,0,1,.29-.139" transform="translate(-45.615 -251.354)" fill="#fff"/>
    <path id="Path_2313" data-name="Path 2313" d="M258.877,260.107a.585.585,0,0,1,.334-.576.51.51,0,0,1,.588.083c.207.188.4.388.594.593a.553.553,0,0,1-.021.754.544.544,0,0,1-.75.042,7.125,7.125,0,0,1-.608-.612.978.978,0,0,1-.136-.284" transform="translate(-250.809 -251.388)" fill="#fff"/>
    <path id="Path_2314" data-name="Path 2314" d="M259,48.517a.558.558,0,0,1,.154-.408c.185-.189.368-.38.562-.56a.55.55,0,0,1,.769.018.557.557,0,0,1,.008.78c-.179.189-.363.375-.552.553a.522.522,0,0,1-.6.1.535.535,0,0,1-.336-.488" transform="translate(-250.932 -45.924)" fill="#fff"/>
    <path id="Path_2315" data-name="Path 2315" d="M162.718,300.96c0,.125,0,.249,0,.374a.563.563,0,0,1-.565.562.558.558,0,0,1-.553-.572q0-.362,0-.724a.559.559,0,1,1,1.118-.013c0,.124,0,.249,0,.373" transform="translate(-156.562 -290.676)" fill="#fff"/>
    <path id="Path_2316" data-name="Path 2316" d="M161.624.935c0-.125,0-.249,0-.374A.558.558,0,0,1,162.74.538c.011.264.011.529,0,.794a.558.558,0,0,1-1.116-.035c0-.121,0-.241,0-.362" transform="translate(-156.586 0)" fill="#fff"/>
    <path id="Path_2317" data-name="Path 2317" d="M300.445,163.079c-.124,0-.249,0-.373,0a.56.56,0,0,1,0-1.12c.256-.005.513,0,.769,0a.56.56,0,0,1,0,1.12c-.132,0-.264,0-.4,0" transform="translate(-290.187 -156.908)" fill="#fff"/>
    <path id="Path_2318" data-name="Path 2318" d="M.93,163.089c-.128,0-.256,0-.384,0a.56.56,0,0,1,0-1.12c.252,0,.5,0,.757,0a.56.56,0,0,1,.007,1.12c-.128,0-.256,0-.384,0" transform="translate(0 -156.918)" fill="#fff"/>
  </g>
</svg>
