<svg id="Group_2841" data-name="Group 2841" xmlns="http://www.w3.org/2000/svg" xmlns:xlink="http://www.w3.org/1999/xlink" width="61.67" height="56.708" viewBox="0 0 61.67 56.708">
  <defs>
    <clipPath id="clip-path">
      <rect id="Rectangle_12819" data-name="Rectangle 12819" width="61.67" height="56.708" fill="#2b945c"/>
    </clipPath>
  </defs>
  <g id="Group_2817" data-name="Group 2817" clip-path="url(#clip-path)">
    <path id="Path_9215" data-name="Path 9215" d="M0,7.959v42.78c0,3.572,2.636,5.969,6.566,5.969H53.723a1,1,0,0,0,.995-.995V31.836h-1.99V54.718H6.566c-2.209,0-4.576-1.045-4.576-3.98s2.567-3.98,4.974-3.98h.995a1,1,0,0,0,.995-.995V8.954H52.729v6.964h1.99V7.959a1,1,0,0,0-.995-.995H8.954V.995A1,1,0,0,0,7.959,0H6.964C2.925,0,0,3.343,0,7.959M6.964,1.99V44.77A7.712,7.712,0,0,0,1.99,46.351V7.959c0-3.512,2.049-5.969,4.974-5.969" fill="#2b945c"/>
    <path id="Path_9216" data-name="Path 9216" d="M151.874,129.1a3.06,3.06,0,0,0-4.218,0L128.663,148.1a1.175,1.175,0,0,0-.169.219l-3.194,5.78H108.477a4.477,4.477,0,0,0,0,8.954h7.462v-1.99h-7.462a2.487,2.487,0,1,1,0-4.974h17.41a1,1,0,0,0,.478-.119l6.288-3.472a.72.72,0,0,0,.219-.169l18.992-18.992a2.984,2.984,0,0,0,0-4.218Zm-20.305,21.708-3.144,1.741,1.741-3.144,14.674-14.674,1.4,1.4Zm18.893-18.893-2.815,2.815-1.4-1.4,2.816-2.816a1.009,1.009,0,0,1,1.4,0A.991.991,0,0,1,150.461,131.919Z" transform="translate(-91.067 -112.31)" fill="#2b945c"/>
    <path id="Path_9217" data-name="Path 9217" d="M216,200.995v9.949a1,1,0,0,0,.995.995h4.974a1,1,0,0,0,.995-.995v-4.974h3.979a1,1,0,0,0,.995-.995v-3.979a1,1,0,0,0-.995-.995h-9.949a1,1,0,0,0-.995.995m1.99.995h7.959v1.99h-3.98a1,1,0,0,0-.995.995v4.974H217.99Z" transform="translate(-189.138 -175.128)" fill="#2b945c"/>
    <path id="Path_9218" data-name="Path 9218" d="M274.944,97.949a1,1,0,0,0,.995-.995V88.995a1,1,0,0,0-.995-.995h-9.949a1,1,0,0,0-.995.995v7.959a1,1,0,0,0,.995.995ZM265.99,89.99h7.959v5.969H265.99Z" transform="translate(-231.169 -77.056)" fill="#2b945c"/>
    <path id="Path_9219" data-name="Path 9219" d="M112.913,88H96.995a1,1,0,0,0-.995.995v13.928a1,1,0,0,0,.995.995h10.944a1,1,0,0,0,.995-.995V99.939h3.98a1,1,0,0,0,.995-.995V88.995a1,1,0,0,0-.995-.995m-.995,9.949h-3.98a1,1,0,0,0-.995.995v2.985H97.99V89.99h13.928Z" transform="translate(-84.061 -77.056)" fill="#2b945c"/>
    <rect id="Rectangle_12818" data-name="Rectangle 12818" width="1.29" height="1.29" transform="translate(27.083 49.007)" fill="#2b945c"/>
    <path id="Path_9220" data-name="Path 9220" d="M96,245.969a1,1,0,0,0,.995.995h10.944a1,1,0,0,0,.995-.995v-4.974a1,1,0,0,0-.995-.995H96.995a1,1,0,0,0-.995.995Zm1.99-3.98h8.954v2.985H97.99Z" transform="translate(-84.061 -210.154)" fill="#2b945c"/>
    <path id="Path_9221" data-name="Path 9221" d="M309.969,336a1,1,0,0,0-.995.995v3.979h-3.979a1,1,0,0,0-.995.995v3.979a1,1,0,0,0,.995.995h9.949a1,1,0,0,0,.995-.995v-8.954a1,1,0,0,0-.995-.995Zm3.979,8.954H305.99v-1.99h3.979a1,1,0,0,0,.995-.995v-3.98h2.985Z" transform="translate(-266.195 -294.215)" fill="#2b945c"/>
  </g>
</svg>
