<svg xmlns="http://www.w3.org/2000/svg" width="253.812" height="63.108" viewBox="0 0 253.812 63.108">
  <g id="Logo" transform="translate(0 0)">
    <g id="Group_2808" data-name="Group 2808" transform="translate(0 0)">
      <path id="Path_9159" data-name="Path 9159" d="M94.636,0A11.6,11.6,0,0,0,83.031,11.6c0,6.41,11.605,20.8,11.605,20.8s11.6-14.388,11.6-20.8A11.6,11.6,0,0,0,94.636,0m0,16.617A5.012,5.012,0,1,1,99.648,11.6a5.012,5.012,0,0,1-5.012,5.012" transform="translate(-13.609 0)" fill="#ffbd00"/>
      <path id="Path_9160" data-name="Path 9160" d="M47.851,55.955l-1.9-1.166-3.809,2.343-8.4-5.162,3.818-2.342-1.9-1.166L31.844,50.8l-8.4-5.158L27.26,43.3l-1.9-1.166-3.818,2.354-8.4-5.162,3.818-2.343-1.9-1.166-3.825,2.339L3.8,33.579l7.618-4.685,3.538,2.52,1.838-1.131L13.25,27.76l8-4.921,3.538,2.519,1.838-1.129L23.09,21.706,31.1,16.779l3.538,2.52,1.839-1.13-3.53-2.515,8-4.92,3.538,2.519,1.838-1.13L42.782,9.6l8.277-5.086L49.167,3.338,0,33.58l10.7,6.576.011.008.012.008,10.186,6.257a.968.968,0,0,0,.208.128l10.089,6.2a.981.981,0,0,0,.206.127l10.05,6.175a1,1,0,0,0,.285.175l7.2,4.425L50.87,62.5l-6.835-4.2Z" transform="translate(0 -0.547)" fill="#2d973a"/>
      <path id="Path_9161" data-name="Path 9161" d="M101.741,34.675l-9.627-5.913-.886-.543-.535.774c-2.438,3.526-4.548,6.146-4.635,6.257L84.568,37.1l-1.5-1.852c-.308-.383-3.084-3.858-5.909-8.142A44.46,44.46,0,0,1,71.6,16.451l-.11-.355-2.145-1.32-.017-.012-7.655-4.712L46.343,19.478h-.008l-24.728,15.2,11.637,7.152c.027.018.054.034.08.049L61.675,59.3l13.937-8.557L79.4,48.411l17.5-10.753ZM67.357,15.882q-.134.184-.265.373a25.139,25.139,0,0,0-1.87,3.149,24.064,24.064,0,0,0-1.588,4.075h-.1a33.611,33.611,0,0,1-14.685-3.211l12.821-7.885Zm-20.478,5.6a34.936,34.936,0,0,0,16.278,3.982c-.032.167-.064.336-.092.5a23.133,23.133,0,0,0-.329,3.881c0,.39.008.766.024,1.139a1.146,1.146,0,0,0,.009.178,27,27,0,0,0-20.426,1.552,27.591,27.591,0,0,0-8.766,6.988L25.4,34.679Zm27.69,27.574-12.9,7.918L35.286,40.754a25.6,25.6,0,0,1,7.949-6.266,25.007,25.007,0,0,1,19.753-1.15l.549.214A25.582,25.582,0,0,1,77.62,47.16Z" transform="translate(-3.541 -1.647)" fill="#2d973a"/>
      <path id="Path_9196" data-name="Path 9196" d="M132.026,42.989l1.409-5.267c2.755,4.348,8.94,7.348,14.268,7.348,5.757,0,8.94-3.552,8.94-7.838,0-5.512-5.511-7.838-9.8-9.736l-3.062-1.286c-4.287-1.9-11.268-5.206-11.268-13.289,0-7.409,6-12.921,15.309-12.921a30.246,30.246,0,0,1,12.86,3.062l-1.224,4.716c-2.695-3.124-6.981-6.8-12.432-6.8-5.389,0-8.266,3.429-8.266,7.348,0,5.022,4.838,7.287,9.307,9.246l3.063,1.287c4.96,2.143,11.7,5.389,11.7,13.594,0,7.226-5.573,13.595-15.922,13.595-5.94,0-13.044-2.082-14.881-3.062" transform="translate(-21.64 5.779)" fill="#fff"/>
      <path id="Path_9197" data-name="Path 9197" d="M168.87,53.911c8.144-5.022,9.124-10.655,9.124-21.923V.879h9.675V31.5c0,14.942-9.307,19.535-18.371,23.148Z" transform="translate(-27.679 5.635)" fill="#fff"/>
      <path id="Path_9198" data-name="Path 9198" d="M229.782,38.234l-1.409,7.226h-23.76V.879h9.737V44.358h.857c3.675,0,8.083-1.1,14.453-6.124Z" transform="translate(-33.537 5.635)" fill="#fff"/>
      <rect id="Rectangle_12755" data-name="Rectangle 12755" width="9.737" height="44.581" transform="translate(204.146 6.513)" fill="#fff"/>
      <path id="Path_9199" data-name="Path 9199" d="M266.727,42.989l1.409-5.267c2.755,4.348,8.94,7.348,14.268,7.348,5.757,0,8.94-3.552,8.94-7.838,0-5.512-5.511-7.838-9.8-9.736l-3.062-1.286c-4.287-1.9-11.268-5.206-11.268-13.289,0-7.409,6-12.921,15.309-12.921a30.246,30.246,0,0,1,12.86,3.062l-1.224,4.716C291.467,4.654,287.18.98,281.73.98c-5.389,0-8.266,3.429-8.266,7.348,0,5.022,4.838,7.287,9.307,9.246l3.063,1.287c4.96,2.143,11.7,5.389,11.7,13.594,0,7.226-5.573,13.595-15.922,13.595-5.94,0-13.044-2.082-14.881-3.062" transform="translate(-43.718 5.779)" fill="#fff"/>
    </g>
  </g>
</svg>
