<svg xmlns="http://www.w3.org/2000/svg" width="23.996" height="21.266" viewBox="0 0 23.996 21.266">
  <g id="chat_8_" data-name="chat (8)" transform="translate(0 2.082)">
    <path id="Path_8521" data-name="Path 8521" d="M158.355,200.953h8.665v1.4h-8.665Zm0,0" transform="translate(-152.418 -195.423)" fill="#fdca19"/>
    <path id="Path_8522" data-name="Path 8522" d="M158.355,291.668h8.665v1.4h-8.665Zm0,0" transform="translate(-152.418 -282.736)" fill="#fdca19"/>
    <path id="Path_8523" data-name="Path 8523" d="M24,2.446A4.528,4.528,0,0,0,15.339.585H2.8A2.8,2.8,0,0,0,0,3.383v8.984a2.8,2.8,0,0,0,2.8,2.8h.757v4.019l6-4.019h7.815a2.8,2.8,0,0,0,2.8-2.8V6.92A4.536,4.536,0,0,0,24,2.446ZM17.373,13.761H9.132L4.959,16.555V13.761H2.8A1.4,1.4,0,0,1,1.4,12.367V3.383A1.4,1.4,0,0,1,2.8,1.989H14.962a4.529,4.529,0,0,0,3.805,4.932v5.446a1.4,1.4,0,0,1-1.394,1.394Zm2.094-8.191a3.125,3.125,0,1,1,3.125-3.124A3.128,3.128,0,0,1,19.467,5.571Zm0,0" fill="#fdca19"/>
    <path id="Path_8524" data-name="Path 8524" d="M500.5,74.387h1.4v3.323h-1.4Zm0,0" transform="translate(-481.735 -73.602)" fill="#fdca19"/>
  </g>
</svg>
