<svg id="Group_14246" data-name="Group 14246" xmlns="http://www.w3.org/2000/svg" xmlns:xlink="http://www.w3.org/1999/xlink" width="533.844" height="377.123" viewBox="0 0 533.844 377.123">
  <defs>
    <clipPath id="clip-path">
      <rect id="Rectangle_12981" data-name="Rectangle 12981" width="533.844" height="377.123" fill="none"/>
    </clipPath>
    <clipPath id="clip-path-3">
      <rect id="Rectangle_12978" data-name="Rectangle 12978" width="272.882" height="272.225" fill="none"/>
    </clipPath>
    <clipPath id="clip-path-4">
      <rect id="Rectangle_12979" data-name="Rectangle 12979" width="18.738" height="22.566" fill="none"/>
    </clipPath>
  </defs>
  <g id="Group_14245" data-name="Group 14245" clip-path="url(#clip-path)">
    <g id="Group_14244" data-name="Group 14244">
      <g id="Group_14243" data-name="Group 14243" clip-path="url(#clip-path)">
        <path id="Path_15196" data-name="Path 15196" d="M515.754,221.85c7.995,4.946,10.913,11.611-1.749,21.348-11.223,8.629-21.839,10.7-35.665,11.588-18.777,1.2-37.907,5.149-56.3,8.991-12.941,2.7-24.179,5.375-37.318,3.358-9.342-1.438-17.493-2.128-27.023-1.138-11.135,1.158-21.712,5-32.888,5.764-8.425.577-16.861-.746-25.283-1.049-18.738-.678-34.065-6.091-53.308-2.5-16.673,3.106-29.613-.3-46.319-1.272-31.11-1.815-63.04-1.086-94.266-1.594-16.69-.273-28.288-7.364-43.728-12.455-8.34-2.747-16.241-6.591-24.933-8.166-6.956-1.26-16.319.14-22.654-3.275-24.967-13.458,15.7-31.725,26.773-34.021,25.657-5.316,52.366-17.084,78.688-12.975,22.084,3.448,44.918-7.929,67.794-6.042,13.932,1.152,27.987.837,42.035.87,37.058.091,73.056-1.341,110.038.721,20.043,1.117,40.042,1.265,60.084,2.859,14.072,1.122,28.133.346,42.213,1.3,17.652,1.187,28.983,10.6,45.091,16.649,7.636,2.865,20.72,6.094,28.72,11.044" transform="translate(3.109 92.194)" fill="#c8e8c5"/>
        <path id="Path_15197" data-name="Path 15197" d="M49.264,205.781c-.5,2.563-1.624,5.4-1.5,8.016a1.668,1.668,0,0,0,2.808,1.164c1.827-1.509,2.8-3.415,4.058-5.383a22.145,22.145,0,0,1,3.787-4.872c.4,2.656-1.365,5.738.429,8.063a1.473,1.473,0,0,0,1.983.52c2.075-1.5,1.989-5.425,3.877-6.538.827-.487.572.107.973,1.226.221.617.4,1.243.65,1.85a6.687,6.687,0,0,0,1.779,2.886,2.367,2.367,0,0,0,2.732.353c3.887-2.049,1.2-7.381,1.67-10.977,1.828,1.676,2.989,5.089,5.232,6.344a1.447,1.447,0,0,0,2.1-.854c.858-3.068-.311-6.782-.492-9.917-.1-1.7-.9-8.045,1.658-5.784,1.129,1,1.621,4.914,2.05,6.371.267.9.505,1.809.8,2.7.559,1.713,1.04,3.436,2.925,3.978a1.823,1.823,0,0,0,2.2-1.25c.742-2.379.232-4.96.723-7.436a23.293,23.293,0,0,1,1.783-5.965,40.924,40.924,0,0,1,.067,6.918c0,2.448.179,4.7,1.588,6.78a2.37,2.37,0,0,0,2.6,1.056c2.229-.642,3.132-2.652,3.865-4.69.432-1.2.662-2.478,1.131-3.662a13.314,13.314,0,0,1,1.237-1.944c-.161.98-.359,1.958-.53,2.935-.331,1.874-.94,4.008-.516,5.907a1.73,1.73,0,0,0,2.524,1.027,23.3,23.3,0,0,0,5.08-4.8c.374-.45.711-.925,1.079-1.38a21.233,21.233,0,0,1,1.456-1.809c.066,2.531-2.309,5.109-.882,7.619a1.337,1.337,0,0,0,2.071.267c.761-.659,5.006-6.521,5.93-5.8.536.422-1.313,5.468-.967,6.606a1.17,1.17,0,0,0,1.42.806c2.864-.886,7.227-7.905,10.426-5.253,1.064.882,2.6-.629,1.533-1.533-4.477-3.778-7.481,1.707-11.116,3.9.518-2.613,2.674-6.514-.778-7.19-2.32-.454-4.236,1.836-5.918,3.936,1-2.521,2.859-5.478,0-6.958-1.514-.782-2.852.173-3.935,1.22-1.581,1.529-2.8,3.316-4.249,4.909,1.043-4.239,3.415-9.9.176-11.877-2.633-1.6-4.75,2.1-5.909,3.865a24.65,24.65,0,0,0-2.475,4.714c-.01.03-.025.073-.037.112-.15-5.547-.17-12.646-5.058-11.43-2.607.65-4.13,4.155-4.835,6.46a25.693,25.693,0,0,0-.894,7.542c-1.192-3.016-2.485-7.414-2.838-8.162-.816-1.736-1.959-3.454-4.125-2.464-4.584,2.092-1.77,11.113-1.39,16.35-1.6-1.935-2.525-4.479-4.787-5.808a1.572,1.572,0,0,0-1.883.243,6.611,6.611,0,0,0-1.585,3.571c-.1.532-.191,2.031-.259,3.5-.748-1.816-1.579-3.525-3.953-3.129-2.883.481-3.224,3.754-4.231,6.229-.08-2.178.587-5.1-.185-6.789a1.341,1.341,0,0,0-1.511-.614c-2.862.866-4.808,3.555-6.649,6.238.927-4.562,1.5-9.8-2.642-9.818-2.476-.013-4.479,3-5.7,4.762a53.391,53.391,0,0,0-3.048,5.158c.317-3.623.8-7.236-1.454-10.553a2.315,2.315,0,0,0-3.077-.806c-2.58,1.287-3.881,4.055-5.028,6.582a19.967,19.967,0,0,0-.864,2.4c-.618-4.1-1.88-7.905-5.775-6.445-4.28,1.6-5.17,7.032-5.6,12.214a15.712,15.712,0,0,0-1.74-5.389c-.855-1.406-2.318-2.756-4-1.774-1.77,1.034-1.764,4-1.867,5.766-.06,1.028.158,5.4.176,8.151-1.949-3.494-5.153-8.832-7.256-4.678-.827,1.634.2,4.507.647,6.111a22.9,22.9,0,0,0,5.471,9.756c.447.481,1.161-.131.878-.678-1.858-3.591-4.2-7.835-4.407-11.955-.149-2.9.97.405,1.581,1.737a14.135,14.135,0,0,0,2.656,4.13,1.4,1.4,0,0,0,1.642.213c1.469-.642,1.357-1.673,1.365-3.1.015-3.1-.168-6.18.009-9.3a11.12,11.12,0,0,1,.155-1.864c.219-.915-.156-1.408.55-.968.888.554.892,3.473,1.022,4.346.471,3.145.961,6.508,2.394,9.38a2.134,2.134,0,0,0,3.662,0c1.192-2.458,1.471-5.058,1.861-7.737.179-1.234.334-2.473.577-3.7a14.935,14.935,0,0,1,.819-2.271c.048.188.089.365.115.51.472,2.579.571,5.408,1.694,7.792a2.628,2.628,0,0,0,4.106.529c2.937-3.409,2.718-10.468,5.5-14.173,1.1,4.188-.76,9.333.5,13.488a2.076,2.076,0,0,0,3.431.906c1.5-1.427,2.142-3.628,3.057-5.445,1.223-2.427,2.485-4.863,3.912-7.177,2.429-3.936,2.245-.462,1.764,1.987" transform="translate(1.955 90.329)" fill="#7bc07d"/>
        <path id="Path_15198" data-name="Path 15198" d="M164.174,247.775c-.621.44-1.283.986-1.922,1.383-1.43.889-.6,1.137-.974.027-.359-1.059.2-3.132.147-4.286-.106-2.423-.659-5.8-3.664-6.041-3.142-.253-4.929,2.846-6.286,5.746-.463-2.287-.426-5.076-3.315-5.608-3.068-.563-4.894,2.887-5.708,5.743-.414-1.317-.881-2.7-2.144-3.382-2.242-1.22-3.455.216-4.605,1.724-.1-.462-.21-.915-.335-1.33a1.781,1.781,0,0,0-1.7-1.292,6.341,6.341,0,0,0-4.581,3.126,4.081,4.081,0,0,0-1.408-1.782c-2.244-1.515-4.072.355-5.507,1.99-.024.027-.3.319-.63.672,0-.145.016-.289.012-.434a6.211,6.211,0,0,0-1.1-3.886c-2.046-2.676-5.183-1.292-7.51.136-.806.495-2.1,1.254-3.224,2.1,1.031-3.2,2.408-7.578.444-9.866-1.862-2.168-4.842-.943-6.83.35a17,17,0,0,0-2.662,2.241c.459-1.69.9-3.384,1.3-5.075.551-2.332,1.3-6.38-.875-8.2-3.8-3.175-7.9,3.376-11.047,8.763.757-3.2,1.5-6.411,1.992-9.64.329-2.151,1.079-5.816-1.383-7.016-3.4-1.658-6.785,3.61-8.258,5.907a80.274,80.274,0,0,0-5.034,9.847c-.051.107-.1.231-.155.364a70.562,70.562,0,0,0,.723-8.239c.006-2.944.113-7.84-2.945-9.474-7.4-3.956-10.231,11.071-11.894,21.2-.949-9.148-1.937-22.917-9.237-18.343-2.908,1.821-3.346,6.49-3.741,9.54-.489,3.8-.021,7.457.347,11.14-1.165-1.755-2.315-3.567-2.545-3.908-1.365-2.025-2.674-6.07-5.8-5.891-5.118.292-1.767,8.7-.84,13.133-2.661-2.9-5.237-9.629-8.859-8.129-4.666,1.932,1.591,11.867,3.573,14,.813.875,2-.395,1.286-1.286a14.881,14.881,0,0,1-3.4-8.093c-.209-2.963,1.04-.647,2.1.749,1.718,2.259,3.413,5.952,6.4,6.6a1.382,1.382,0,0,0,1.663-.945c.571-1.938-.271-3.887-.664-5.806-.192-.942-1.59-5.253-.846-6.049.414-.442,2.65,3.655,2.88,4.006a66.059,66.059,0,0,1,3.6,6.186c.827,1.611,1.688,3.007,3.489,3.55a2.343,2.343,0,0,0,2.855-1.62c1.044-4.571-.533-9.784-.121-14.549.115-1.338.173-2.683.368-4.014a15.306,15.306,0,0,1,.644-2.256c.147.939.651,2.446.751,2.9.672,3.078,1.062,6.2,1.521,9.31.526,3.558.517,8.962,3.792,11.2a2.372,2.372,0,0,0,3.23-.848c2.145-4.447,1.633-10.082,2.734-14.853a57.823,57.823,0,0,1,2.253-7.473,24.486,24.486,0,0,1,1.868-4.2c.563-.916-.022-1.648.586-.22.84,1.973.417,4.955.346,7.066-.176,5.206-1.438,10.5-.7,15.685.221,1.536,2.083,1.8,3.2,1.3,2.692-1.2,3.607-5.927,4.642-8.314,1.952-4.495,3.926-9.115,6.773-13.127.088-.122,1.925-2.776,1.916-2.779.34.109.14,1.813.13,2.162a21.1,21.1,0,0,1-.465,3.312c-.925,4.933-2.116,9.811-3.361,14.671-.3,1.186,1.071,2.442,2.189,1.684,3.723-2.528,5.434-7.951,8.342-11.38.481-.569,2.022-2.892,2.883-2.044.538.53-.633,3.562-.8,4.12-.857,2.783-1.658,5.614-2.665,8.346-.708,1.914-2.233,4.607-.472,6.4,2.726,2.783,4.988-1.6,6.43-3.233a29.25,29.25,0,0,1,4.707-4.412,2.2,2.2,0,0,0-.21.34,19.917,19.917,0,0,0-1.046,3.784c-.53,2.135-2.239,6.2-.149,8.032,2.533,2.218,5.3-1.372,6.952-2.928,1.471-1.378,4.85-5.13,6.529-2.04.659,1.216-.168,2.862.7,4.242a1.645,1.645,0,0,0,1.412.81c2.357-.113,2.265-1.794,3.869-3.118,3.208-2.649,2.881,1.453,3.823,3.589.63,1.43,2.887.662,2.858-.773a7.183,7.183,0,0,1,1.564-4.088,14.6,14.6,0,0,0,.608,2.461,1.813,1.813,0,0,0,2.636,1.071c1.9-1.251,2.427-4.589,4.417-.749.954,1.841.337,2.941,2.159,4.072a1.645,1.645,0,0,0,1.654,0,2.541,2.541,0,0,0,1.322-1.581c.425-.952.936-7.9,2.174-6.642.676.69.417,3.278.715,4.26a6.317,6.317,0,0,0,2.1,3.208,2.3,2.3,0,0,0,3.53-.454,16.688,16.688,0,0,0,2.755-4.909c.18-.618.069-2.125.286-1.715a5.628,5.628,0,0,1,.322,1.946c.2,1.92-.182,4.069.3,5.945,2.247,8.705,10.45-5.4,12.66-1.482.959,1.7,3.451.2,2.6-1.517-2.084-4.2-5.173-3.15-8.449-.83" transform="translate(15.057 103.705)" fill="#7bc07d"/>
        <path id="Path_15199" data-name="Path 15199" d="M167.882,229.915c1.381.355,2.409-1.763,1.01-2.4-2.9-1.314-4.507-1.058-6.776.206.673-1.785,2.39-4.446,1.779-6.1a1.23,1.23,0,0,0-1.159-.882c-3.99.3-5.743,3.845-8.647,5.812,1.323-2.741,5.584-6.016,2.658-8.515-1.839-1.57-4.318-.42-6.627,1.459.581-2.18.444-4.075-1.462-4.611-2.689-.758-5.808,2.3-7.563,3.92-.107.1-.241.212-.389.332,1.074-2.615,3.835-8.319.757-10.073-1.7-.97-3.221.438-4.482,1.451a45.235,45.235,0,0,0-3.938,3.47c1.368-5.407,2.361-11.672-2.726-11.129-3.267.349-5.387,3.708-7.017,7.385.013-.162.024-.31.024-.437,0-2.068,0-5.08-2.2-6.12-2.527-1.193-4.488,1.351-5.746,3.182a24.284,24.284,0,0,0-2.688,5.367c-.057.152-.11.307-.167.46a6.962,6.962,0,0,0-1.094-2.661,2.793,2.793,0,0,0-4.586-.134c-.86.976-1.85,4.015-2.18,6.485-.21-.541-.416-1.065-.524-1.374a6.817,6.817,0,0,0-1.98-3.415,1.518,1.518,0,0,0-1.785-.231c-1.922,1.187-2.244,3.184-2.195,5.335.024,1.041.852,3.489,1.176,5.31-1.8-2.381-4.185-6.308-6.532-5.264-2.744,1.223,1.165,5.818,1.858,6.9.495.773,1.719.072,1.237-.723-.077-.127-1.879-2.844-1.831-2.893.782-.825,2.546,1.62,2.829,1.947,1.067,1.243,1.427,2.47,2.8,3.452a1.1,1.1,0,0,0,1.472-.386c1.691-2.272-1.4-7.481-.237-10.1.535,1.17.733,2.624,1.173,3.719A15.5,15.5,0,0,0,104.467,223a1.546,1.546,0,0,0,1.508.4c1.471-.34,1.8-1.381,2.1-2.744.152-.693.232-2.764.466-4.638a15.532,15.532,0,0,0,.051,1.6,10.857,10.857,0,0,0,1.761,4.958,2.422,2.422,0,0,0,3.746.483c2.035-1.955,2.022-5.434,2.77-8.041a24.214,24.214,0,0,1,2.269-5.948,1.836,1.836,0,0,0,.323-.3,8.7,8.7,0,0,1,.018,1.043c.066,3.726-2.238,8.349.474,11.5a1.985,1.985,0,0,0,3.087-.4c2.668-4.069,3.845-8.777,6.631-12.825a3.124,3.124,0,0,0,.3-.529l0,.013c.594,1.563-.431,3.866-.849,5.443-.69,2.6-2.025,5.308-1.81,8.035a2.067,2.067,0,0,0,2.589,1.973c2.062-.758,2.917-2.592,4.157-4.3.846-1.164,6.091-5.767,5.554-7.084,1.122,2.749-2.837,7.174-3.144,9.936-.355,3.181,2.378,3.6,4.423,1.818,1.844-1.611,3.218-4.51,5.594-5.413,2.664-1.013.754,1.45.162,2.826a32.937,32.937,0,0,1-2.741,5.246c-.863,1.307,1.091,2.8,2.162,1.667,1.77-1.864,3.489-3.814,5.428-5.507,2.043-1.783,4.154-2.63,2.347.594-1.041,1.859-2.916,3.874-2.415,6.161a1.213,1.213,0,0,0,1.484.842,9.121,9.121,0,0,0,3.321-2.189,32.619,32.619,0,0,1,2.485-2.248c.288-.25.577-.5.866-.751q2.82-1.971,1.746-.085c.247,2.059-2.8,3.622-1.432,5.9a1.22,1.22,0,0,0,1.627.428c2.2-1.089,3.9-1.578,6.353-.948" transform="translate(44.998 99.359)" fill="#7bc07d"/>
        <path id="Path_15200" data-name="Path 15200" d="M31.979,221.375c-1.758-.459-3.02.468-4,1.828-.018-1.322-.13-2.646-.25-3.957-.188-2.069.247-5.152-2.5-5.37-2.554-.2-4.16,3.121-5.1,4.942a21.717,21.717,0,0,0-1.7,4.523,8.807,8.807,0,0,0-.264-1.278c-.608-1.742-1.806-4.406-4.008-4.5-3.1-.134-3.793,3.236-3.889,6.567a4.47,4.47,0,0,0-3.059-2.956,1.232,1.232,0,0,0-1.353.55c-.667,1.143-.222,4.14-.848,4.415-.885.387-2.411-1.529-3.842-1.351A1.2,1.2,0,0,0,.04,226.273,14.442,14.442,0,0,0,2.9,231.385c.809,1.067,2.634.076,1.841-1.076a25.415,25.415,0,0,1-1.69-2.746c1.494.985,2.935,2.87,4.269.083.647-1.353-.636-4.762.985-1.59.872,1.7,1.089,3.381,2.452,4.809a1.482,1.482,0,0,0,2.458-.65c.407-2.171.034-4.315.349-6.478.039-.271.508-2.674.761-2.656a24.166,24.166,0,0,0,.7,3.549c.539,2.561.17,6.779,2.446,8.567,1.146.9,3.062.751,3.457-.913.67-2.822.662-5.714,1.271-8.541A21.139,21.139,0,0,1,24,218.49c.915-1.739.524-1.764,1.052-.307.916,2.539.405,5.849.1,8.446-.136,1.152-.39,1.932.221,2.993a1.322,1.322,0,0,0,2.26,0c.808-1.415,1.465-4.464,3.22-4.389,1.582.066,1.25,1.636,1.4,3.054.2,1.9.244,3.8.466,5.693a1.084,1.084,0,0,0,2.166,0c.38-2.873,1.329-11.5-2.905-12.606" transform="translate(0 104.769)" fill="#7bc07d"/>
        <path id="Path_15201" data-name="Path 15201" d="M173.6,237.5c-.781.143-4.283,2.528-4.371,2.484-.319-.165.074-3.629-.061-4.248a3.7,3.7,0,0,0-5.283-2.847c-1.867.788-2.74,2.743-3.841,4.272-.764-2.741-.881-6.459-4.482-6.031-1.794.212-2.864,1.745-3.628,3.206-.4.769-.53,1.693-.946,2.448-1.076,1.95-.886,2.077-2.527.146-1.409-1.661-4.753-4.727-7.062-2.449-2.539,2.5.5,8.64,1.24,11.331.14.513,1.021.434.961-.131-.14-1.32-.493-2.554-.706-3.86a8.9,8.9,0,0,1-.2-3.462q.016-.61.033-1.217l3.257.288c1.679,1.041,2.189,4.471,4.869,3.822,1.763-.426,2.034-2.6,2.816-3.932.5-.854.387-1.6,1.548-1.669,1.384-.085.9.854,1.1,2.107a9.167,9.167,0,0,0,1.266,3.969,2.215,2.215,0,0,0,2.923.767c1.466-.635,3.215-3.021,4.035-4.364a1.613,1.613,0,0,1,.481-.441,1.1,1.1,0,0,1,.027.328,8.254,8.254,0,0,0,.441,3.2c2.414,7.005,8.214-3.4,10.851-.124.672.834,1.786.051,1.88-.779.3-2.633-2.484-3.2-4.617-2.81" transform="translate(68.78 113.207)" fill="#7bc07d"/>
        <path id="Path_15202" data-name="Path 15202" d="M368.964,216.194a2.628,2.628,0,0,0,4.108-.529c1.122-2.382,1.222-5.213,1.693-7.791.027-.145.069-.322.115-.508a14.943,14.943,0,0,1,.821,2.268c.243,1.225.4,2.463.577,3.7.39,2.677.667,5.277,1.859,7.734a2.133,2.133,0,0,0,3.662,0c1.435-2.869,1.925-6.232,2.394-9.379.131-.875.134-3.793,1.024-4.346.7-.441.331.054.548.967a10.847,10.847,0,0,1,.155,1.865c.177,3.117-.006,6.193.01,9.3.006,1.429-.1,2.461,1.363,3.1a1.4,1.4,0,0,0,1.643-.215,14.121,14.121,0,0,0,2.655-4.13c.611-1.33,1.73-4.635,1.582-1.737-.212,4.121-2.551,8.366-4.409,11.956-.283.547.432,1.159.879.676a22.888,22.888,0,0,0,5.469-9.756c.445-1.6,1.475-4.476.647-6.11-2.1-4.155-5.305,1.184-7.256,4.678.019-2.752.235-7.125.176-8.151-.1-1.763-.1-4.73-1.865-5.766-1.681-.982-3.144.367-4,1.773a15.675,15.675,0,0,0-1.739,5.39c-.432-5.183-1.32-10.611-5.6-12.214-3.895-1.459-5.158,2.351-5.775,6.445a19.958,19.958,0,0,0-.866-2.4c-1.147-2.525-2.448-5.3-5.028-6.582a2.313,2.313,0,0,0-3.075.8c-2.256,3.318-1.773,6.931-1.454,10.553a53.485,53.485,0,0,0-3.05-5.155c-1.219-1.767-3.223-4.778-5.7-4.763-4.143.021-3.568,5.256-2.642,9.818-1.841-2.685-3.787-5.374-6.648-6.238a1.342,1.342,0,0,0-1.512.615c-.772,1.691-.1,4.61-.185,6.788-1.007-2.475-1.348-5.748-4.23-6.229-2.373-.395-3.206,1.313-3.954,3.129-.067-1.466-.156-2.965-.259-3.5a6.621,6.621,0,0,0-1.585-3.574,1.574,1.574,0,0,0-1.883-.241c-2.262,1.328-3.188,3.872-4.787,5.806.381-5.235,3.2-14.257-1.389-16.348-2.168-.989-3.31.729-4.127,2.464-.352.748-1.646,5.146-2.838,8.162a25.643,25.643,0,0,0-.894-7.542c-.7-2.306-2.226-5.811-4.835-6.46-4.888-1.216-4.908,5.884-5.057,11.429-.013-.037-.027-.08-.039-.11a24.48,24.48,0,0,0-2.475-4.714c-1.159-1.768-3.275-5.469-5.909-3.865-3.238,1.973-.867,7.64.176,11.879-1.448-1.594-2.668-3.382-4.248-4.911-1.085-1.047-2.421-2-3.936-1.22-2.864,1.479-1,4.437,0,6.958-1.682-2.1-3.6-4.391-5.918-3.936-3.452.675-1.3,4.575-.778,7.19-3.635-2.192-6.639-7.677-11.115-3.9-1.071.9.468,2.415,1.532,1.532,3.2-2.651,7.563,4.367,10.428,5.255a1.169,1.169,0,0,0,1.418-.806c.346-1.138-1.5-6.186-.967-6.606.924-.726,5.17,5.136,5.93,5.8a1.337,1.337,0,0,0,2.071-.267c1.427-2.512-.946-5.089-.88-7.619a21.2,21.2,0,0,1,1.454,1.807c.368.454.7.93,1.08,1.381a23.222,23.222,0,0,0,5.081,4.8,1.731,1.731,0,0,0,2.524-1.025c.423-1.9-.186-4.033-.516-5.907-.173-.977-.371-1.955-.532-2.937a13.263,13.263,0,0,1,1.237,1.944c.471,1.186.7,2.463,1.131,3.664.733,2.037,1.636,4.048,3.865,4.692a2.374,2.374,0,0,0,2.6-1.059c1.409-2.081,1.593-4.331,1.59-6.779a40.789,40.789,0,0,1,.067-6.919,23.289,23.289,0,0,1,1.782,5.967c.49,2.475-.019,5.057.724,7.436a1.822,1.822,0,0,0,2.2,1.25c1.883-.542,2.364-2.265,2.923-3.978.292-.894.53-1.8.8-2.7.429-1.459.921-5.37,2.052-6.372,2.552-2.263,1.754,4.087,1.657,5.784-.179,3.135-1.348,6.849-.492,9.917a1.447,1.447,0,0,0,2.1.854c2.244-1.254,3.4-4.668,5.232-6.344.472,3.6-2.217,8.929,1.672,10.977a2.366,2.366,0,0,0,2.731-.353,6.686,6.686,0,0,0,1.779-2.886c.249-.608.431-1.234.651-1.85.4-1.119.146-1.713.973-1.226,1.886,1.113,1.8,5.034,3.875,6.538a1.474,1.474,0,0,0,1.983-.52c1.794-2.327.031-5.407.429-8.063a22.1,22.1,0,0,1,3.787,4.872c1.257,1.968,2.232,3.874,4.058,5.383a1.669,1.669,0,0,0,2.81-1.164c.127-2.612-.992-5.453-1.5-8.016-.481-2.449-.664-5.925,1.764-1.987,1.427,2.312,2.689,4.75,3.912,7.175.916,1.819,1.555,4.021,3.057,5.447a2.076,2.076,0,0,0,3.431-.906c1.26-4.155-.6-9.3.5-13.488,2.78,3.705,2.561,10.764,5.5,14.172" transform="translate(131.826 90.329)" fill="#7bc07d"/>
        <path id="Path_15203" data-name="Path 15203" d="M99.346,203.549q-1.2-1.059.666-1.825.883-2.018,1.977-.462c1.01.386,1.844,1.691,2.628,2.436.761.721,1.7,1.818,2.813,2,2.256.364,3.141-1.546,3-3.449-.106-1.45-.812-2.788-.939-4.258a5.734,5.734,0,0,1,0-.846c.083.209.17.414.247.624.974,2.518,1.45,4.993,4.2,6.021a2.547,2.547,0,0,0,3.121-1.773c.527-2.811-.122-5.563.331-8.449a11.681,11.681,0,0,1,.3-1.187c.548,1.231,1.082,2.467,1.576,3.722.794,2.011,1.342,3.72,3.4,4.762,1.222.621,3.227.454,3.85-1.009,1.448-3.4,1.8-7.223,2.634-10.827.1-.454.791-2.192,1.387-3.684.7,3.883-.414,8.095.842,11.806,1.327,3.924,5.252,5.355,7.274,1.238,1.806-3.677,2.658-7.773,4.552-11.42.69-1.332,1.885-2.655,2.46-4.045-.039,1.572.317,3.591.22,4.915-.161,2.22-.46,4.425-.688,6.637-.268,2.606-.164,7.23,3.591,7.058,2.324-.109,3.5-2.548,4.28-4.376,1.423-3.319,3.273-6.636,5.015-9.8a8.447,8.447,0,0,1,1.982-2.853q1.12-2,1.088-.057c.571,1.421-.9,5.143-1.293,6.628-.74,2.783-1.839,5.8-1.675,8.71a1.842,1.842,0,0,0,2.306,1.757c1.885-.593,2.283-1.691,3.184-3.293.518-.922,4.671-8.275,6.17-7.263,1.353.913-1.606,8.674-1.664,10.365a1.583,1.583,0,0,0,2.364,1.356c2.056-1.286,2.643-4.076,3.865-6.064.864-1.4,1.555-3.524,1.548-.58,0,1.328-.487,2.609-.225,3.954.67,3.437,3.111,3.194,5.51,2.314a1.014,1.014,0,0,0,1.97.156A4.006,4.006,0,0,1,184.347,201a1.1,1.1,0,0,0,.377-.294,2.08,2.08,0,0,1,2.5-.295c.294.232.554,1.621.7,1.929a6.935,6.935,0,0,0,2.482,2.944,1.629,1.629,0,0,0,2.192-.575c.906-1.36.1-3.525.886-4.641,1.45-2.063,4.9,3.024,5.934,4.009a2.207,2.207,0,0,0,3.643-.961c.994-2.887.873-5.915,1.5-8.883a22.387,22.387,0,0,1,.943-3.2c.155-.419.335-.827.51-1.238,1.378,3.58.813,7.37,3.667,10.431a2.488,2.488,0,0,0,3.477,0c1.716-1.748,2.144-4.453,3.007-6.688a34.725,34.725,0,0,1,2.25-5.288c.429-.723,2.67-3.06,2.458-3.188,1.378.834.045,10.456-.019,12.177-.1,2.613-.5,4.848,1.493,6.818a2.768,2.768,0,0,0,3.819,0c2.056-1.743,3.589-4.181,5.289-6.258.56-.684,3.591-4.2,3.34-4.368.7.486-.682,5.155-.758,5.957a5.24,5.24,0,0,0,.751,3.957,1.909,1.909,0,0,0,2.052.834c2.458-.425,4.6-3.027,6.289-4.705,1.32-1.313,1.131-1.846,1.047.007a27.706,27.706,0,0,0-.279,3.084,1.942,1.942,0,0,0,3.267,1.353c1.521-1.207,5.088-5.417,7.217-1.871a1.49,1.49,0,0,0,2.631-.28c2.765,1.21,6.1,2.363,6.9-1.748.262-1.345-.222-2.627-.225-3.954-.009-2.944.682-.825,1.547.58,1.223,1.987,1.81,4.778,3.866,6.064a1.582,1.582,0,0,0,2.363-1.356c-.057-1.691-3.016-9.452-1.663-10.365,1.5-1.012,5.651,6.341,6.17,7.263.9,1.6,1.3,2.7,3.184,3.293a1.842,1.842,0,0,0,2.306-1.757c.162-2.911-.934-5.927-1.676-8.71-.395-1.485-1.862-5.207-1.293-6.628q-.031-1.94,1.089.057a8.422,8.422,0,0,1,1.98,2.853c1.742,3.162,3.594,6.478,5.016,9.8.784,1.828,1.956,4.267,4.28,4.376,3.755.173,3.859-4.452,3.591-7.058-.228-2.212-.527-4.418-.69-6.637-.1-1.325.261-3.343.22-4.915.575,1.39,1.77,2.713,2.461,4.045,1.894,3.647,2.744,7.743,4.552,11.42,2.022,4.117,5.945,2.686,7.274-1.238,1.256-3.711.146-7.923.84-11.806.6,1.493,1.284,3.23,1.389,3.684.831,3.6,1.186,7.423,2.634,10.827.623,1.463,2.627,1.63,3.85,1.009,2.053-1.041,2.6-2.75,3.4-4.762.495-1.254,1.027-2.491,1.576-3.722a11.224,11.224,0,0,1,.3,1.187c.454,2.886-.2,5.638.331,8.449a2.549,2.549,0,0,0,3.123,1.773c2.747-1.028,3.223-3.5,4.2-6.021.077-.21.164-.416.247-.624a5.728,5.728,0,0,1,0,.846c-.127,1.47-.833,2.808-.939,4.258-.14,1.9.745,3.813,3,3.449,1.116-.18,2.052-1.277,2.811-2,.785-.745,1.62-2.05,2.63-2.436q1.093-1.555,1.977.462,1.866.764.666,1.825c-.574.855.775,1.9,1.427,1.1,1.9-2.314,3.057-6.114-.736-7.05-1.77-.438-3.468.384-4.893,1.339-1,.675-2,2.306-3.094,2.734-1.167.456-.349.264.054-1.181.63-2.26,1.395-7.321-1.543-8.394-1.484-.542-2.516.344-3.446,1.336-.033.034-.069.082-.1.125-.116-.891-.261-1.78-.387-2.665-.323-2.245-.659-5.015-2.639-6.472-2.3-1.7-5.058-.526-6.463,1.71a25.656,25.656,0,0,0-1.988,4.474c-1.631-7.144-4.532-16.836-10.107-11.889-2.007,1.779-2.288,5.231-2.546,7.716-.162,1.572.2,4.111.158,6.35l-.024-.064c-.626-1.707-1.192-3.439-1.868-5.127a42.135,42.135,0,0,0-3.509-6.728c-1.476-2.351-3.921-5.575-7.093-4.082-4.52,2.125-2.926,10.6-2.2,15.243-.325-.575-.66-1.144-1.01-1.718-2.153-3.522-4.54-9.933-8.978-11.3-5.881-1.816-4.611,6.4-3.093,13.111a19.128,19.128,0,0,0-3.26-3.288c-1.554-1.186-3.5-2.089-5.154-.523a5.041,5.041,0,0,0-1.3,4.26c-1.088-1.661-2.46-2.722-4.462-1.946-1.861.723-1.861,3.03-1.712,4.683a12.249,12.249,0,0,1,.414,2.6c-.25,1.827-.5,1.7-2.053,1.612a16.9,16.9,0,0,1-2.379-.514,4.738,4.738,0,0,0-3.628-2.2,6.588,6.588,0,0,0-4.519,1.393c.11-1.643-.128-3.185-1.687-4.006-3.693-1.946-6.237,3.518-9.012,5.69-.066-3.462,3.388-9.111-1.682-10.194-3.607-.769-7.148,3.112-10,6.564.052-.788.113-1.493.1-1.885-.07-2.808.039-5.639-.244-8.437-.249-2.455-.922-5.627-4-5.654-2.6-.024-5.361,2.6-6.688,4.578a30.331,30.331,0,0,0-2.631,5.484c-.21.513-.408,1.192-.62,1.922-.656-4.318-.857-9.488-6.128-9.057-5.527.451-6.722,8.692-6.861,14.711-1.734-1.511-3.628-2.828-5.751-2-2.323.9-2.227,2.865-2.409,4.739-.928-2.055-.9-4.434-4.362-4.009a5.906,5.906,0,0,0-4.02,2.655,6.051,6.051,0,0,1-1.21.225c-1.558.085-1.8.215-2.055-1.612a12.444,12.444,0,0,1,.414-2.6c.15-1.652.15-3.96-1.71-4.683-2-.776-3.376.285-4.464,1.946a5.032,5.032,0,0,0-1.3-4.26c-1.654-1.566-3.6-.663-5.152.523a19.128,19.128,0,0,0-3.26,3.288c1.518-6.709,2.786-14.927-3.093-13.111-4.438,1.371-6.825,7.782-8.978,11.3-.35.574-.685,1.143-1.01,1.718.727-4.642,2.321-13.118-2.2-15.243-3.172-1.493-5.617,1.731-7.093,4.082a42.143,42.143,0,0,0-3.51,6.728c-.675,1.688-1.241,3.419-1.867,5.127l-.024.064c-.045-2.239.32-4.778.156-6.35-.256-2.485-.539-5.937-2.545-7.716-5.575-4.946-8.476,4.745-10.107,11.889a25.767,25.767,0,0,0-1.988-4.474c-1.4-2.236-4.16-3.407-6.465-1.71-1.979,1.457-2.314,4.227-2.637,6.472-.128.885-.271,1.774-.387,2.665-.034-.043-.07-.091-.1-.125-.931-.992-1.964-1.879-3.446-1.336-2.94,1.073-2.174,6.134-1.544,8.394.4,1.445,1.22,1.637.054,1.181-1.092-.428-2.09-2.059-3.094-2.734-1.424-.955-3.123-1.777-4.893-1.339-3.795.936-2.634,4.736-.736,7.05.651.794,2-.246,1.427-1.1" transform="translate(47.102 86.416)" fill="#7bc07d"/>
        <path id="Path_15204" data-name="Path 15204" d="M372.6,231.079c-3.622-1.5-6.2,5.234-8.86,8.129.928-4.429,4.277-12.84-.84-13.133-3.123-.179-4.431,3.868-5.8,5.891-.229.341-1.38,2.154-2.545,3.908.366-3.682.836-7.342.346-11.138-.393-3.051-.831-7.719-3.74-9.541-7.3-4.572-8.288,9.2-9.237,18.345-1.664-10.127-4.49-25.154-11.894-21.2-3.06,1.634-2.951,6.529-2.945,9.473a70.2,70.2,0,0,0,.721,8.239c-.052-.133-.1-.255-.153-.362a80.3,80.3,0,0,0-5.034-9.848c-1.474-2.3-4.856-7.566-8.258-5.907-2.463,1.2-1.712,4.864-1.383,7.017.493,3.227,1.235,6.435,1.992,9.64-3.151-5.387-7.251-11.94-11.047-8.765-2.175,1.819-1.426,5.869-.876,8.2.4,1.691.846,3.385,1.3,5.075a17.01,17.01,0,0,0-2.662-2.241c-1.987-1.293-4.966-2.518-6.828-.349-1.964,2.287-.587,6.666.444,9.864-1.122-.842-2.418-1.6-3.224-2.1-2.327-1.427-5.465-2.811-7.51-.136a6.205,6.205,0,0,0-1.1,3.886c-.006.145.012.288.012.432-.328-.352-.606-.645-.63-.672-1.436-1.634-3.264-3.506-5.508-1.99a4.1,4.1,0,0,0-1.406,1.782,6.35,6.35,0,0,0-4.581-3.126,1.781,1.781,0,0,0-1.7,1.293c-.125.414-.232.867-.335,1.329-1.152-1.506-2.364-2.943-4.605-1.724-1.263.688-1.731,2.065-2.145,3.384-.812-2.856-2.64-6.307-5.708-5.743-2.887.53-2.85,3.321-3.314,5.608-1.357-2.9-3.144-6-6.286-5.748-3.005.243-3.558,3.62-3.664,6.041-.051,1.155.507,3.227.147,4.286-.377,1.111.456.863-.976-.025-.638-.4-1.3-.943-1.92-1.384-3.278-2.318-6.366-3.364-8.449.83-.854,1.719,1.636,3.217,2.6,1.518,2.209-3.915,10.413,10.186,12.661,1.481.484-1.874.1-4.024.3-5.943a5.641,5.641,0,0,1,.32-1.947c.219-.41.106,1.1.288,1.716a16.642,16.642,0,0,0,2.753,4.908,2.3,2.3,0,0,0,3.531.456,6.315,6.315,0,0,0,2.1-3.209c.3-.98.039-3.57.717-4.258,1.238-1.26,1.749,5.69,2.174,6.64a2.541,2.541,0,0,0,1.32,1.582,1.652,1.652,0,0,0,1.654,0c1.824-1.132,1.205-2.23,2.16-4.072,1.991-3.841,2.519-.5,4.418.749a1.815,1.815,0,0,0,2.636-1.073,14.529,14.529,0,0,0,.608-2.461,7.187,7.187,0,0,1,1.564,4.088c-.031,1.435,2.227,2.205,2.858.775.942-2.138.614-6.238,3.823-3.589,1.6,1.325,1.512,3.005,3.868,3.117a1.641,1.641,0,0,0,1.414-.81c.867-1.378.039-3.026.7-4.24,1.678-3.091,5.058.661,6.527,2.04,1.658,1.555,4.421,5.146,6.953,2.926,2.09-1.831.38-5.9-.15-8.032a19.793,19.793,0,0,0-1.044-3.783,2.212,2.212,0,0,0-.21-.341,29.259,29.259,0,0,1,4.707,4.413c1.442,1.633,3.7,6.015,6.43,3.232,1.76-1.8.234-4.488-.472-6.4-1.009-2.732-1.809-5.565-2.665-8.348-.171-.556-1.342-3.588-.8-4.12.86-.848,2.4,1.476,2.883,2.044,2.908,3.43,4.617,8.851,8.34,11.38,1.117.758,2.493-.5,2.19-1.682-1.247-4.861-2.436-9.738-3.363-14.672a21.4,21.4,0,0,1-.465-3.312c-.009-.347-.209-2.052.131-2.16-.009,0,1.828,2.655,1.915,2.777,2.849,4.014,4.821,8.632,6.773,13.129,1.037,2.387,1.952,7.116,4.644,8.314,1.117.5,2.981.234,3.2-1.3.743-5.189-.519-10.48-.694-15.687-.072-2.111-.495-5.092.346-7.065.606-1.427.021-.7.586.219a24.824,24.824,0,0,1,1.868,4.2,57.843,57.843,0,0,1,2.253,7.475c1.1,4.769.589,10.4,2.734,14.853a2.372,2.372,0,0,0,3.23.846c3.273-2.239,3.266-7.645,3.79-11.2.46-3.114.849-6.231,1.523-9.31.1-.456.6-1.965.749-2.9a15.109,15.109,0,0,1,.645,2.257c.2,1.33.252,2.676.368,4.014.413,4.765-1.165,9.978-.122,14.547A2.345,2.345,0,0,0,352.511,244c1.8-.545,2.662-1.94,3.491-3.55a66.187,66.187,0,0,1,3.6-6.186c.231-.353,2.466-4.45,2.881-4.006.742.794-.656,5.106-.848,6.047-.392,1.919-1.234,3.868-.664,5.806a1.383,1.383,0,0,0,1.664.946c2.983-.647,4.68-4.341,6.4-6.6,1.061-1.4,2.309-3.713,2.1-.749a14.892,14.892,0,0,1-3.4,8.092c-.718.892.472,2.16,1.284,1.286,1.983-2.135,8.241-12.071,3.574-14" transform="translate(113.763 103.705)" fill="#7bc07d"/>
        <path id="Path_15205" data-name="Path 15205" d="M237.211,220.8c-.591-1.375-2.5-3.839.162-2.826,2.376.9,3.749,3.8,5.593,5.414,2.047,1.786,4.78,1.363,4.425-1.819-.308-2.761-4.266-7.187-3.144-9.936-.538,1.317,4.707,5.921,5.554,7.086,1.24,1.707,2.095,3.54,4.157,4.3a2.068,2.068,0,0,0,2.589-1.973c.215-2.726-1.12-5.44-1.81-8.036-.419-1.575-1.444-3.878-.849-5.443l0-.013a3.259,3.259,0,0,0,.3.53c2.786,4.047,3.963,8.756,6.631,12.825a1.987,1.987,0,0,0,3.087.4c2.71-3.154.408-7.779.474-11.5a8.661,8.661,0,0,1,.018-1.041,1.782,1.782,0,0,0,.323.3A24.128,24.128,0,0,1,267,215.013c.748,2.607.734,6.085,2.771,8.039a2.421,2.421,0,0,0,3.746-.483,10.861,10.861,0,0,0,1.761-4.958,15.934,15.934,0,0,0,.051-1.6c.234,1.873.314,3.944.466,4.637.3,1.365.626,2.406,2.1,2.744a1.544,1.544,0,0,0,1.506-.4,15.523,15.523,0,0,0,2.344-4.333c.44-1.1.638-2.551,1.173-3.719,1.167,2.613-1.928,7.822-.237,10.1a1.1,1.1,0,0,0,1.47.384c1.377-.982,1.739-2.208,2.805-3.451.282-.328,2.047-2.774,2.829-1.947.046.049-1.755,2.765-1.831,2.892-.483.794.74,1.5,1.237.724.691-1.077,4.6-5.672,1.858-6.9-2.347-1.046-4.733,2.881-6.532,5.262.322-1.819,1.152-4.269,1.176-5.31.048-2.15-.273-4.146-2.195-5.334a1.521,1.521,0,0,0-1.786.231,6.813,6.813,0,0,0-1.979,3.415c-.109.308-.314.831-.526,1.374-.328-2.472-1.32-5.51-2.178-6.485a2.793,2.793,0,0,0-4.586.133,6.972,6.972,0,0,0-1.094,2.661c-.057-.152-.112-.308-.167-.459a24.326,24.326,0,0,0-2.688-5.368c-1.259-1.831-3.22-4.376-5.746-3.182-2.2,1.04-2.205,4.054-2.2,6.12,0,.127.01.276.024.437-1.63-3.676-3.75-7.035-7.017-7.384-5.089-.544-4.094,5.721-2.728,11.129a45.477,45.477,0,0,0-3.936-3.471c-1.26-1.012-2.779-2.421-4.482-1.451-3.078,1.755-.317,7.46.755,10.075-.146-.122-.28-.234-.387-.332-1.757-1.616-4.873-4.68-7.563-3.921-1.906.538-2.043,2.433-1.462,4.613-2.311-1.879-4.788-3.029-6.627-1.459-2.926,2.5,1.335,5.772,2.658,8.515-2.9-1.967-4.657-5.51-8.647-5.814a1.231,1.231,0,0,0-1.159.882c-.612,1.655,1.105,4.316,1.779,6.1-2.269-1.263-3.877-1.52-6.776-.206-1.4.635-.371,2.75,1.01,2.4,2.457-.629,4.152-.142,6.351.948a1.22,1.22,0,0,0,1.628-.426c1.371-2.28-1.679-3.842-1.433-5.9q-1.073-1.886,1.748.085l.866.751a32.3,32.3,0,0,1,2.485,2.247,9.1,9.1,0,0,0,3.321,2.19,1.215,1.215,0,0,0,1.484-.842c.5-2.287-1.374-4.3-2.417-6.161-1.806-3.224.305-2.379,2.348-.6,1.938,1.694,3.658,3.643,5.428,5.507,1.07,1.128,3.024-.359,2.162-1.667a32.88,32.88,0,0,1-2.741-5.246" transform="translate(104.984 99.359)" fill="#7bc07d"/>
        <path id="Path_15206" data-name="Path 15206" d="M368.73,224.786c-1.432-.177-2.956,1.739-3.841,1.351-.627-.274-.182-3.273-.849-4.415a1.23,1.23,0,0,0-1.353-.55,4.467,4.467,0,0,0-3.059,2.956c-.1-3.331-.787-6.7-3.889-6.567-2.2.1-3.4,2.759-4.008,4.5a9.02,9.02,0,0,0-.264,1.278,21.714,21.714,0,0,0-1.7-4.523c-.942-1.821-2.548-5.146-5.1-4.942-2.744.218-2.309,3.3-2.5,5.37-.119,1.311-.231,2.636-.25,3.957-.98-1.36-2.242-2.287-4-1.828-4.234,1.1-3.285,9.733-2.905,12.6a1.085,1.085,0,0,0,2.168,0c.222-1.9.264-3.8.466-5.693.151-1.417-.182-2.987,1.4-3.053,1.754-.074,2.412,2.974,3.218,4.389a1.322,1.322,0,0,0,2.26,0c.612-1.061.356-1.842.221-2.993-.305-2.6-.816-5.907.1-8.446.526-1.457.136-1.432,1.052.307a21.142,21.142,0,0,1,1.8,5.252c.611,2.829.6,5.721,1.271,8.543.395,1.664,2.312,1.812,3.456.913,2.278-1.788,1.909-6.006,2.448-8.567a24.136,24.136,0,0,0,.7-3.549c.253-.018.723,2.385.763,2.656.313,2.163-.058,4.306.349,6.478a1.481,1.481,0,0,0,2.458.65c1.363-1.429,1.581-3.1,2.451-4.809,1.621-3.172.338.237.985,1.588,1.335,2.788,2.774.9,4.269-.082a25.181,25.181,0,0,1-1.69,2.746c-.793,1.152,1.032,2.142,1.841,1.076a14.42,14.42,0,0,0,2.861-5.112,1.2,1.2,0,0,0-1.132-1.487" transform="translate(163.941 104.769)" fill="#7bc07d"/>
        <path id="Path_15207" data-name="Path 15207" d="M222.3,236.925c-1.64,1.932-1.45,1.8-2.525-.146-.417-.755-.544-1.678-.948-2.448-.764-1.462-1.833-2.995-3.628-3.206-3.6-.426-3.716,3.29-4.482,6.031-1.1-1.527-1.973-3.483-3.841-4.272a3.7,3.7,0,0,0-5.282,2.849c-.137.617.258,4.082-.063,4.246-.086.045-3.591-2.341-4.371-2.484-2.134-.39-4.915.177-4.617,2.811.094.828,1.21,1.612,1.88.778,2.637-3.279,8.437,7.129,10.852.124a8.247,8.247,0,0,0,.44-3.2,1.209,1.209,0,0,1,.027-.328,1.621,1.621,0,0,1,.483.443c.818,1.341,2.567,3.728,4.033,4.362a2.214,2.214,0,0,0,2.923-.767,9.161,9.161,0,0,0,1.266-3.969c.2-1.253-.289-2.192,1.1-2.107,1.161.072,1.047.815,1.549,1.669.782,1.33,1.053,3.506,2.814,3.932,2.68.65,3.191-2.78,4.87-3.82l3.257-.289.031,1.217a8.93,8.93,0,0,1-.2,3.462c-.215,1.308-.566,2.54-.706,3.862-.061.563.819.644.961.13.736-2.691,3.777-8.828,1.238-11.331-2.309-2.277-5.653.79-7.062,2.449" transform="translate(94.311 113.207)" fill="#7bc07d"/>
        <path id="Path_15208" data-name="Path 15208" d="M212.942,220.935c1.673-.507,1.1.62.84,2.157-.162.97-.749,1.983-.405,2.978.577,1.663,2.229,1.734,3.807,2.1,1.272.3,1.812-1.688.539-1.956-3.86-.812-.153-4.058-.794-6.669a2.568,2.568,0,0,0-2.607-2.153c-1.591-.025-3.13,1.339-4.3,2.247-.6.465-1.693,1.643-2.808,2.627,1.648-3.448,4.154-7.861.6-9.786-1.882-1.019-3.914.267-5.4,1.4-.76.58-1.454,1.235-2.16,1.877,1.316-4.708,2.8-10.532-1.977-11.234-3.57-.524-5.766,1.968-7.487,4.954-.182-2.92-.98-5.519-3.7-6.284-3.37-.948-5.852,2.893-7.058,5.448a33.1,33.1,0,0,0-2.205,6.815,8.617,8.617,0,0,0-.134,1.094,13.239,13.239,0,0,0-.258-1.836c-.472-1.639-1.26-3.461-3-4.069-3.285-1.144-4.507,2.5-4.842,5-.206,1.517.428,4.2-.137,5.542a1.2,1.2,0,0,0-.022.122q-.981-.586-1.958-1.174a19.67,19.67,0,0,0-3.608-1.9c-4.708-1.529-6.35,2.138-4.723,6.109.513,1.253,2.536.782,2.089-.575q-.952-1.433,1.122-1.725,1.272-1.573,2.569-.18a14.613,14.613,0,0,1,2.828,1.751c.794.468,2.022,1.414,3.059,1.091,1.99-.623,1.545-3.044,1.557-4.669a15.7,15.7,0,0,1,.262-4.4c1.044-3.258,1.794-.252,2.132,1.819.395,2.42.308,5.051,2.51,6.572a1.674,1.674,0,0,0,2.013-.259c1.49-1.484,1.439-4.03,1.9-5.973.374-1.584,2.288-10.07,4.4-9.869,1.263.119.109,9.52.487,11.307.487,2.29,3.343,2.126,4.5.587,1.527-2.037,2.932-10.465,6.31-10.757,1.073-.094.541.131.727,1.211.258,1.508-.5,3.719-.828,5.189-.4,1.786-1.344,3.606-1.181,5.444a1.808,1.808,0,0,0,2.262,1.722c3.029-1.11,3.92-5.806,7.154-6.725,2.518-.715.139,3.722-.442,4.908a13.1,13.1,0,0,0-1.611,4.537c-.1.906.8,1.49,1.572,1.57,3.439.365,5.5-5.11,8.419-5.994" transform="translate(77.658 99.471)" fill="#7bc07d"/>
        <path id="Path_15209" data-name="Path 15209" d="M265.893,40.72l-4.935-4.934-4.7,4.7-4.7-4.7-4.934,4.934,4.7,4.7-4.7,4.7,4.934,4.934,4.7-4.7,4.7,4.7,4.935-4.934-4.7-4.7Z" transform="translate(120.813 17.531)" fill="#c5e8d4"/>
        <path id="Path_15210" data-name="Path 15210" d="M63.583,159.93,58.649,155l-4.7,4.7-4.7-4.7-4.934,4.934,4.7,4.7-4.7,4.7,4.934,4.934,4.7-4.7,4.7,4.7,4.934-4.934-4.7-4.7Z" transform="translate(21.705 75.929)" fill="#c5e8d4"/>
        <path id="Path_15211" data-name="Path 15211" d="M123.8,18.8l-4.934-4.934-4.7,4.7-4.7-4.7L104.525,18.8l4.7,4.7-4.7,4.7,4.934,4.934,4.7-4.7,4.7,4.7,4.934-4.934-4.7-4.7Z" transform="translate(51.205 6.792)" fill="#c5e8d4"/>
        <path id="Path_15212" data-name="Path 15212" d="M200.022,14.4a7.2,7.2,0,1,1,7.2-7.2,7.21,7.21,0,0,1-7.2,7.2m0-11.423A4.222,4.222,0,1,0,204.244,7.2a4.226,4.226,0,0,0-4.222-4.221" transform="translate(94.459 0)" fill="#c5e8d4"/>
        <path id="Path_15213" data-name="Path 15213" d="M335.54,82.115a7.2,7.2,0,1,1,7.2-7.2,7.21,7.21,0,0,1-7.2,7.2m0-11.423a4.222,4.222,0,1,0,4.222,4.221,4.226,4.226,0,0,0-4.222-4.221" transform="translate(160.847 33.171)" fill="#c5e8d4"/>
        <path id="Path_15214" data-name="Path 15214" d="M273.892,161.888a7.2,7.2,0,1,1,7.2-7.2,7.209,7.209,0,0,1-7.2,7.2m0-11.423a4.222,4.222,0,1,0,4.222,4.221,4.226,4.226,0,0,0-4.222-4.221" transform="translate(130.647 72.25)" fill="#c5e8d4"/>
        <path id="Path_15215" data-name="Path 15215" d="M131.227,56.076a13.393,13.393,0,1,1-13.393-13.393,13.393,13.393,0,0,1,13.393,13.393" transform="translate(51.163 20.91)" fill="#c5e8d4"/>
        <path id="Path_15216" data-name="Path 15216" d="M126.849,157.367a6.736,6.736,0,1,1-6.736-6.736,6.736,6.736,0,0,1,6.736,6.736" transform="translate(55.541 73.791)" fill="#c5e8d4"/>
        <path id="Path_15217" data-name="Path 15217" d="M36.254,84.9a6.736,6.736,0,1,1-6.736-6.736A6.736,6.736,0,0,1,36.254,84.9" transform="translate(11.16 38.29)" fill="#c5e8d4"/>
        <path id="Path_15218" data-name="Path 15218" d="M262.036,84.9a6.736,6.736,0,1,1-6.736-6.736,6.736,6.736,0,0,1,6.736,6.736" transform="translate(121.767 38.29)" fill="#c5e8d4"/>
        <g id="Group_14239" data-name="Group 14239" transform="translate(202.527 72.593)" opacity="0.15">
          <g id="Group_14238" data-name="Group 14238">
            <g id="Group_14237" data-name="Group 14237" clip-path="url(#clip-path-3)">
              <path id="Path_15219" data-name="Path 15219" d="M310.537,213.562l.557-.511a2.04,2.04,0,0,0,.13-2.886l-11.3-12.345a91.922,91.922,0,1,0-21.475,19.659l11.3,12.345a2.042,2.042,0,0,0,2.886.13l.557-.513,83.758,91.508h31.867Z" transform="translate(-135.935 -48.724)" fill="#212121"/>
            </g>
          </g>
        </g>
        <path id="Path_15220" data-name="Path 15220" d="M376.536,283.785,240.085,147.325,222.54,164.87,359,301.321a12.4,12.4,0,0,0,17.536-17.536" transform="translate(109.018 72.172)" fill="#424242"/>
        <path id="Path_15221" data-name="Path 15221" d="M214.054,160.56l16.471,16.471a2.155,2.155,0,0,0,3.045,0l18.676-18.676a2.154,2.154,0,0,0,0-3.047l-16.471-16.469Z" transform="translate(104.861 68.015)" fill="#e0e0e0"/>
        <path id="Path_15222" data-name="Path 15222" d="M238.042,140.582l2.1,2.1-17.649,25.794-7.762-7.762Z" transform="translate(105.192 68.868)" fill="#bdbdbd"/>
        <g id="Group_14242" data-name="Group 14242" transform="translate(338.998 226.937)" opacity="0.64">
          <g id="Group_14241" data-name="Group 14241">
            <g id="Group_14240" data-name="Group 14240" clip-path="url(#clip-path-4)">
              <path id="Path_15223" data-name="Path 15223" d="M227.534,169.858l17.539-17.539,1.2,1.2-13.711,21.368Z" transform="translate(-227.534 -152.319)" fill="#212121"/>
            </g>
          </g>
        </g>
        <path id="Path_15224" data-name="Path 15224" d="M210.45,38.214a97.02,97.02,0,1,0,97.02,97.02,97.019,97.019,0,0,0-97.02-97.02m0,173.99a76.97,76.97,0,1,1,76.97-76.97,76.97,76.97,0,0,1-76.97,76.97" transform="translate(55.567 18.72)" fill="#f5f5f5"/>
        <path id="Path_15225" data-name="Path 15225" d="M280.827,128.641a76.97,76.97,0,1,1-76.97-76.97,76.97,76.97,0,0,1,76.97,76.97" transform="translate(62.159 25.313)" fill="#68af9a"/>
        <path id="Path_15226" data-name="Path 15226" d="M149.394,74.179c-11.132,11.132-17.823,22.493-14.943,25.373s14.239-3.813,25.371-14.945,17.823-22.493,14.945-25.371-14.24,3.811-25.373,14.944" transform="translate(65.537 28.691)" fill="#82c4ae"/>
        <path id="Path_15227" data-name="Path 15227" d="M131.993,207.15c0,9.134-7.61,15.985-17.508,15.985s-17.508-6.85-17.508-15.985V186.342H41.158c-10.657,0-18.016-8.118-18.016-17.253a32.578,32.578,0,0,1,2.539-8.881L74.4,47.806c2.537-6.089,9.134-9.9,15.73-9.9,8.626,0,17.508,7.613,17.508,16.493a12.429,12.429,0,0,1-1.015,5.583c-14.716,34-26.642,60.641-41.358,94.642H96.977V115.805c0-9.133,7.612-15.985,17.508-15.985,9.389,0,17.508,6.852,17.508,15.985v38.822h3.3c9.643,0,17,7.359,17,15.732,0,8.881-7.359,15.983-17,15.983h-3.3Z" transform="translate(11.337 18.571)" fill="#f57a87"/>
        <path id="Path_15228" data-name="Path 15228" d="M376.27,207.15c0,9.134-7.61,15.985-17.508,15.985s-17.508-6.85-17.508-15.985V186.342h-55.82c-10.657,0-18.016-8.118-18.016-17.253a32.579,32.579,0,0,1,2.539-8.881l48.716-112.4c2.537-6.089,9.134-9.9,15.73-9.9,8.626,0,17.508,7.613,17.508,16.493a12.43,12.43,0,0,1-1.015,5.583c-14.716,34-26.642,60.641-41.358,94.642h31.715V115.805c0-9.133,7.612-15.985,17.508-15.985,9.389,0,17.508,6.852,17.508,15.985v38.822h3.3c9.643,0,17,7.359,17,15.732,0,8.881-7.359,15.983-17,15.983h-3.3Z" transform="translate(131.003 18.571)" fill="#f57a87"/>
      </g>
    </g>
  </g>
</svg>
