<svg xmlns="http://www.w3.org/2000/svg" xmlns:xlink="http://www.w3.org/1999/xlink" width="16.499" height="17.876" viewBox="0 0 16.499 17.876">
  <defs>
    <clipPath id="clip-path">
      <rect id="Rectangle_12874" data-name="Rectangle 12874" width="16.499" height="17.876" transform="translate(0 0)" fill="#666"/>
    </clipPath>
  </defs>
  <g id="Group_2887" data-name="Group 2887" transform="translate(0 0)">
    <g id="Group_2886" data-name="Group 2886" clip-path="url(#clip-path)">
      <path id="Path_9395" data-name="Path 9395" d="M9.448,17.877c-.307-.01-.615-.012-.923-.012H6.917a.833.833,0,0,1-.814-.642.656.656,0,0,1-.026-.185V15.431L5.892,15.4a.954.954,0,0,0-.247-.089c-.029,0-.061.031-.153.129-.047.05-.106.113-.185.189l-.7.694a.866.866,0,0,1-.669.31.882.882,0,0,1-.559-.2.961.961,0,0,1-.086-.083c-.512-.491-1.011-1-1.512-1.505L1.533,14.6a.938.938,0,0,1-.027-1.323c.244-.217.43-.408.615-.6.123-.126.247-.253.375-.376.066-.06.064-.1.028-.225a.327.327,0,0,0-.374-.282c-.206.012-.33.015-.454.015L.819,11.8a.871.871,0,0,1-.808-.743c-.018-.337-.01-.665,0-.993L.016,9.7a.419.419,0,0,1,.467-.47h.556V8.473A.41.41,0,0,1,1.493,8h.294V3.729c0-.323.11-.435.438-.446h.327a1.162,1.162,0,0,1,.407-1,.862.862,0,0,1,.509-.168c.522.059,1,.244.977,1.159.029,0,.057,0,.086,0a1,1,0,0,0,.546-.163c1-.4,4.485-1.832,4.485-1.832.772-.315,3.06-1.237,3.06-1.237a.445.445,0,0,1,.2-.046.461.461,0,0,1,.319.127.924.924,0,0,1,.315-.057.9.9,0,0,1,.853.613.878.878,0,0,1,.041.387c-.008.449-.019.5-.362.652-.069.032-.154.071-.26.125l-.052.088a5.872,5.872,0,0,1,.013.623l0,2.116c0,.111,0,.121.124.15A1.944,1.944,0,0,1,15.3,6.431,1.927,1.927,0,0,1,14.753,8.2a2.075,2.075,0,0,1-1.161.62,1.97,1.97,0,0,1-.333.028,1.993,1.993,0,0,1-1.4-.575,1.9,1.9,0,0,1-.585-1.083,2.005,2.005,0,0,1,.608-1.89,1.646,1.646,0,0,1,.9-.48c.13-.021.158-.059.155-.2-.01-.478-.009-.956-.009-1.434V2.762l-.1.07c-.152.1-.3.208-.449.322-.387.3-.769.612-1.152.92L9.149,5.718c-.52.414-.949.755-1.382,1.11a.151.151,0,0,0-.057.1c0,.254,0,.518,0,.79v.324h.38a.325.325,0,0,1,.244.084.313.313,0,0,1,.08.241v.886h7.549c.4,0,.533.134.533.531v1.048a.915.915,0,0,1-.846.974l-.128-.1v.1H14.076c-.041.109-.088.216-.139.32a.105.105,0,0,0,.014.153c.143.138.269.266.395.394.2.2.389.4.594.585a.932.932,0,0,1,.005,1.308c-.493.461-.963.938-1.433,1.415L13.1,16.4a.877.877,0,0,1-1.175,0c-.174-.191-.352-.366-.53-.54-.16-.156-.319-.312-.471-.475a.152.152,0,0,0-.113-.063.371.371,0,0,0-.143.048.778.778,0,0,1-.149.056c-.062.014-.106.034-.1.163.006.217.005.435,0,.653s0,.424,0,.636a.956.956,0,0,1-.911.995ZM5.562,14.472a.394.394,0,0,1,.2.053c.124.054.261.108.4.162s.248.1.371.151a.445.445,0,0,1,.311.455c-.007.35-.005.7,0,1.056l0,.533c0,.232,0,.232.224.232H9.357c.311,0,.311,0,.311-.313V15.293a.419.419,0,0,1,.344-.485,2.015,2.015,0,0,0,.61-.246.517.517,0,0,1,.275-.09.565.565,0,0,1,.391.2l.466.469c.216.215.431.429.643.648a.205.205,0,0,0,.126.077.226.226,0,0,0,.132-.079c.362-.368,1.71-1.715,1.71-1.715.07-.07.1-.122.1-.158s-.037-.093-.112-.168l-.316-.316c-.28-.281-.56-.562-.844-.839a.375.375,0,0,1-.081-.484,4.312,4.312,0,0,0,.277-.679.467.467,0,0,1,.464-.382l.592.009,1.048,0c.218,0,.224-.1.227-.137.013-.232.01-.464.007-.7v-.2h-2.7c-.051.236-.12.449-.4.449-.339-.019-.37-.261-.372-.439l-1.1,0a3.017,3.017,0,0,1-2.707,2.58q-.13.012-.261.012a2.8,2.8,0,0,1-1.916-.754,2.923,2.923,0,0,1-.991-1.838H4.223c-.032.258-.186.439-.391.444h0c-.154,0-.335-.081-.4-.452H.758v.8c0,.213.014.227.234.227l1.047,0,.526,0a.5.5,0,0,1,.51.378,5.36,5.36,0,0,0,.256.6.479.479,0,0,1-.123.652c-.227.216-.457.449-.688.682l-.431.432c-.063.062-.093.108-.092.141s.045.086.081.119c.133.122.255.254.375.387.08.087.159.174.242.258l1.051,1.046c.091.093.151.134.193.134s.1-.042.193-.133l.258-.257c.29-.288.581-.578.866-.872a.4.4,0,0,1,.306-.141m.508-4.447a2.2,2.2,0,0,0,2.165,1.827c.076,0,.152,0,.228-.011a2.164,2.164,0,0,0,1.907-1.816Zm1.591-.779V8.777h-5.8l-.049,0v.466Zm5.573-3.71a1.258,1.258,0,0,0-1.249,1.218,1.346,1.346,0,0,0,1.281,1.334,1.309,1.309,0,0,0,1.31-1.3,1.233,1.233,0,0,0-1.21-1.253l-.1,0ZM3.6,8.015c0-.318,0-.613-.006-.907a5.1,5.1,0,0,0-.651-.031H2.558v.937ZM6.923,8V7.079H5.447a.5.5,0,0,1-.482-.268c-.076-.124-.161-.25-.253-.371a.388.388,0,0,1-.214.07.4.4,0,0,1-.367-.331A.368.368,0,0,1,4.2,5.908a5.763,5.763,0,0,1,.51-.62.383.383,0,0,1,.28-.116.321.321,0,0,1,.346.28,1.727,1.727,0,0,1-.1.452l.055.016c.061.1.132.219.212.332a.153.153,0,0,0,.1.066c.1,0,.845,0,.845,0l-.534-.635c-.375-.443-.75-.886-1.132-1.324-.128-.15-.253-.3-.33-.3-.266-.013-.531-.017-.8-.017L2.5,4.051l.056,2.272.717.005c.178,0,.355,0,.53-.011h.046a.514.514,0,0,1,.392.143.527.527,0,0,1,.121.411c-.016.285-.013.571-.009.858l0,.276Zm-.34-2.688c.227.268.453.537.69.8a.151.151,0,0,0,.09.029c.242-.163.469-.348.7-.536l.1-.078L6.02,4.644c.145.177.563.672.563.672m1.865-.495L8.155,2.68l-2.469,1ZM9.2,4.7l1.679-1.338L8.931,2.708ZM3.49,2.874a.156.156,0,0,0-.155.141v.263h.324V3.265c0-.072,0-.14,0-.209a.159.159,0,0,0-.1-.178Zm7.955-.117.7-1.7L9.549,2.11Zm1.134-.749c.08-.065.159-.132.235-.2a1.037,1.037,0,0,0-.03-.27Zm.881-.874c.047-.026.1-.058.112-.081A.271.271,0,0,0,13.56.878c-.042,0-.113-.014-.187-.015Z" fill="#666"/>
      <path id="Path_9396" data-name="Path 9396" d="M13.048,2.811l-.207-.2.174-.209.179.112Z" fill="#666"/>
      <path id="Path_9397" data-name="Path 9397" d="M2.529,4.065l-.145-.138.038-.039.144.138Z" fill="#666"/>
      <path id="Path_9398" data-name="Path 9398" d="M1.737,8.83l-.114-.054-.3-.185h.386v.042l.016-.027.034.021-.037.06L1.8,8.635l.048.077Z" fill="#666"/>
      <path id="Path_9399" data-name="Path 9399" d="M4.629,12.636H4.6a.325.325,0,0,1-.218-.116.407.407,0,0,1-.033-.048c-.179-.28-.357-.588-.526-.912a.291.291,0,0,1,0-.29.5.5,0,0,1,.443-.2v.09l.063-.076a1.2,1.2,0,0,1,.2.219c.073.116.137.231.2.346s.145.259.226.383a.369.369,0,0,1-.13.533.317.317,0,0,1-.2.073" fill="#666"/>
      <path id="Path_9400" data-name="Path 9400" d="M6.426,14.067a.35.35,0,0,1-.126-.023.209.209,0,0,1-.04-.019,7.222,7.222,0,0,1-.843-.5.493.493,0,0,1-.153-.405.366.366,0,0,1,.158-.22.576.576,0,0,0,.056-.049l.073.068.02-.1a1.537,1.537,0,0,1,.254.075,7.916,7.916,0,0,1,.82.479l.019.017a.469.469,0,0,1,.1.432.363.363,0,0,1-.339.24" fill="#666"/>
      <path id="Path_9401" data-name="Path 9401" d="M10.018,14.075a.288.288,0,0,1-.1-.018.434.434,0,0,1-.233-.241.443.443,0,0,1,.1-.421A7.051,7.051,0,0,1,10.445,13l.237-.129.026-.01a.809.809,0,0,1,.189-.019l0,.1.053-.076.033.018c.065.033.164.085.183.18s.023.334-.1.421a7.917,7.917,0,0,1-.913.556.284.284,0,0,1-.134.034" fill="#666"/>
      <path id="Path_9402" data-name="Path 9402" d="M11.81,12.627a.334.334,0,0,1-.223-.087.348.348,0,0,1-.11-.472,9.2,9.2,0,0,1,.47-.84l.018-.022a.531.531,0,0,1,.42-.124c.091.008.151.091.21.17a.857.857,0,0,0,.064.082l-.071.064.088.041-.056.125a2.276,2.276,0,0,1-.124.252c-.142.243-.273.456-.4.652a.324.324,0,0,1-.2.148.3.3,0,0,1-.083.011" fill="#666"/>
      <path id="Path_9403" data-name="Path 9403" d="M8.07,14.451c-.075,0-.149,0-.224,0a.771.771,0,0,1-.423-.259c-.084-.083-.009-.281.038-.348a.382.382,0,0,1,.265-.142,3.066,3.066,0,0,1,.345,0c.054,0,.107,0,.161,0v-.014c.108,0,.214,0,.321,0,.051,0,.1,0,.154,0a.315.315,0,0,1,.352.312.318.318,0,0,1-.031.24.33.33,0,0,1-.2.16.286.286,0,0,1-.072.013,5.342,5.342,0,0,1-.686.043m-.5-.4.008.009-.008-.009" fill="#666"/>
      <path id="Path_9404" data-name="Path 9404" d="M12.49,7.166a.31.31,0,0,1-.085-.011.317.317,0,0,1-.225-.114.424.424,0,0,1-.081-.315A1.153,1.153,0,0,1,13.31,5.642l.055,0h.006a.289.289,0,0,1,.281.283.335.335,0,0,1-.005.063.351.351,0,0,1-.346.382.452.452,0,0,0-.441.423.366.366,0,0,1-.357.369Z" fill="#666"/>
    </g>
  </g>
</svg>
