<svg id="wall-clock_3_" data-name="wall-clock (3)" xmlns="http://www.w3.org/2000/svg" width="36.917" height="36.917" viewBox="0 0 36.917 36.917">
  <g id="Group_14188" data-name="Group 14188">
    <g id="Group_14187" data-name="Group 14187">
      <path id="Path_15129" data-name="Path 15129" d="M417.084,377.012a1.442,1.442,0,0,0-2.018.3c-.261.351-.541.7-.832,1.025a1.442,1.442,0,1,0,2.161,1.91c.344-.389.675-.8.985-1.213A1.442,1.442,0,0,0,417.084,377.012Z" transform="translate(-384.032 -349.564)" fill="#fff"/>
      <path id="Path_15130" data-name="Path 15130" d="M464.631,286.458a1.442,1.442,0,0,0-1.716,1.1c-.093.428-.206.857-.335,1.275a1.442,1.442,0,1,0,2.756.851c.153-.5.287-1,.4-1.513A1.442,1.442,0,0,0,464.631,286.458Z" transform="translate(-429.166 -265.772)" fill="#fff"/>
      <path id="Path_15131" data-name="Path 15131" d="M336.053,442.377c-.383.214-.779.413-1.178.594a1.442,1.442,0,1,0,1.187,2.629c.473-.214.943-.451,1.4-.7a1.442,1.442,0,1,0-1.406-2.518Z" transform="translate(-309.941 -410.31)" fill="#fff"/>
      <path id="Path_15132" data-name="Path 15132" d="M162.514,77.442V88.381l-5.288,5.288a1.442,1.442,0,0,0,2.04,2.039l5.71-5.71a1.442,1.442,0,0,0,.422-1.02V77.442a1.442,1.442,0,1,0-2.884,0Z" transform="translate(-145.497 -70.52)" fill="#fff"/>
      <path id="Path_15133" data-name="Path 15133" d="M35.475,3.1a1.442,1.442,0,0,0-1.442,1.442v4a18.46,18.46,0,1,0-15.574,28.37l.036,0,.036,0c.52,0,1.045-.022,1.56-.065a1.442,1.442,0,1,0-.241-2.874c-.436.036-.88.055-1.319.055l-.036,0-.036,0A15.574,15.574,0,1,1,31.865,10.527H27.9a1.442,1.442,0,1,0,0,2.884h4.4a4.587,4.587,0,0,0,2.4-.674,1.439,1.439,0,0,0,.129-.083A4.614,4.614,0,0,0,36.917,8.8V4.543A1.442,1.442,0,0,0,35.475,3.1Z" fill="#fff"/>
    </g>
  </g>
</svg>
