<svg xmlns="http://www.w3.org/2000/svg" width="33.988" height="39.5" viewBox="0 0 33.988 39.5">
  <g id="Icon" transform="translate(-2.75 -1.25)">
    <path id="Path_15136" data-name="Path 15136" d="M9.6,12.613a1.377,1.377,0,1,1-1.947-1.947l5.512-5.512A1.377,1.377,0,1,1,15.113,7.1Z" transform="translate(3.768 2.93)" fill="#fff" fill-rule="evenodd"/>
    <path id="Path_15137" data-name="Path 15137" d="M15.113,10.666a1.377,1.377,0,1,1-1.947,1.947L7.654,7.1A1.377,1.377,0,1,1,9.6,5.154Z" transform="translate(3.768 2.93)" fill="#fff" fill-rule="evenodd"/>
    <path id="Path_15138" data-name="Path 15138" d="M7.628,15.006a1.378,1.378,0,0,1,0-2.756H19.439a1.378,1.378,0,0,1,0,2.756Z" transform="translate(2.93 9.209)" fill="#fff" fill-rule="evenodd"/>
    <path id="Path_15139" data-name="Path 15139" d="M7.628,19.006a1.378,1.378,0,0,1,0-2.756H24.163a1.378,1.378,0,0,1,0,2.756Z" transform="translate(2.93 12.558)" fill="#fff" fill-rule="evenodd"/>
    <path id="Path_15140" data-name="Path 15140" d="M31.686,40.75H7.8A5.049,5.049,0,0,1,2.75,35.7V6.3A5.049,5.049,0,0,1,7.8,1.25h17.56A3.216,3.216,0,0,1,27.742,2.3L35.9,11.279a3.218,3.218,0,0,1,.836,2.164V35.7a5.049,5.049,0,0,1-5.052,5.052Zm0-2.756a2.3,2.3,0,0,0,2.3-2.3V13.444a.459.459,0,0,0-.119-.31L25.7,4.156a.464.464,0,0,0-.34-.151H7.8a2.3,2.3,0,0,0-2.3,2.3V35.7a2.3,2.3,0,0,0,2.3,2.3Z" fill="#fff" fill-rule="evenodd"/>
    <path id="Path_15141" data-name="Path 15141" d="M14.75,3.128a1.378,1.378,0,0,1,2.756,0v7.349a.459.459,0,0,0,.459.459H24.4a1.378,1.378,0,0,1,0,2.756h-6.43a3.215,3.215,0,0,1-3.215-3.215Z" transform="translate(10.047 0.419)" fill="#fff" fill-rule="evenodd"/>
  </g>
</svg>
