<svg id="Group_14270" data-name="Group 14270" xmlns="http://www.w3.org/2000/svg" xmlns:xlink="http://www.w3.org/1999/xlink" width="533.83" height="338.099" viewBox="0 0 533.83 338.099">
  <defs>
    <clipPath id="clip-path">
      <rect id="Rectangle_12993" data-name="Rectangle 12993" width="533.83" height="338.099" fill="none"/>
    </clipPath>
    <clipPath id="clip-path-3">
      <rect id="Rectangle_12991" data-name="Rectangle 12991" width="19.873" height="17.474" transform="translate(213.327 100.168)" fill="none"/>
    </clipPath>
  </defs>
  <g id="Group_14269" data-name="Group 14269" clip-path="url(#clip-path)">
    <g id="Group_14268" data-name="Group 14268">
      <g id="Group_14267" data-name="Group 14267" clip-path="url(#clip-path)">
        <path id="Path_15300" data-name="Path 15300" d="M518.857,288.044c7.995,4.946,10.913,11.611-1.749,21.348-11.223,8.629-21.839,10.7-35.665,11.588-18.777,1.2-37.907,5.149-56.3,8.991-12.941,2.7-24.179,5.375-37.318,3.358-9.342-1.438-17.493-2.128-27.023-1.138-11.135,1.158-21.712,5-32.888,5.764-8.425.577-16.861-.746-25.283-1.049-18.738-.678-34.065-6.091-53.308-2.5-16.673,3.106-29.613-.3-46.319-1.272-31.11-1.815-63.04-1.086-94.266-1.594-16.69-.273-28.288-7.364-43.728-12.455-8.34-2.747-16.241-6.591-24.933-8.166-6.956-1.26-16.319.14-22.654-3.275-24.967-13.458,15.7-31.725,26.773-34.021,25.657-5.316,52.366-17.084,78.688-12.975,22.084,3.448,44.918-7.929,67.794-6.042,13.932,1.152,27.987.837,42.035.87,37.058.091,73.056-1.341,110.038.721,20.043,1.117,40.042,1.265,60.084,2.859,14.072,1.122,28.133.346,42.213,1.3,17.652,1.187,28.983,10.6,45.091,16.649,7.636,2.865,20.72,6.094,28.72,11.044" fill="#c8e8c5"/>
        <path id="Path_15301" data-name="Path 15301" d="M51.214,270.11c-.5,2.563-1.624,5.4-1.5,8.016a1.668,1.668,0,0,0,2.807,1.164c1.827-1.509,2.8-3.415,4.058-5.383a22.1,22.1,0,0,1,3.788-4.872c.4,2.656-1.366,5.738.428,8.063a1.473,1.473,0,0,0,1.983.52c2.076-1.5,1.989-5.425,3.877-6.538.827-.487.573.107.974,1.226.22.617.4,1.243.649,1.85a6.693,6.693,0,0,0,1.779,2.886,2.367,2.367,0,0,0,2.732.353c3.887-2.049,1.2-7.381,1.67-10.977,1.828,1.676,2.99,5.089,5.232,6.344a1.446,1.446,0,0,0,1.971-.549,1.411,1.411,0,0,0,.129-.305c.858-3.068-.311-6.782-.492-9.917-.1-1.7-.9-8.045,1.658-5.784,1.13,1,1.621,4.914,2.05,6.371.267.9.5,1.809.8,2.7.559,1.713,1.039,3.436,2.924,3.978a1.824,1.824,0,0,0,2.2-1.25c.741-2.379.231-4.96.723-7.436a23.252,23.252,0,0,1,1.782-5.965,40.876,40.876,0,0,1,.068,6.918c0,2.448.179,4.7,1.587,6.78a2.371,2.371,0,0,0,2.6,1.056c2.23-.642,3.133-2.652,3.866-4.69.432-1.2.661-2.478,1.13-3.662a13.319,13.319,0,0,1,1.237-1.944c-.161.98-.359,1.958-.53,2.935-.331,1.874-.94,4.008-.515,5.907a1.73,1.73,0,0,0,2.138,1.19,1.767,1.767,0,0,0,.386-.163,23.329,23.329,0,0,0,5.079-4.8c.374-.45.711-.925,1.079-1.38a21.067,21.067,0,0,1,1.457-1.809c.066,2.531-2.309,5.109-.883,7.619a1.337,1.337,0,0,0,1.838.447,1.306,1.306,0,0,0,.233-.18c.761-.659,5.007-6.521,5.931-5.8.535.422-1.313,5.468-.967,6.606a1.169,1.169,0,0,0,1.419.806c2.864-.886,7.228-7.9,10.427-5.253,1.063.882,2.6-.629,1.532-1.533-4.476-3.778-7.48,1.707-11.115,3.9.517-2.613,2.673-6.514-.778-7.19-2.32-.454-4.236,1.836-5.918,3.936,1-2.521,2.859-5.478,0-6.958-1.514-.782-2.853.173-3.936,1.22-1.581,1.529-2.8,3.316-4.249,4.909,1.043-4.239,3.415-9.9.176-11.877-2.633-1.6-4.75,2.1-5.908,3.865a24.556,24.556,0,0,0-2.476,4.714c-.009.03-.024.073-.036.112-.15-5.547-.171-12.646-5.059-11.43-2.606.65-4.13,4.155-4.835,6.46a25.7,25.7,0,0,0-.894,7.542c-1.192-3.016-2.485-7.414-2.837-8.162-.817-1.736-1.96-3.454-4.125-2.464-4.585,2.092-1.771,11.113-1.391,16.35-1.6-1.935-2.524-4.479-4.787-5.808a1.572,1.572,0,0,0-1.883.243,6.613,6.613,0,0,0-1.585,3.571c-.1.532-.191,2.031-.259,3.5-.747-1.816-1.579-3.525-3.953-3.129-2.883.481-3.223,3.754-4.23,6.229-.081-2.178.586-5.1-.186-6.789a1.339,1.339,0,0,0-1.51-.614c-2.863.866-4.809,3.555-6.65,6.238.927-4.562,1.5-9.8-2.641-9.818-2.477-.013-4.479,3-5.7,4.762a53.428,53.428,0,0,0-3.049,5.158c.318-3.623.8-7.236-1.453-10.553a2.316,2.316,0,0,0-3.078-.806c-2.58,1.287-3.88,4.055-5.027,6.582a20.015,20.015,0,0,0-.865,2.4c-.617-4.1-1.879-7.9-5.774-6.445-4.28,1.6-5.17,7.032-5.6,12.214a15.706,15.706,0,0,0-1.74-5.389c-.855-1.406-2.318-2.756-4-1.774-1.77,1.034-1.764,4-1.867,5.766-.061,1.028.158,5.4.175,8.151-1.948-3.494-5.153-8.832-7.256-4.678-.827,1.634.2,4.507.648,6.111a22.909,22.909,0,0,0,5.47,9.756c.448.481,1.162-.131.879-.678-1.859-3.591-4.2-7.835-4.408-11.955-.148-2.9.971.4,1.582,1.737a14.149,14.149,0,0,0,2.655,4.13,1.4,1.4,0,0,0,1.643.213c1.468-.642,1.356-1.673,1.364-3.1.016-3.1-.167-6.18.01-9.3a11.085,11.085,0,0,1,.155-1.864c.219-.915-.156-1.408.55-.968.888.554.892,3.473,1.021,4.346.472,3.145.962,6.508,2.4,9.38a2.134,2.134,0,0,0,3.662,0c1.192-2.458,1.471-5.058,1.861-7.737.179-1.234.334-2.473.577-3.7a14.9,14.9,0,0,1,.819-2.271c.048.188.089.365.115.51.472,2.579.571,5.408,1.694,7.792a2.629,2.629,0,0,0,4.106.529c2.937-3.409,2.717-10.468,5.5-14.173,1.1,4.188-.761,9.333.5,13.488a2.075,2.075,0,0,0,3.43.906c1.5-1.427,2.142-3.628,3.057-5.445,1.223-2.427,2.485-4.863,3.912-7.177,2.429-3.936,2.246-.462,1.764,1.987" fill="#7bc07d"/>
        <path id="Path_15302" data-name="Path 15302" d="M179.225,325.48c-.621.44-1.283.986-1.922,1.383-1.43.889-.6,1.137-.974.027-.359-1.059.2-3.132.147-4.286-.106-2.423-.659-5.8-3.664-6.041-3.142-.253-4.929,2.846-6.286,5.746-.463-2.287-.426-5.076-3.315-5.608-3.068-.563-4.894,2.887-5.708,5.743-.414-1.317-.881-2.7-2.144-3.382-2.242-1.22-3.455.216-4.6,1.724-.1-.462-.21-.915-.335-1.33a1.781,1.781,0,0,0-1.7-1.292,6.341,6.341,0,0,0-4.581,3.126,4.085,4.085,0,0,0-1.408-1.782c-2.244-1.515-4.072.355-5.507,1.99-.024.027-.3.319-.63.672,0-.145.016-.289.012-.434a6.216,6.216,0,0,0-1.1-3.886c-2.046-2.676-5.183-1.292-7.51.136-.806.495-2.1,1.254-3.224,2.1,1.031-3.2,2.408-7.578.444-9.866-1.862-2.168-4.842-.943-6.83.35a16.973,16.973,0,0,0-2.662,2.241c.459-1.69.9-3.384,1.3-5.075.551-2.332,1.3-6.38-.875-8.2-3.8-3.175-7.9,3.376-11.047,8.763.757-3.2,1.5-6.411,1.992-9.64.329-2.151,1.079-5.816-1.383-7.016-3.4-1.658-6.785,3.61-8.258,5.907a80.41,80.41,0,0,0-5.034,9.847c-.051.107-.1.231-.155.364a70.606,70.606,0,0,0,.723-8.239c.006-2.944.113-7.84-2.945-9.474-7.4-3.956-10.231,11.071-11.894,21.2C77.2,302.1,76.21,288.331,68.91,292.9c-2.908,1.821-3.346,6.49-3.741,9.54-.489,3.8-.021,7.457.347,11.14-1.165-1.755-2.315-3.567-2.545-3.908-1.365-2.025-2.674-6.07-5.8-5.891-5.118.292-1.767,8.7-.84,13.133-2.661-2.9-5.237-9.629-8.859-8.129-4.666,1.932,1.591,11.867,3.574,14,.812.875,2-.4,1.285-1.286a14.884,14.884,0,0,1-3.4-8.093c-.209-2.963,1.04-.647,2.1.749,1.718,2.259,3.413,5.952,6.4,6.6a1.382,1.382,0,0,0,1.663-.945c.571-1.938-.271-3.887-.664-5.806-.192-.942-1.59-5.253-.846-6.049.414-.442,2.65,3.655,2.88,4.006a65.851,65.851,0,0,1,3.6,6.186c.827,1.611,1.688,3.007,3.489,3.55a2.343,2.343,0,0,0,2.855-1.62c1.044-4.571-.533-9.784-.121-14.549.115-1.338.173-2.683.368-4.014a15.358,15.358,0,0,1,.644-2.256c.147.939.651,2.446.751,2.9.672,3.078,1.062,6.2,1.521,9.31.526,3.558.517,8.962,3.792,11.2a2.373,2.373,0,0,0,3.23-.848c2.145-4.447,1.633-10.082,2.734-14.853A57.9,57.9,0,0,1,85.58,299.5a24.487,24.487,0,0,1,1.868-4.2c.563-.916-.022-1.648.586-.22.84,1.973.417,4.955.346,7.066-.176,5.206-1.438,10.5-.7,15.685.221,1.536,2.083,1.8,3.2,1.3,2.692-1.2,3.607-5.927,4.642-8.314,1.952-4.495,3.926-9.115,6.773-13.127.088-.122,1.925-2.776,1.916-2.779.34.109.14,1.813.13,2.162a21.125,21.125,0,0,1-.465,3.312c-.925,4.933-2.116,9.811-3.361,14.671-.3,1.186,1.071,2.442,2.189,1.684,3.723-2.528,5.434-7.951,8.342-11.38.481-.569,2.022-2.892,2.883-2.044.538.53-.633,3.562-.8,4.12-.857,2.783-1.658,5.614-2.665,8.346-.708,1.914-2.233,4.607-.472,6.4,2.726,2.783,4.988-1.6,6.43-3.233a29.272,29.272,0,0,1,4.707-4.412,2.237,2.237,0,0,0-.21.34,19.932,19.932,0,0,0-1.046,3.784c-.53,2.135-2.239,6.2-.149,8.032,2.533,2.218,5.3-1.372,6.952-2.928,1.471-1.378,4.85-5.13,6.529-2.04.659,1.216-.168,2.862.7,4.242a1.646,1.646,0,0,0,1.412.81c2.357-.113,2.265-1.794,3.869-3.118,3.208-2.649,2.881,1.453,3.823,3.589.63,1.43,2.887.662,2.858-.773a7.181,7.181,0,0,1,1.564-4.088,14.577,14.577,0,0,0,.608,2.461,1.813,1.813,0,0,0,2.247,1.235,1.794,1.794,0,0,0,.389-.164c1.9-1.251,2.427-4.589,4.417-.749.954,1.841.337,2.941,2.159,4.072a1.647,1.647,0,0,0,1.654,0,2.544,2.544,0,0,0,1.322-1.581c.425-.952.936-7.9,2.174-6.642.676.69.417,3.278.715,4.26a6.322,6.322,0,0,0,2.1,3.208,2.3,2.3,0,0,0,3.53-.454,16.7,16.7,0,0,0,2.755-4.909c.18-.618.069-2.125.286-1.715a5.63,5.63,0,0,1,.322,1.946c.2,1.92-.182,4.069.3,5.945,2.247,8.7,10.45-5.4,12.66-1.482.959,1.7,3.451.2,2.6-1.517-2.084-4.2-5.173-3.15-8.449-.83" fill="#7bc07d"/>
        <path id="Path_15303" data-name="Path 15303" d="M212.874,303.274c1.381.355,2.409-1.763,1.01-2.4-2.9-1.314-4.507-1.058-6.776.206.673-1.785,2.39-4.446,1.779-6.1a1.229,1.229,0,0,0-1.159-.882c-3.99.3-5.743,3.845-8.647,5.812,1.323-2.741,5.584-6.016,2.658-8.515-1.839-1.57-4.318-.42-6.627,1.459.581-2.18.444-4.075-1.462-4.611-2.689-.758-5.808,2.3-7.563,3.92-.107.1-.241.212-.389.332,1.074-2.615,3.835-8.319.757-10.073-1.7-.97-3.221.438-4.482,1.451a45.044,45.044,0,0,0-3.938,3.47c1.368-5.407,2.361-11.672-2.726-11.129-3.267.349-5.387,3.708-7.017,7.385.013-.162.024-.31.024-.437,0-2.068,0-5.08-2.2-6.12-2.527-1.193-4.488,1.351-5.746,3.182a24.287,24.287,0,0,0-2.688,5.367c-.057.152-.11.307-.167.46a6.957,6.957,0,0,0-1.094-2.661,2.793,2.793,0,0,0-4.586-.134c-.86.976-1.85,4.015-2.18,6.485-.21-.541-.416-1.065-.524-1.374a6.819,6.819,0,0,0-1.98-3.415,1.519,1.519,0,0,0-1.785-.231c-1.922,1.187-2.244,3.184-2.195,5.335.024,1.041.852,3.489,1.176,5.31-1.8-2.381-4.185-6.308-6.532-5.264-2.744,1.223,1.165,5.818,1.858,6.9.495.773,1.719.072,1.237-.723-.077-.127-1.879-2.844-1.831-2.893.782-.825,2.546,1.62,2.829,1.947,1.067,1.243,1.427,2.47,2.8,3.452a1.1,1.1,0,0,0,1.472-.386c1.691-2.272-1.4-7.481-.237-10.1.535,1.17.733,2.624,1.173,3.719a15.489,15.489,0,0,0,2.343,4.341,1.545,1.545,0,0,0,1.508.4c1.471-.34,1.8-1.381,2.1-2.744.152-.693.232-2.764.466-4.638a15.528,15.528,0,0,0,.051,1.6,10.856,10.856,0,0,0,1.761,4.958,2.42,2.42,0,0,0,3.329.8,2.362,2.362,0,0,0,.417-.321c2.035-1.955,2.022-5.434,2.77-8.041a24.192,24.192,0,0,1,2.269-5.948,1.837,1.837,0,0,0,.323-.3,8.644,8.644,0,0,1,.018,1.043c.066,3.726-2.238,8.349.474,11.5a1.986,1.986,0,0,0,3.087-.4c2.668-4.069,3.845-8.777,6.631-12.825a3.131,3.131,0,0,0,.3-.529v.013c.594,1.563-.431,3.866-.849,5.443-.69,2.6-2.025,5.308-1.81,8.035a2.066,2.066,0,0,0,2.589,1.973c2.062-.758,2.917-2.592,4.157-4.3.846-1.164,6.091-5.767,5.554-7.084,1.122,2.749-2.837,7.174-3.144,9.936-.355,3.181,2.378,3.6,4.423,1.818,1.844-1.611,3.218-4.51,5.594-5.413,2.664-1.013.754,1.45.162,2.826a32.952,32.952,0,0,1-2.741,5.246c-.863,1.307,1.091,2.8,2.162,1.667,1.77-1.864,3.489-3.814,5.428-5.507,2.043-1.783,4.154-2.63,2.347.594-1.041,1.859-2.916,3.874-2.415,6.161a1.213,1.213,0,0,0,1.484.842,9.109,9.109,0,0,0,3.321-2.189,32.656,32.656,0,0,1,2.485-2.248l.866-.751q2.82-1.971,1.746-.085c.247,2.059-2.8,3.622-1.432,5.9a1.22,1.22,0,0,0,1.627.428c2.2-1.089,3.9-1.578,6.353-.948" fill="#7bc07d"/>
        <path id="Path_15304" data-name="Path 15304" d="M31.973,300.144c-1.758-.459-3.02.468-4,1.828-.018-1.322-.13-2.646-.25-3.957-.188-2.069.247-5.152-2.5-5.37-2.554-.2-4.16,3.121-5.1,4.942a21.755,21.755,0,0,0-1.7,4.523,8.837,8.837,0,0,0-.264-1.278c-.608-1.742-1.806-4.406-4.008-4.5-3.1-.134-3.793,3.236-3.889,6.567A4.471,4.471,0,0,0,7.2,299.943a1.229,1.229,0,0,0-1.352.55c-.668,1.143-.223,4.14-.849,4.415-.885.387-2.411-1.529-3.842-1.351A1.2,1.2,0,0,0,0,304.8a1.14,1.14,0,0,0,.035.246,14.421,14.421,0,0,0,2.859,5.112c.809,1.067,2.634.076,1.841-1.076a25.666,25.666,0,0,1-1.69-2.746c1.494.985,2.935,2.87,4.269.083.648-1.353-.636-4.762.985-1.59.872,1.7,1.09,3.381,2.452,4.809a1.481,1.481,0,0,0,2.458-.65c.407-2.171.034-4.315.349-6.478.039-.271.508-2.674.761-2.656a24.208,24.208,0,0,0,.7,3.549c.539,2.561.17,6.779,2.446,8.567,1.146.9,3.062.751,3.457-.913.67-2.822.662-5.714,1.271-8.541a21.13,21.13,0,0,1,1.8-5.253c.915-1.739.524-1.764,1.052-.307.916,2.539.405,5.849.1,8.446-.136,1.152-.39,1.932.221,2.993a1.322,1.322,0,0,0,2.26,0c.808-1.415,1.465-4.464,3.22-4.389,1.582.066,1.25,1.636,1.4,3.054.2,1.9.244,3.8.466,5.693a1.084,1.084,0,0,0,2.166,0c.38-2.873,1.329-11.5-2.905-12.606" fill="#7bc07d"/>
        <path id="Path_15305" data-name="Path 15305" d="M242.374,324.707c-.781.143-4.283,2.528-4.371,2.484-.319-.165.074-3.629-.061-4.248a3.7,3.7,0,0,0-5.283-2.847c-1.867.788-2.74,2.743-3.841,4.272-.764-2.741-.881-6.459-4.482-6.031-1.794.212-2.864,1.745-3.628,3.206-.4.769-.53,1.693-.946,2.448-1.076,1.95-.886,2.077-2.527.146-1.409-1.661-4.753-4.727-7.062-2.449-2.539,2.5.5,8.64,1.24,11.331.14.513,1.021.434.961-.131-.14-1.32-.493-2.554-.706-3.86a8.9,8.9,0,0,1-.2-3.462q.017-.611.033-1.217l3.257.288c1.679,1.041,2.189,4.471,4.869,3.822,1.763-.426,2.034-2.6,2.816-3.932.5-.854.387-1.6,1.548-1.669,1.384-.085.9.854,1.1,2.107a9.167,9.167,0,0,0,1.266,3.969,2.215,2.215,0,0,0,2.923.767c1.466-.635,3.215-3.021,4.035-4.364a1.621,1.621,0,0,1,.481-.441,1.1,1.1,0,0,1,.027.328,8.264,8.264,0,0,0,.441,3.2c2.414,7,8.214-3.4,10.851-.124.672.834,1.786.051,1.88-.779.3-2.633-2.484-3.2-4.617-2.81" fill="#7bc07d"/>
        <path id="Path_15306" data-name="Path 15306" d="M500.784,280.523a2.63,2.63,0,0,0,4.108-.529c1.122-2.382,1.222-5.213,1.693-7.791.027-.145.069-.322.115-.508a14.979,14.979,0,0,1,.821,2.268c.243,1.225.4,2.463.577,3.7.39,2.677.667,5.277,1.859,7.734a2.133,2.133,0,0,0,3.662,0c1.435-2.869,1.925-6.232,2.394-9.379.131-.875.134-3.793,1.024-4.346.7-.441.331.054.548.967a10.893,10.893,0,0,1,.155,1.865c.177,3.117-.006,6.193.01,9.3.006,1.429-.1,2.461,1.363,3.1a1.4,1.4,0,0,0,1.643-.215,14.129,14.129,0,0,0,2.655-4.13c.611-1.33,1.73-4.635,1.582-1.737-.212,4.121-2.551,8.366-4.409,11.956-.283.547.432,1.159.879.676a22.887,22.887,0,0,0,5.469-9.756c.445-1.6,1.475-4.476.647-6.11-2.1-4.155-5.3,1.184-7.256,4.678.019-2.752.235-7.125.176-8.151-.1-1.763-.1-4.73-1.865-5.766-1.681-.982-3.144.367-4,1.773a15.688,15.688,0,0,0-1.739,5.39c-.432-5.183-1.32-10.611-5.6-12.214-3.9-1.459-5.158,2.351-5.775,6.445a19.848,19.848,0,0,0-.866-2.4c-1.147-2.525-2.448-5.3-5.028-6.582a2.313,2.313,0,0,0-3.075.8c-2.256,3.318-1.773,6.931-1.454,10.553a53.59,53.59,0,0,0-3.05-5.155c-1.219-1.767-3.223-4.778-5.7-4.763-4.143.021-3.568,5.256-2.642,9.818-1.841-2.685-3.787-5.374-6.648-6.238a1.343,1.343,0,0,0-1.512.615c-.772,1.691-.1,4.61-.185,6.788-1.007-2.475-1.348-5.748-4.23-6.229-2.373-.4-3.206,1.313-3.954,3.129-.067-1.466-.156-2.965-.259-3.5a6.625,6.625,0,0,0-1.585-3.574,1.574,1.574,0,0,0-1.883-.241c-2.262,1.328-3.188,3.872-4.787,5.806.381-5.235,3.2-14.257-1.389-16.348-2.168-.989-3.31.729-4.127,2.464-.352.748-1.646,5.146-2.838,8.162a25.637,25.637,0,0,0-.894-7.542c-.7-2.306-2.226-5.811-4.835-6.46-4.888-1.216-4.908,5.884-5.057,11.429-.013-.037-.027-.08-.039-.11a24.465,24.465,0,0,0-2.475-4.714c-1.159-1.768-3.275-5.469-5.909-3.865-3.238,1.973-.867,7.64.176,11.879-1.448-1.594-2.668-3.382-4.248-4.911-1.085-1.047-2.421-2-3.936-1.22-2.864,1.479-1,4.437,0,6.958-1.682-2.1-3.6-4.391-5.918-3.936-3.452.675-1.3,4.575-.778,7.19-3.635-2.192-6.639-7.677-11.115-3.9-1.071.9.468,2.415,1.532,1.532,3.2-2.651,7.563,4.367,10.428,5.255a1.169,1.169,0,0,0,1.418-.806c.346-1.138-1.5-6.186-.967-6.606.924-.726,5.17,5.136,5.93,5.8a1.336,1.336,0,0,0,1.89-.033,1.317,1.317,0,0,0,.181-.234c1.427-2.512-.946-5.089-.88-7.619a21.2,21.2,0,0,1,1.454,1.807c.368.454.7.93,1.08,1.381a23.223,23.223,0,0,0,5.081,4.8,1.732,1.732,0,0,0,2.524-1.025c.423-1.9-.186-4.033-.516-5.907-.173-.977-.371-1.955-.532-2.937A13.238,13.238,0,0,1,431.14,261c.471,1.186.7,2.463,1.131,3.664.733,2.037,1.636,4.048,3.865,4.692a2.374,2.374,0,0,0,2.6-1.059c1.409-2.081,1.593-4.331,1.59-6.779a40.783,40.783,0,0,1,.067-6.919,23.293,23.293,0,0,1,1.782,5.967c.49,2.475-.019,5.057.724,7.436a1.822,1.822,0,0,0,2.2,1.25c1.883-.542,2.364-2.265,2.923-3.978.292-.894.53-1.8.8-2.7.429-1.459.921-5.37,2.052-6.372,2.552-2.263,1.754,4.087,1.657,5.784-.179,3.135-1.348,6.849-.492,9.917a1.447,1.447,0,0,0,1.8.983,1.464,1.464,0,0,0,.3-.129c2.244-1.254,3.4-4.668,5.232-6.344.472,3.6-2.217,8.929,1.672,10.977a2.365,2.365,0,0,0,2.731-.353,6.683,6.683,0,0,0,1.779-2.886c.249-.608.431-1.234.651-1.85.4-1.119.146-1.713.973-1.226,1.886,1.113,1.8,5.034,3.875,6.538a1.474,1.474,0,0,0,1.983-.52c1.794-2.327.031-5.407.429-8.063a22.1,22.1,0,0,1,3.787,4.872c1.257,1.968,2.232,3.874,4.058,5.383a1.669,1.669,0,0,0,2.81-1.164c.127-2.612-.992-5.453-1.5-8.016-.481-2.449-.664-5.925,1.764-1.987,1.427,2.312,2.689,4.75,3.912,7.175.916,1.819,1.555,4.021,3.057,5.447a2.077,2.077,0,0,0,3.431-.906c1.26-4.155-.6-9.3.5-13.488,2.78,3.705,2.561,10.764,5.5,14.172" fill="#7bc07d"/>
        <path id="Path_15307" data-name="Path 15307" d="M146.443,263.965q-1.2-1.059.665-1.825.884-2.018,1.977-.462c1.011.386,1.845,1.691,2.629,2.436.761.721,1.7,1.818,2.813,2,2.256.364,3.14-1.546,3-3.449-.106-1.45-.813-2.788-.94-4.258a5.685,5.685,0,0,1,0-.846c.084.209.17.414.248.624.974,2.518,1.45,4.993,4.2,6.021a2.548,2.548,0,0,0,3.121-1.773c.526-2.811-.123-5.563.33-8.449a11.519,11.519,0,0,1,.3-1.187c.549,1.231,1.082,2.467,1.577,3.722.793,2.011,1.341,3.72,3.4,4.762,1.222.621,3.228.454,3.851-1.009,1.448-3.4,1.8-7.223,2.634-10.827.1-.454.79-2.192,1.386-3.684.7,3.883-.414,8.1.842,11.806,1.328,3.924,5.252,5.355,7.274,1.238,1.806-3.677,2.659-7.773,4.552-11.42.691-1.332,1.885-2.655,2.461-4.045-.039,1.572.317,3.591.22,4.915-.162,2.22-.461,4.425-.688,6.637-.269,2.606-.164,7.23,3.591,7.058,2.323-.109,3.5-2.548,4.28-4.376,1.422-3.319,3.273-6.636,5.015-9.8a8.445,8.445,0,0,1,1.981-2.853q1.121-2,1.088-.057c.571,1.421-.9,5.143-1.293,6.628-.74,2.783-1.839,5.8-1.675,8.71a1.843,1.843,0,0,0,2.306,1.757c1.886-.593,2.283-1.691,3.184-3.293.519-.922,4.672-8.275,6.17-7.263,1.353.913-1.606,8.674-1.664,10.365a1.583,1.583,0,0,0,2.364,1.356c2.056-1.286,2.644-4.076,3.866-6.064.863-1.4,1.555-3.524,1.548-.58,0,1.328-.487,2.609-.226,3.954.67,3.437,3.112,3.194,5.511,2.314a1.013,1.013,0,0,0,1.969.156,4.016,4.016,0,0,1,1.134-1.488,1.1,1.1,0,0,0,.377-.294,2.08,2.08,0,0,1,2.5-.3c.295.232.554,1.621.7,1.929A6.917,6.917,0,0,0,237.5,265.7a1.63,1.63,0,0,0,2.192-.575c.9-1.36.1-3.525.886-4.641,1.45-2.063,4.9,3.024,5.933,4.009a2.208,2.208,0,0,0,3.644-.961c.994-2.887.873-5.915,1.5-8.883a22.4,22.4,0,0,1,.942-3.2c.156-.419.336-.827.511-1.238,1.377,3.58.813,7.37,3.666,10.431a2.488,2.488,0,0,0,3.477,0c1.716-1.748,2.144-4.453,3.008-6.688a34.619,34.619,0,0,1,2.25-5.288c.428-.723,2.669-3.06,2.457-3.188,1.379.834.045,10.456-.018,12.177-.1,2.613-.5,4.848,1.492,6.818a2.768,2.768,0,0,0,3.819,0c2.057-1.743,3.59-4.181,5.289-6.258.561-.684,3.591-4.2,3.341-4.368.7.486-.682,5.155-.759,5.957a5.237,5.237,0,0,0,.751,3.957,1.909,1.909,0,0,0,2.052.834c2.459-.425,4.6-3.027,6.289-4.7,1.321-1.313,1.132-1.846,1.047.007a27.949,27.949,0,0,0-.279,3.084,1.942,1.942,0,0,0,3.267,1.353c1.521-1.207,5.089-5.417,7.218-1.871a1.489,1.489,0,0,0,2.63-.28c2.766,1.21,6.1,2.363,6.9-1.748.263-1.345-.222-2.627-.224-3.954-.009-2.944.681-.825,1.547.58,1.222,1.987,1.81,4.778,3.866,6.064a1.583,1.583,0,0,0,2.363-1.356c-.057-1.691-3.017-9.452-1.664-10.365,1.5-1.012,5.651,6.341,6.17,7.263.9,1.6,1.3,2.7,3.184,3.293a1.843,1.843,0,0,0,2.247-1.318,1.814,1.814,0,0,0,.059-.439c.163-2.911-.934-5.927-1.676-8.71-.394-1.485-1.862-5.207-1.293-6.628q-.031-1.939,1.089.057a8.415,8.415,0,0,1,1.98,2.853c1.742,3.162,3.594,6.478,5.016,9.8.785,1.828,1.957,4.267,4.28,4.376,3.755.173,3.859-4.452,3.591-7.058-.228-2.212-.526-4.418-.69-6.637-.1-1.325.262-3.343.22-4.915.575,1.39,1.771,2.713,2.461,4.045,1.894,3.647,2.745,7.743,4.552,11.42,2.022,4.117,5.945,2.686,7.275-1.238,1.255-3.711.146-7.923.84-11.806.6,1.493,1.283,3.23,1.389,3.684.831,3.6,1.185,7.423,2.634,10.827.622,1.463,2.626,1.63,3.849,1.009,2.053-1.041,2.6-2.75,3.4-4.762.495-1.254,1.026-2.491,1.575-3.722a11.031,11.031,0,0,1,.3,1.187c.454,2.886-.2,5.638.332,8.449a2.548,2.548,0,0,0,3.122,1.773c2.748-1.028,3.223-3.5,4.2-6.021.077-.21.164-.416.246-.624a5.689,5.689,0,0,1,0,.846c-.126,1.47-.832,2.808-.939,4.258-.139,1.9.745,3.813,3,3.449,1.116-.18,2.052-1.277,2.811-2,.786-.745,1.62-2.05,2.631-2.436q1.094-1.555,1.976.462,1.867.764.667,1.825c-.574.855.775,1.9,1.427,1.1,1.9-2.314,3.056-6.114-.737-7.05-1.77-.438-3.468.384-4.892,1.339-1,.675-2,2.306-3.1,2.734-1.167.456-.349.264.055-1.181.63-2.26,1.394-7.321-1.543-8.394-1.485-.542-2.517.344-3.447,1.336a1.333,1.333,0,0,0-.1.125c-.116-.891-.261-1.78-.387-2.665-.323-2.245-.659-5.015-2.639-6.472-2.3-1.7-5.058-.526-6.462,1.71a25.554,25.554,0,0,0-1.989,4.474c-1.63-7.144-4.531-16.836-10.107-11.889-2.006,1.779-2.287,5.231-2.545,7.716-.163,1.572.2,4.111.157,6.35l-.023-.064c-.626-1.707-1.193-3.439-1.868-5.127a42.119,42.119,0,0,0-3.51-6.728c-1.476-2.351-3.92-5.575-7.092-4.082-4.521,2.125-2.927,10.6-2.2,15.243-.325-.575-.66-1.144-1.01-1.718-2.152-3.522-4.539-9.933-8.978-11.3-5.88-1.816-4.611,6.4-3.092,13.111a19.179,19.179,0,0,0-3.261-3.288c-1.553-1.186-3.5-2.089-5.153-.523a5.04,5.04,0,0,0-1.3,4.26c-1.087-1.661-2.46-2.722-4.461-1.946-1.862.723-1.862,3.03-1.712,4.683a12.361,12.361,0,0,1,.414,2.6c-.25,1.827-.5,1.7-2.054,1.612a17,17,0,0,1-2.379-.514,4.74,4.74,0,0,0-3.627-2.2,6.588,6.588,0,0,0-4.52,1.393c.111-1.643-.127-3.185-1.687-4.006-3.693-1.946-6.237,3.518-9.012,5.69-.065-3.462,3.388-9.111-1.682-10.194-3.607-.769-7.147,3.112-10,6.564.052-.788.113-1.493.1-1.885-.07-2.808.039-5.639-.243-8.437-.25-2.455-.922-5.627-4-5.654-2.6-.024-5.362,2.6-6.689,4.578a30.206,30.206,0,0,0-2.63,5.484c-.211.513-.409,1.192-.62,1.922-.656-4.318-.858-9.488-6.128-9.057-5.527.451-6.722,8.692-6.861,14.711-1.735-1.511-3.628-2.828-5.751-2-2.323.9-2.228,2.865-2.409,4.739-.929-2.055-.9-4.434-4.362-4.009a5.9,5.9,0,0,0-4.02,2.655,6.1,6.1,0,0,1-1.211.225c-1.558.085-1.8.215-2.054-1.612a12.437,12.437,0,0,1,.414-2.6c.149-1.652.149-3.96-1.711-4.683-2-.776-3.375.285-4.463,1.946a5.039,5.039,0,0,0-1.3-4.26c-1.655-1.566-3.6-.663-5.153.523a19.132,19.132,0,0,0-3.259,3.288c1.518-6.709,2.785-14.927-3.094-13.111-4.438,1.371-6.824,7.782-8.977,11.3-.351.574-.685,1.143-1.011,1.718.727-4.642,2.322-13.118-2.2-15.243-3.172-1.493-5.616,1.731-7.093,4.082a42.119,42.119,0,0,0-3.51,6.728c-.675,1.688-1.24,3.419-1.867,5.127l-.024.064c-.045-2.239.32-4.778.156-6.35-.255-2.485-.539-5.937-2.545-7.716-5.574-4.946-8.475,4.745-10.106,11.889a25.852,25.852,0,0,0-1.989-4.474c-1.4-2.236-4.16-3.407-6.464-1.71-1.98,1.457-2.315,4.227-2.638,6.472-.127.885-.271,1.774-.386,2.665-.034-.043-.071-.091-.1-.125-.931-.992-1.963-1.879-3.446-1.336-2.94,1.073-2.174,6.134-1.543,8.394.4,1.445,1.22,1.637.054,1.181-1.093-.428-2.091-2.059-3.095-2.734-1.424-.955-3.123-1.777-4.893-1.339-3.795.936-2.633,4.736-.736,7.05.651.794,2-.246,1.427-1.1" fill="#7bc07d"/>
        <path id="Path_15308" data-name="Path 15308" d="M486.358,308.784c-3.622-1.5-6.2,5.234-8.861,8.129.929-4.429,4.278-12.84-.839-13.133-3.124-.179-4.431,3.868-5.8,5.891-.229.341-1.38,2.154-2.545,3.908.365-3.682.835-7.342.346-11.138-.393-3.051-.832-7.719-3.741-9.541-7.3-4.572-8.288,9.2-9.237,18.345-1.664-10.127-4.49-25.154-11.893-21.2-3.06,1.634-2.952,6.529-2.946,9.473a70.171,70.171,0,0,0,.722,8.239c-.052-.133-.1-.255-.154-.362a80.146,80.146,0,0,0-5.034-9.848c-1.474-2.3-4.855-7.566-8.258-5.907-2.463,1.2-1.712,4.864-1.382,7.017.492,3.227,1.234,6.435,1.992,9.64-3.151-5.387-7.251-11.94-11.047-8.765-2.176,1.819-1.426,5.869-.876,8.2.4,1.691.846,3.385,1.3,5.075a16.921,16.921,0,0,0-2.661-2.241c-1.987-1.293-4.966-2.518-6.828-.349-1.964,2.287-.588,6.666.444,9.864-1.123-.842-2.418-1.6-3.224-2.1-2.327-1.427-5.465-2.811-7.511-.136a6.208,6.208,0,0,0-1.1,3.886c-.005.145.013.288.013.432-.328-.352-.607-.645-.63-.672-1.436-1.634-3.265-3.506-5.508-1.99a4.092,4.092,0,0,0-1.406,1.782,6.354,6.354,0,0,0-4.581-3.126,1.782,1.782,0,0,0-1.7,1.293c-.125.414-.231.867-.334,1.329-1.153-1.506-2.365-2.943-4.606-1.724-1.263.688-1.73,2.065-2.144,3.384-.813-2.856-2.641-6.307-5.709-5.743-2.886.53-2.85,3.321-3.313,5.608-1.357-2.9-3.145-6-6.287-5.748-3,.243-3.557,3.62-3.664,6.041-.051,1.155.508,3.227.147,4.286-.376,1.111.457.863-.975-.025-.638-.4-1.3-.943-1.921-1.384-3.277-2.318-6.365-3.364-8.449.83-.853,1.719,1.637,3.217,2.6,1.518,2.209-3.915,10.412,10.186,12.661,1.481.483-1.874.1-4.024.3-5.943a5.635,5.635,0,0,1,.321-1.947c.219-.41.105,1.1.288,1.716a16.606,16.606,0,0,0,2.752,4.908,2.3,2.3,0,0,0,3.168.736,2.253,2.253,0,0,0,.363-.28,6.316,6.316,0,0,0,2.1-3.209c.3-.98.039-3.57.717-4.258,1.237-1.26,1.749,5.69,2.173,6.64a2.541,2.541,0,0,0,1.321,1.582,1.649,1.649,0,0,0,1.653,0c1.824-1.132,1.206-2.23,2.16-4.072,1.991-3.841,2.52-.5,4.418.749a1.82,1.82,0,0,0,2.637-1.073,14.58,14.58,0,0,0,.608-2.461,7.2,7.2,0,0,1,1.564,4.088c-.031,1.435,2.227,2.2,2.858.775.941-2.138.613-6.238,3.823-3.589,1.6,1.325,1.512,3.005,3.867,3.117a1.639,1.639,0,0,0,1.414-.81c.867-1.378.039-3.026.7-4.24,1.678-3.091,5.057.661,6.527,2.04,1.658,1.555,4.421,5.146,6.953,2.926,2.09-1.831.379-5.9-.151-8.032a19.7,19.7,0,0,0-1.043-3.783,2.175,2.175,0,0,0-.211-.341,29.194,29.194,0,0,1,4.707,4.413c1.443,1.633,3.7,6.015,6.43,3.232,1.76-1.8.234-4.488-.471-6.4-1.01-2.732-1.809-5.565-2.666-8.348-.17-.556-1.341-3.588-.8-4.12.859-.848,2.4,1.476,2.883,2.044,2.907,3.43,4.617,8.851,8.339,11.38,1.118.758,2.494-.5,2.191-1.682-1.248-4.861-2.437-9.738-3.364-14.672a21.38,21.38,0,0,1-.465-3.312c-.009-.347-.208-2.052.132-2.16-.009,0,1.828,2.655,1.914,2.777,2.849,4.014,4.822,8.632,6.773,13.129,1.038,2.387,1.952,7.116,4.645,8.314,1.117.5,2.98.234,3.2-1.3.744-5.189-.518-10.48-.694-15.687-.071-2.111-.495-5.092.346-7.065.606-1.427.021-.7.586.219a24.72,24.72,0,0,1,1.869,4.2,58.08,58.08,0,0,1,2.253,7.475c1.1,4.769.588,10.4,2.734,14.853a2.371,2.371,0,0,0,3.229.846c3.273-2.239,3.267-7.645,3.79-11.2.46-3.114.849-6.231,1.524-9.31.1-.456.6-1.965.749-2.9a15.094,15.094,0,0,1,.644,2.257c.2,1.33.253,2.676.369,4.014.412,4.765-1.166,9.978-.123,14.547a2.346,2.346,0,0,0,2.845,1.619c1.8-.545,2.663-1.94,3.491-3.55a66.549,66.549,0,0,1,3.6-6.186c.231-.353,2.467-4.45,2.882-4.006.742.794-.656,5.106-.849,6.047-.392,1.919-1.233,3.868-.664,5.806a1.384,1.384,0,0,0,1.664.946c2.983-.647,4.681-4.341,6.4-6.6,1.06-1.4,2.309-3.713,2.1-.749a14.877,14.877,0,0,1-3.4,8.092c-.717.892.473,2.16,1.284,1.286,1.983-2.135,8.241-12.071,3.574-14" fill="#7bc07d"/>
        <path id="Path_15309" data-name="Path 15309" d="M342.19,294.159c-.591-1.375-2.5-3.839.162-2.826,2.376.9,3.748,3.8,5.592,5.414,2.047,1.786,4.78,1.363,4.426-1.819-.309-2.761-4.267-7.187-3.145-9.936-.537,1.317,4.707,5.921,5.555,7.086,1.24,1.707,2.1,3.54,4.156,4.3a2.066,2.066,0,0,0,2.522-1.48,2.107,2.107,0,0,0,.068-.493c.215-2.726-1.121-5.44-1.811-8.036-.418-1.575-1.443-3.878-.849-5.443v-.013a3.259,3.259,0,0,0,.3.53c2.786,4.047,3.962,8.756,6.63,12.825a1.988,1.988,0,0,0,2.728.677,1.932,1.932,0,0,0,.359-.277c2.711-3.154.409-7.779.474-11.5a8.815,8.815,0,0,1,.018-1.041,1.768,1.768,0,0,0,.323.3,24.087,24.087,0,0,1,2.279,5.945c.749,2.607.734,6.085,2.772,8.039a2.421,2.421,0,0,0,3.423-.065,2.382,2.382,0,0,0,.323-.418,10.879,10.879,0,0,0,1.761-4.958,15.533,15.533,0,0,0,.05-1.6c.235,1.873.314,3.944.466,4.637.3,1.365.627,2.406,2.1,2.744a1.544,1.544,0,0,0,1.505-.4,15.528,15.528,0,0,0,2.345-4.333c.44-1.1.638-2.551,1.173-3.719,1.167,2.613-1.928,7.822-.237,10.1a1.1,1.1,0,0,0,1.469.384c1.378-.982,1.739-2.208,2.806-3.451.281-.328,2.047-2.774,2.828-1.947.047.049-1.754,2.765-1.831,2.892-.483.794.741,1.5,1.237.724.692-1.077,4.6-5.672,1.858-6.9-2.346-1.046-4.733,2.881-6.531,5.262.322-1.819,1.151-4.269,1.176-5.31.048-2.15-.274-4.146-2.2-5.334a1.522,1.522,0,0,0-1.787.231,6.818,6.818,0,0,0-1.979,3.415c-.108.308-.314.831-.526,1.374-.327-2.472-1.319-5.51-2.177-6.485a2.792,2.792,0,0,0-4.586.133,6.957,6.957,0,0,0-1.094,2.661c-.057-.152-.112-.308-.168-.459a24.335,24.335,0,0,0-2.687-5.368c-1.259-1.831-3.22-4.376-5.746-3.182-2.2,1.04-2.2,4.054-2.2,6.12,0,.127.01.276.025.437-1.63-3.676-3.75-7.035-7.017-7.384-5.09-.544-4.094,5.721-2.728,11.129a45.64,45.64,0,0,0-3.936-3.471c-1.261-1.012-2.78-2.421-4.482-1.451-3.078,1.755-.318,7.46.754,10.075-.146-.122-.28-.234-.387-.332-1.756-1.616-4.872-4.68-7.562-3.921-1.907.538-2.043,2.433-1.463,4.613-2.311-1.879-4.787-3.029-6.627-1.459-2.926,2.5,1.336,5.772,2.659,8.515-2.9-1.967-4.658-5.51-8.647-5.814a1.229,1.229,0,0,0-1.159.882c-.612,1.655,1.1,4.316,1.778,6.1-2.269-1.263-3.876-1.52-6.776-.206-1.4.635-.371,2.75,1.011,2.4,2.457-.629,4.152-.142,6.35.948a1.222,1.222,0,0,0,1.629-.426c1.371-2.28-1.68-3.842-1.434-5.9q-1.072-1.886,1.749.085l.866.751a32.44,32.44,0,0,1,2.484,2.247,9.11,9.11,0,0,0,3.322,2.19,1.214,1.214,0,0,0,1.483-.842c.5-2.287-1.374-4.3-2.417-6.161-1.806-3.224.3-2.379,2.348-.6,1.939,1.694,3.659,3.643,5.428,5.507,1.071,1.128,3.025-.359,2.163-1.667a32.829,32.829,0,0,1-2.742-5.246" fill="#7bc07d"/>
        <path id="Path_15310" data-name="Path 15310" d="M532.666,303.555c-1.432-.177-2.957,1.739-3.841,1.351-.627-.274-.182-3.273-.849-4.415a1.232,1.232,0,0,0-1.354-.55,4.467,4.467,0,0,0-3.059,2.956c-.1-3.331-.787-6.7-3.889-6.567-2.2.1-3.4,2.759-4.007,4.5a8.7,8.7,0,0,0-.264,1.278,21.869,21.869,0,0,0-1.7-4.523c-.943-1.821-2.548-5.146-5.1-4.942-2.744.218-2.309,3.3-2.5,5.37-.119,1.311-.231,2.636-.25,3.957-.98-1.36-2.242-2.287-4-1.828-4.235,1.1-3.285,9.733-2.9,12.6a1.085,1.085,0,0,0,2.168,0c.222-1.9.264-3.8.466-5.693.151-1.417-.182-2.987,1.4-3.053,1.754-.074,2.412,2.974,3.218,4.389a1.322,1.322,0,0,0,2.26,0c.612-1.061.356-1.842.221-2.993-.3-2.6-.816-5.907.1-8.446.526-1.457.136-1.432,1.052.307a21.175,21.175,0,0,1,1.8,5.252c.61,2.829.6,5.721,1.271,8.543.4,1.664,2.312,1.812,3.455.913,2.279-1.788,1.909-6.006,2.448-8.567a23.949,23.949,0,0,0,.7-3.549c.252-.018.722,2.385.763,2.656.312,2.163-.058,4.306.349,6.478a1.48,1.48,0,0,0,2.458.65c1.362-1.429,1.581-3.1,2.451-4.809,1.62-3.172.338.237.984,1.588,1.336,2.788,2.774.9,4.269-.082a24.938,24.938,0,0,1-1.69,2.746c-.793,1.152,1.033,2.142,1.841,1.076a14.394,14.394,0,0,0,2.861-5.112,1.2,1.2,0,0,0-.877-1.453,1.219,1.219,0,0,0-.255-.034" fill="#7bc07d"/>
        <path id="Path_15311" data-name="Path 15311" d="M316.605,324.132c-1.64,1.932-1.45,1.8-2.525-.146-.417-.755-.544-1.678-.948-2.448-.764-1.462-1.833-2.995-3.628-3.206-3.6-.426-3.716,3.29-4.482,6.031-1.1-1.527-1.973-3.483-3.841-4.272a3.7,3.7,0,0,0-5.282,2.849c-.137.617.258,4.082-.063,4.246-.086.045-3.591-2.341-4.371-2.484-2.134-.39-4.915.177-4.617,2.811.094.828,1.21,1.612,1.88.778,2.637-3.279,8.437,7.129,10.852.124a8.244,8.244,0,0,0,.44-3.2,1.208,1.208,0,0,1,.027-.328,1.61,1.61,0,0,1,.483.443c.818,1.341,2.567,3.728,4.033,4.362a2.215,2.215,0,0,0,2.923-.767,9.167,9.167,0,0,0,1.266-3.969c.2-1.253-.289-2.192,1.1-2.107,1.161.072,1.047.815,1.549,1.669.782,1.33,1.053,3.506,2.814,3.932,2.68.65,3.191-2.78,4.87-3.82l3.257-.289.031,1.217a8.939,8.939,0,0,1-.2,3.462c-.215,1.308-.566,2.54-.706,3.862-.061.563.819.644.961.13.736-2.691,3.777-8.828,1.238-11.331-2.309-2.277-5.653.79-7.062,2.449" fill="#7bc07d"/>
        <path id="Path_15312" data-name="Path 15312" d="M290.6,294.406c1.672-.507,1.1.62.84,2.157-.163.97-.75,1.983-.4,2.978.577,1.663,2.228,1.734,3.806,2.1,1.272.3,1.812-1.688.539-1.956-3.859-.812-.152-4.058-.793-6.669a2.57,2.57,0,0,0-2.608-2.153c-1.591-.025-3.129,1.339-4.3,2.247-.6.465-1.692,1.643-2.808,2.627,1.648-3.448,4.155-7.861.6-9.786-1.881-1.019-3.914.267-5.4,1.4-.76.58-1.454,1.235-2.16,1.877,1.317-4.708,2.8-10.532-1.976-11.234-3.571-.524-5.766,1.968-7.487,4.954-.183-2.92-.981-5.519-3.7-6.284-3.37-.948-5.851,2.893-7.057,5.448a33.032,33.032,0,0,0-2.205,6.815,8.558,8.558,0,0,0-.134,1.094,13.212,13.212,0,0,0-.258-1.836c-.472-1.639-1.26-3.461-3-4.069-3.285-1.144-4.507,2.5-4.842,5-.206,1.517.428,4.2-.137,5.542-.009.04-.017.081-.022.122q-.981-.586-1.958-1.174a19.692,19.692,0,0,0-3.608-1.9c-4.708-1.529-6.35,2.138-4.723,6.109.513,1.253,2.536.782,2.089-.575q-.952-1.432,1.122-1.725,1.272-1.574,2.569-.18a14.635,14.635,0,0,1,2.828,1.751c.794.468,2.022,1.414,3.059,1.091,1.99-.623,1.545-3.044,1.556-4.669a15.73,15.73,0,0,1,.263-4.4c1.044-3.258,1.794-.252,2.132,1.819.4,2.42.308,5.051,2.51,6.572a1.673,1.673,0,0,0,2.013-.259c1.489-1.484,1.439-4.03,1.9-5.973.373-1.584,2.287-10.07,4.4-9.869,1.263.119.11,9.52.487,11.307.487,2.29,3.344,2.126,4.5.587,1.528-2.037,2.933-10.465,6.31-10.757,1.073-.094.542.131.728,1.211.258,1.508-.5,3.719-.828,5.189-.4,1.786-1.345,3.606-1.181,5.444a1.807,1.807,0,0,0,2.262,1.722c3.028-1.11,3.919-5.806,7.153-6.725,2.519-.715.14,3.722-.441,4.908a13.074,13.074,0,0,0-1.612,4.537c-.1.906.8,1.49,1.573,1.57,3.439.365,5.5-5.11,8.418-5.994" fill="#7bc07d"/>
        <path id="Path_15313" data-name="Path 15313" d="M386.7,32.251l-4.935-4.934-4.7,4.7-4.7-4.7-4.934,4.934,4.7,4.7-4.7,4.7,4.934,4.934,4.7-4.7,4.7,4.7,4.935-4.934-4.7-4.7Z" fill="#c5e8d4"/>
        <path id="Path_15314" data-name="Path 15314" d="M75.283,229.859l-4.934-4.93-4.7,4.7-4.7-4.7-4.934,4.934,4.7,4.7-4.7,4.7,4.934,4.934,4.7-4.7,4.7,4.7,4.934-4.934-4.7-4.7Z" fill="#c5e8d4"/>
        <path id="Path_15315" data-name="Path 15315" d="M182.475,14.4a7.2,7.2,0,1,1,7.2-7.2,7.2,7.2,0,0,1-7.2,7.2m0-11.423A4.222,4.222,0,1,0,186.7,7.2a4.222,4.222,0,0,0-4.222-4.223" fill="#c5e8d4"/>
        <path id="Path_15316" data-name="Path 15316" d="M506.382,96.286a7.2,7.2,0,1,1,7.2-7.2,7.2,7.2,0,0,1-7.2,7.2m0-11.423a4.222,4.222,0,1,0,4.221,4.222h0a4.226,4.226,0,0,0-4.221-4.221" fill="#c5e8d4"/>
        <path id="Path_15317" data-name="Path 15317" d="M404.534,225.138a7.2,7.2,0,1,1,7.2-7.2,7.2,7.2,0,0,1-7.2,7.2m0-11.423a4.222,4.222,0,1,0,4.221,4.222h0a4.226,4.226,0,0,0-4.221-4.221" fill="#c5e8d4"/>
        <path id="Path_15318" data-name="Path 15318" d="M182.385,205.158a6.736,6.736,0,1,1-6.737-6.736,6.737,6.737,0,0,1,6.737,6.736" fill="#c5e8d4"/>
        <path id="Path_15319" data-name="Path 15319" d="M31.409,85.19a6.736,6.736,0,1,1-6.736-6.736,6.737,6.737,0,0,1,6.736,6.736" fill="#c5e8d4"/>
        <path id="Path_15320" data-name="Path 15320" d="M266.012,39.931a88.022,88.022,0,1,0,88.022,88.023,88.024,88.024,0,0,0-88.022-88.023Z" fill="#f5f1f1"/>
        <path id="Path_15321" data-name="Path 15321" d="M266.011,225.049a97.1,97.1,0,1,1,97.1-97.095,97.205,97.205,0,0,1-97.1,97.095m0-185.118,0,9.073a78.949,78.949,0,1,0,55.827,23.124A79.039,79.039,0,0,0,266.011,49Z" fill="#edcace"/>
        <path id="Path_15322" data-name="Path 15322" d="M73.133,101.253a53.114,53.114,0,0,1,11.2-2.69,82.586,82.586,0,0,1,10.823-.813,56.436,56.436,0,0,1,10.008,1,51.05,51.05,0,0,1,11.135,3.44,55.335,55.335,0,0,1,11.01,6.444,42.542,42.542,0,0,1,9.509,9.946,50.612,50.612,0,0,1,6.63,14.075,63.477,63.477,0,0,1,2.5,18.642,80.672,80.672,0,0,1-2.564,21.331,60.592,60.592,0,0,1-6.882,16.2A46.271,46.271,0,0,1,126.368,200.4a54.524,54.524,0,0,1-12.385,7.57,59.875,59.875,0,0,1-13.576,4.129,78.28,78.28,0,0,1-13.761,1.251,67.722,67.722,0,0,1-15.577-1.94,63.319,63.319,0,0,1-15.514-5.88,50.022,50.022,0,0,1-12.887-9.884A31.064,31.064,0,0,1,35.1,181.575a24.7,24.7,0,0,1-.75-6.006,19.857,19.857,0,0,1,.876-5.942,14.485,14.485,0,0,1,2.689-5.005,13.247,13.247,0,0,1,4.567-3.5,15.28,15.28,0,0,1,6.631-1.313,17.285,17.285,0,0,1,9.571,2.877,21.912,21.912,0,0,1,7.444,8.883,17.3,17.3,0,0,0,2.315,3.128,16.911,16.911,0,0,0,4.129,3.253,27.566,27.566,0,0,0,6.192,2.565,29.877,29.877,0,0,0,8.383,1.063,26.96,26.96,0,0,0,11.948-2.315,19.967,19.967,0,0,0,7.444-6.068,22.519,22.519,0,0,0,3.816-8.507,44.057,44.057,0,0,0,1.063-9.634,24.289,24.289,0,0,0-2.126-10.572A21.424,21.424,0,0,0,103.6,137.1a24.107,24.107,0,0,0-8.069-4.379,29.9,29.9,0,0,0-9.134-1.439,30.454,30.454,0,0,0-7.945,1.063q-3.94,1.065-7.881,2.315t-7.945,2.315a32.046,32.046,0,0,1-8.258,1.063,26.865,26.865,0,0,1-5.754-.626,12.674,12.674,0,0,1-8.821-6.756,15.355,15.355,0,0,1-1.439-7.131l7.257-68.812a35.03,35.03,0,0,1,1.063-5.817,19.9,19.9,0,0,1,2.5-5.693,13.54,13.54,0,0,1,4.5-4.316,13.809,13.809,0,0,1,7.194-1.69h50.045a91.86,91.86,0,0,1,9.446.5A27.4,27.4,0,0,1,129,39.948a15.457,15.457,0,0,1,6.255,5.192q2.44,3.443,2.441,9.321,0,6.006-2.441,9.509A15.258,15.258,0,0,1,129,69.224a27.292,27.292,0,0,1-8.633,2.252,91.023,91.023,0,0,1-9.446.5H80.89q-1,0-1.939.062a3.072,3.072,0,0,0-1.627.564A3.536,3.536,0,0,0,76.2,74.166a9.988,9.988,0,0,0-.562,3.066Z" fill="#f57a87"/>
        <path id="Path_15323" data-name="Path 15323" d="M423.133,101.253a53.114,53.114,0,0,1,11.2-2.69,82.586,82.586,0,0,1,10.823-.813,56.435,56.435,0,0,1,10.008,1,51.05,51.05,0,0,1,11.135,3.44,55.336,55.336,0,0,1,11.01,6.444,42.543,42.543,0,0,1,9.509,9.946,50.612,50.612,0,0,1,6.63,14.075,63.477,63.477,0,0,1,2.5,18.642,80.671,80.671,0,0,1-2.564,21.331,60.592,60.592,0,0,1-6.882,16.2A46.271,46.271,0,0,1,476.368,200.4a54.524,54.524,0,0,1-12.385,7.57,59.875,59.875,0,0,1-13.576,4.129,78.281,78.281,0,0,1-13.761,1.251,67.722,67.722,0,0,1-15.577-1.94,63.319,63.319,0,0,1-15.514-5.88,50.022,50.022,0,0,1-12.887-9.884,31.064,31.064,0,0,1-7.569-14.075,24.7,24.7,0,0,1-.75-6.006,19.858,19.858,0,0,1,.876-5.942,14.485,14.485,0,0,1,2.689-5.005,13.247,13.247,0,0,1,4.567-3.5,15.28,15.28,0,0,1,6.631-1.313,17.285,17.285,0,0,1,9.571,2.877,21.912,21.912,0,0,1,7.444,8.883,17.3,17.3,0,0,0,2.315,3.128,16.911,16.911,0,0,0,4.129,3.253,27.565,27.565,0,0,0,6.192,2.565,29.877,29.877,0,0,0,8.383,1.063,26.96,26.96,0,0,0,11.948-2.315,19.967,19.967,0,0,0,7.444-6.068,22.519,22.519,0,0,0,3.816-8.507,44.056,44.056,0,0,0,1.063-9.634,24.289,24.289,0,0,0-2.126-10.572A21.424,21.424,0,0,0,453.6,137.1a24.107,24.107,0,0,0-8.069-4.379,29.9,29.9,0,0,0-9.134-1.439,30.454,30.454,0,0,0-7.945,1.063q-3.941,1.065-7.881,2.315t-7.945,2.315a32.046,32.046,0,0,1-8.258,1.063,26.865,26.865,0,0,1-5.754-.626,12.675,12.675,0,0,1-8.821-6.756,15.355,15.355,0,0,1-1.439-7.131l7.257-68.812a35.028,35.028,0,0,1,1.063-5.817,19.9,19.9,0,0,1,2.5-5.693,13.54,13.54,0,0,1,4.5-4.316,13.809,13.809,0,0,1,7.194-1.69h50.045a91.86,91.86,0,0,1,9.446.5A27.4,27.4,0,0,1,479,39.948a15.457,15.457,0,0,1,6.255,5.192q2.44,3.443,2.441,9.321,0,6.006-2.441,9.509A15.258,15.258,0,0,1,479,69.224a27.292,27.292,0,0,1-8.633,2.252,91.023,91.023,0,0,1-9.446.5H430.89q-1,0-1.939.062a3.072,3.072,0,0,0-1.627.564,3.536,3.536,0,0,0-1.126,1.563,9.988,9.988,0,0,0-.562,3.066Z" fill="#f57a87"/>
        <rect id="Rectangle_12990" data-name="Rectangle 12990" width="81.202" height="112.039" transform="translate(273.539 86.527)" fill="#3a3a3a"/>
        <path id="Path_15324" data-name="Path 15324" d="M262.277,57.746H366.131A1.074,1.074,0,0,1,367.2,58.82V85.861a1.074,1.074,0,0,1-1.074,1.074H262.277a1.074,1.074,0,0,1-1.074-1.074V58.82a1.074,1.074,0,0,1,1.074-1.074" fill="#919191"/>
        <path id="Path_15325" data-name="Path 15325" d="M278.1,82.888a1.074,1.074,0,0,1,1.074-1.074h40.356a1.074,1.074,0,0,1,1.073,1.074v4.047H278.1Z" fill="#fff"/>
        <path id="Path_15326" data-name="Path 15326" d="M329.067,68.5H348.5a.268.268,0,0,1,.269.268V71.3a.269.269,0,0,1-.269.269H329.067a.269.269,0,0,1-.268-.269V68.768a.268.268,0,0,1,.268-.268" fill="#fff"/>
        <path id="Path_15327" data-name="Path 15327" d="M266.836,61.843a1.537,1.537,0,1,1-1.536,1.536,1.536,1.536,0,0,1,1.536-1.536" fill="#f785b1"/>
        <path id="Path_15328" data-name="Path 15328" d="M277.078,61.843a1.537,1.537,0,1,1-1.536,1.536,1.536,1.536,0,0,1,1.536-1.536" fill="#49a747"/>
        <path id="Path_15329" data-name="Path 15329" d="M271.956,61.843a1.537,1.537,0,1,1-1.536,1.536,1.536,1.536,0,0,1,1.536-1.536" fill="#d8b05d"/>
        <path id="Path_15330" data-name="Path 15330" d="M354.915,65.94a4.1,4.1,0,1,1-4.1,4.1,4.1,4.1,0,0,1,4.1-4.1" fill="#fff"/>
        <path id="Path_15331" data-name="Path 15331" d="M262.277,93.087H366.131a1.074,1.074,0,0,1,1.074,1.074V121.2a1.074,1.074,0,0,1-1.074,1.075H262.277A1.074,1.074,0,0,1,261.2,121.2V94.161a1.074,1.074,0,0,1,1.074-1.074" fill="#919191"/>
        <path id="Path_15332" data-name="Path 15332" d="M278.1,118.229a1.073,1.073,0,0,1,1.074-1.073h40.356a1.073,1.073,0,0,1,1.073,1.073v4.048H278.1Z" fill="#fff"/>
        <path id="Path_15333" data-name="Path 15333" d="M329.067,103.841H348.5a.268.268,0,0,1,.269.268v2.536a.269.269,0,0,1-.269.269H329.067a.269.269,0,0,1-.268-.269v-2.536a.268.268,0,0,1,.268-.268" fill="#fff"/>
        <path id="Path_15334" data-name="Path 15334" d="M266.836,97.184A1.536,1.536,0,1,1,265.3,98.72a1.536,1.536,0,0,1,1.536-1.536" fill="#f785b1"/>
        <path id="Path_15335" data-name="Path 15335" d="M277.078,97.184a1.536,1.536,0,1,1-1.536,1.536,1.536,1.536,0,0,1,1.536-1.536" fill="#49a747"/>
        <path id="Path_15336" data-name="Path 15336" d="M271.956,97.184a1.536,1.536,0,1,1-1.536,1.536,1.536,1.536,0,0,1,1.536-1.536" fill="#d8b05d"/>
        <path id="Path_15337" data-name="Path 15337" d="M354.915,101.281a4.1,4.1,0,1,1-4.1,4.1,4.1,4.1,0,0,1,4.1-4.1" fill="#fff"/>
        <path id="Path_15338" data-name="Path 15338" d="M262.277,128.428H366.131A1.075,1.075,0,0,1,367.2,129.5v27.041a1.074,1.074,0,0,1-1.074,1.074H262.277a1.074,1.074,0,0,1-1.074-1.074V129.5a1.075,1.075,0,0,1,1.074-1.075" fill="#919191"/>
        <path id="Path_15339" data-name="Path 15339" d="M278.1,153.57a1.074,1.074,0,0,1,1.074-1.074h40.356a1.074,1.074,0,0,1,1.073,1.074v4.047H278.1Z" fill="#fff"/>
        <path id="Path_15340" data-name="Path 15340" d="M329.067,139.182H348.5a.268.268,0,0,1,.269.268v2.536a.269.269,0,0,1-.269.269H329.067a.269.269,0,0,1-.268-.269V139.45a.268.268,0,0,1,.268-.268" fill="#fff"/>
        <path id="Path_15341" data-name="Path 15341" d="M266.836,132.525a1.536,1.536,0,1,1-1.536,1.536,1.536,1.536,0,0,1,1.536-1.536" fill="#f785b1"/>
        <path id="Path_15342" data-name="Path 15342" d="M277.078,132.525a1.536,1.536,0,1,1-1.536,1.536,1.536,1.536,0,0,1,1.536-1.536" fill="#49a747"/>
        <path id="Path_15343" data-name="Path 15343" d="M271.956,132.525a1.536,1.536,0,1,1-1.536,1.536,1.536,1.536,0,0,1,1.536-1.536" fill="#d8b05d"/>
        <path id="Path_15344" data-name="Path 15344" d="M354.915,136.622a4.1,4.1,0,1,1-4.1,4.1,4.1,4.1,0,0,1,4.1-4.1" fill="#fff"/>
        <path id="Path_15345" data-name="Path 15345" d="M262.277,163.77H366.131a1.074,1.074,0,0,1,1.074,1.074v27.041a1.074,1.074,0,0,1-1.074,1.074H262.277a1.074,1.074,0,0,1-1.074-1.074V164.844a1.074,1.074,0,0,1,1.074-1.074" fill="#919191"/>
        <path id="Path_15346" data-name="Path 15346" d="M278.1,188.911a1.073,1.073,0,0,1,1.074-1.073h40.356a1.073,1.073,0,0,1,1.073,1.073v4.047H278.1Z" fill="#fff"/>
        <path id="Path_15347" data-name="Path 15347" d="M329.067,174.524H348.5a.268.268,0,0,1,.269.268v2.536a.269.269,0,0,1-.269.269H329.067a.269.269,0,0,1-.268-.269v-2.536a.268.268,0,0,1,.268-.268" fill="#fff"/>
        <path id="Path_15348" data-name="Path 15348" d="M266.836,167.867A1.536,1.536,0,1,1,265.3,169.4a1.536,1.536,0,0,1,1.536-1.536" fill="#f785b1"/>
        <path id="Path_15349" data-name="Path 15349" d="M277.078,167.867a1.536,1.536,0,1,1-1.536,1.536,1.536,1.536,0,0,1,1.536-1.536" fill="#49a747"/>
        <path id="Path_15350" data-name="Path 15350" d="M271.956,167.867a1.536,1.536,0,1,1-1.536,1.536,1.536,1.536,0,0,1,1.536-1.536" fill="#d8b05d"/>
        <path id="Path_15351" data-name="Path 15351" d="M354.915,171.963a4.1,4.1,0,1,1-4.1,4.1,4.1,4.1,0,0,1,4.1-4.1" fill="#fff"/>
        <path id="Path_15352" data-name="Path 15352" d="M232.217,100.168h-22.7a.983.983,0,0,0-.984.984v22.7a.983.983,0,0,0,.984.984h22.7a.984.984,0,0,0,.984-.984v-22.7a.984.984,0,0,0-.984-.984" fill="#919191"/>
        <g id="Group_14266" data-name="Group 14266" opacity="0.1" style="mix-blend-mode: normal;isolation: isolate">
          <g id="Group_14265" data-name="Group 14265">
            <g id="Group_14264" data-name="Group 14264" clip-path="url(#clip-path-3)">
              <path id="Path_15353" data-name="Path 15353" d="M213.327,100.168A20.542,20.542,0,0,0,233.2,117.642v-16.49a.985.985,0,0,0-.984-.984Z" fill="#fff" fill-rule="evenodd"/>
            </g>
          </g>
        </g>
        <path id="Path_15354" data-name="Path 15354" d="M222.212,103.532H219.52a7.625,7.625,0,0,0-7.625,7.625v2.692a7.624,7.624,0,0,0,7.625,7.624h2.692a7.624,7.624,0,0,0,7.625-7.624v-2.692a7.625,7.625,0,0,0-7.625-7.625" fill="#3a3a3a"/>
        <path id="Path_15355" data-name="Path 15355" d="M223.669,110.821h0a1.682,1.682,0,1,0,1.682,1.682,1.682,1.682,0,0,0-1.682-1.682"/>
        <path id="Path_15356" data-name="Path 15356" d="M218.062,110.821h0a1.682,1.682,0,1,0,1.682,1.682,1.682,1.682,0,0,0-1.682-1.682"/>
        <path id="Path_15357" data-name="Path 15357" d="M261.2,145.924H215.463a7.929,7.929,0,1,0,0,15.857H242.7a6.975,6.975,0,0,1,0,13.951h-37v-1.616h37a5.359,5.359,0,1,0,0-10.718H215.463a9.545,9.545,0,0,1,0-19.09H261.2Z" fill="#3a3a3a" fill-rule="evenodd"/>
        <path id="Path_15358" data-name="Path 15358" d="M197.476,170.813h-5.14a1.028,1.028,0,0,0,0,2.056h5.14Z" fill="#3a3a3a"/>
        <path id="Path_15359" data-name="Path 15359" d="M197.476,176.98h-5.14a1.028,1.028,0,0,0,0,2.056h5.14Z" fill="#3a3a3a"/>
        <path id="Path_15360" data-name="Path 15360" d="M210.839,173.133a3.912,3.912,0,0,0-3.911-3.911h-7.1v11.193h7.1a3.912,3.912,0,0,0,3.911-3.911Z" fill="#919191"/>
        <path id="Path_15361" data-name="Path 15361" d="M200.169,167.729h-2.3a.391.391,0,0,0-.391.391v13.608a.391.391,0,0,0,.391.391h2.3a.391.391,0,0,0,.391-.391V168.12a.391.391,0,0,0-.391-.391" fill="#919191"/>
        <path id="Path_15362" data-name="Path 15362" d="M193.88,155.394h0a.512.512,0,0,0-.512.512v5.121a.512.512,0,1,0,1.024,0v-5.121a.512.512,0,0,0-.512-.512" fill="#f05161"/>
        <path id="Path_15363" data-name="Path 15363" d="M189.783,165.637h0a.512.512,0,0,0-.512-.512H184.15a.512.512,0,0,0,0,1.024h5.121a.512.512,0,0,0,.512-.512" fill="#f05161"/>
        <path id="Path_15364" data-name="Path 15364" d="M190.958,162.662h0a.512.512,0,0,0,0-.724l-3.621-3.621a.512.512,0,0,0-.724.724l3.62,3.621a.513.513,0,0,0,.725,0" fill="#f05161"/>
        <path id="Path_15365" data-name="Path 15365" d="M201.625,195.957h0a.512.512,0,0,0,.512-.512v-5.121a.512.512,0,1,0-1.024,0v5.121a.512.512,0,0,0,.512.512" fill="#f05161"/>
        <path id="Path_15366" data-name="Path 15366" d="M205.721,185.715h0a.512.512,0,0,0,.512.512h5.121a.512.512,0,0,0,0-1.024h-5.121a.512.512,0,0,0-.512.512" fill="#f05161"/>
        <path id="Path_15367" data-name="Path 15367" d="M204.546,188.689h0a.512.512,0,0,0,0,.724l3.621,3.621a.512.512,0,0,0,.724-.724l-3.621-3.621a.512.512,0,0,0-.724,0" fill="#f05161"/>
      </g>
    </g>
  </g>
</svg>
