<svg id="plot_1_" data-name="plot (1)" xmlns="http://www.w3.org/2000/svg" width="48" height="48" viewBox="0 0 48 48">
  <g id="_x34_8x48_px_6_" transform="translate(0 0)">
    <g id="Group_2669" data-name="Group 2669" transform="translate(0 0)">
      <g id="Group_2653" data-name="Group 2653" transform="translate(0 46)">
        <path id="Path_7880" data-name="Path 7880" d="M0,460.652H48v2H0Z" transform="translate(0 -460.652)" fill="#889e9c"/>
      </g>
      <g id="Group_2654" data-name="Group 2654" transform="translate(1 39)">
        <path id="Path_7881" data-name="Path 7881" d="M10.014,390.553h3v2h-3Z" transform="translate(-10.014 -390.553)" fill="#889e9c"/>
      </g>
      <g id="Group_2655" data-name="Group 2655" transform="translate(7 39)">
        <path id="Path_7882" data-name="Path 7882" d="M70.1,390.553h3v2h-3Z" transform="translate(-70.099 -390.553)" fill="#889e9c"/>
      </g>
      <g id="Group_2656" data-name="Group 2656" transform="translate(13 39)">
        <path id="Path_7883" data-name="Path 7883" d="M130.184,390.553h3v2h-3Z" transform="translate(-130.184 -390.553)" fill="#889e9c"/>
      </g>
      <g id="Group_2657" data-name="Group 2657" transform="translate(19 39)">
        <path id="Path_7884" data-name="Path 7884" d="M190.269,390.553h3v2h-3Z" transform="translate(-190.269 -390.553)" fill="#889e9c"/>
      </g>
      <g id="Group_2658" data-name="Group 2658" transform="translate(25 39)">
        <path id="Path_7885" data-name="Path 7885" d="M250.355,390.553h3v2h-3Z" transform="translate(-250.355 -390.553)" fill="#889e9c"/>
      </g>
      <g id="Group_2659" data-name="Group 2659" transform="translate(31 39)">
        <path id="Path_7886" data-name="Path 7886" d="M310.44,390.553h3v2h-3Z" transform="translate(-310.44 -390.553)" fill="#889e9c"/>
      </g>
      <g id="Group_2660" data-name="Group 2660" transform="translate(37 39)">
        <path id="Path_7887" data-name="Path 7887" d="M370.525,390.553h3v2h-3Z" transform="translate(-370.525 -390.553)" fill="#889e9c"/>
      </g>
      <g id="Group_2661" data-name="Group 2661" transform="translate(43 39)">
        <path id="Path_7888" data-name="Path 7888" d="M430.61,390.553h3v2h-3Z" transform="translate(-430.61 -390.553)" fill="#889e9c"/>
      </g>
      <g id="Group_2662" data-name="Group 2662" transform="translate(33 13)">
        <path id="Path_7889" data-name="Path 7889" d="M330.468,130.184h6v2h-6Z" transform="translate(-330.468 -130.184)" fill="#889e9c"/>
      </g>
      <g id="Group_2663" data-name="Group 2663" transform="translate(9 13)">
        <path id="Path_7890" data-name="Path 7890" d="M90.128,130.184h6v2h-6Z" transform="translate(-90.128 -130.184)" fill="#889e9c"/>
      </g>
      <g id="Group_2664" data-name="Group 2664" transform="translate(0 18)">
        <path id="Path_7891" data-name="Path 7891" d="M5.71,196.255H0v-2H4.29l4.29-12H7v-2h4.42Z" transform="translate(0 -180.255)" fill="#889e9c"/>
      </g>
      <g id="Group_2665" data-name="Group 2665" transform="translate(10.76 18)">
        <path id="Path_7892" data-name="Path 7892" d="M134.233,196.255h-26.48l3.43-16h3.81v2H112.8l-2.57,12h21.52l-2.57-12h-2.19v-2h3.81Z" transform="translate(-107.753 -180.255)" fill="#889e9c"/>
      </g>
      <g id="Group_2666" data-name="Group 2666" transform="translate(36.58 18)">
        <path id="Path_7893" data-name="Path 7893" d="M377.739,196.255h-5.71l-5.71-16h4.42v2h-1.58l4.29,12h4.29Z" transform="translate(-366.319 -180.255)" fill="#889e9c"/>
      </g>
      <g id="Group_2667" data-name="Group 2667" transform="translate(16)">
        <path id="Path_7894" data-name="Path 7894" d="M168.227,23.59l-.78-.96c-.29-.37-7.22-9.02-7.22-14.78a8,8,0,0,1,16,0c0,5.77-6.93,14.42-7.22,14.78Zm0-21.59a5.929,5.929,0,0,0-6,5.85c0,4.01,4.22,10.11,6,12.51,1.78-2.4,6-8.5,6-12.51A5.929,5.929,0,0,0,168.227,2Z" transform="translate(-160.227 0)" fill="#889e9c"/>
      </g>
      <g id="Group_2668" data-name="Group 2668" transform="translate(21 5)">
        <path id="Path_7895" data-name="Path 7895" d="M213.3,56.07a3,3,0,1,1,3-3A3.009,3.009,0,0,1,213.3,56.07Zm0-4a1,1,0,1,0,1,1A1,1,0,0,0,213.3,52.07Z" transform="translate(-210.297 -50.07)" fill="#889e9c"/>
      </g>
    </g>
  </g>
</svg>
