<svg xmlns="http://www.w3.org/2000/svg" width="55.381" height="57.739" viewBox="0 0 55.381 57.739">
  <path id="verify_1_" data-name="verify (1)" d="M56.7,24.387a4.521,4.521,0,0,0-1.853-5.694L49.688,15.63a.478.478,0,0,1-.242-.322L48.1,9.426a4.545,4.545,0,0,0-4.835-3.519l-5.99.537a.4.4,0,0,1-.376-.107L32.363,2.361a4.566,4.566,0,0,0-5.963,0L21.861,6.337a.4.4,0,0,1-.376.107l-5.99-.537A4.521,4.521,0,0,0,10.66,9.436L9.317,15.319a.478.478,0,0,1-.242.322L3.918,18.692a4.521,4.521,0,0,0-1.853,5.694L4.455,29.92a.537.537,0,0,1,0,.4L2.065,35.856a4.5,4.5,0,0,0,1.853,5.667l5.184,3.1a.537.537,0,0,1,.215.322l1.343,5.882a4.521,4.521,0,0,0,4.835,3.519l5.99-.564a.5.5,0,0,1,.376.134L26.4,57.892a4.588,4.588,0,0,0,5.963,0L36.9,53.916a.5.5,0,0,1,.376-.134l5.99.564A4.521,4.521,0,0,0,48.1,50.828l1.343-5.882a.478.478,0,0,1,.242-.322l5.157-3.089A4.5,4.5,0,0,0,56.7,35.867l-2.391-5.533a.537.537,0,0,1,0-.4Zm-15.257.322L28.119,38.354a2.125,2.125,0,0,1-1.45.591,1.988,1.988,0,0,1-1.182-.376l-7.9-5.641a2.02,2.02,0,1,1,2.364-3.277L26.427,34.3,38.568,21.889a2,2,0,0,1,2.847-.027A2.025,2.025,0,0,1,41.442,24.709Z" transform="translate(-1.691 -1.254)" fill="#35aa6b"/>
</svg>
