<svg xmlns="http://www.w3.org/2000/svg" xmlns:xlink="http://www.w3.org/1999/xlink" width="49.244" height="49.163" viewBox="0 0 49.244 49.163">
  <defs>
    <clipPath id="clip-path">
      <rect id="Rectangle_12844" data-name="Rectangle 12844" width="49.244" height="49.163" transform="translate(0 0)" fill="#889e9c"/>
    </clipPath>
  </defs>
  <g id="Group_2858" data-name="Group 2858" transform="translate(0 0)">
    <g id="Group_2857" data-name="Group 2857" clip-path="url(#clip-path)">
      <path id="Path_9338" data-name="Path 9338" d="M21.214,49.163a1,1,0,0,1-1-1c0-13.288,12.538-24.1,27.95-24.1a1,1,0,0,1,0,2c-14.308,0-25.95,9.914-25.95,22.1a1,1,0,0,1-1,1" fill="#889e9c"/>
      <path id="Path_9339" data-name="Path 9339" d="M29.073,49.163a1,1,0,0,1-1-1c0-9.573,9.013-17.362,20.09-17.362a1,1,0,1,1,0,2c-9.975,0-18.09,6.891-18.09,15.362a1,1,0,0,1-1,1" fill="#889e9c"/>
      <path id="Path_9340" data-name="Path 9340" d="M21.214,49.163a1,1,0,0,1-1-1c0-13.288,12.538-24.1,27.95-24.1a1,1,0,0,1,0,2c-14.308,0-25.95,9.914-25.95,22.1a1,1,0,0,1-1,1" fill="#889e9c"/>
      <path id="Path_9341" data-name="Path 9341" d="M29.073,49.163a1,1,0,0,1-1-1c0-9.573,9.013-17.362,20.09-17.362a1,1,0,1,1,0,2c-9.975,0-18.09,6.891-18.09,15.362a1,1,0,0,1-1,1" fill="#889e9c"/>
      <path id="Path_9342" data-name="Path 9342" d="M35.812,49.163a1,1,0,0,1-1-1c0-6.39,5.989-11.588,13.352-11.588a1,1,0,0,1,0,2c-6.259,0-11.352,4.3-11.352,9.588a1,1,0,0,1-1,1" fill="#889e9c"/>
      <path id="Path_9343" data-name="Path 9343" d="M28.378,33.478a.994.994,0,0,1-.364-.068A49.122,49.122,0,0,0,1.328,30.832l-.147.027a1,1,0,0,1-.362-1.967l.149-.027a51.116,51.116,0,0,1,27.774,2.681,1,1,0,0,1-.364,1.932" fill="#889e9c"/>
      <path id="Path_9344" data-name="Path 9344" d="M23.921,39.055a.977.977,0,0,1-.379-.075A39.973,39.973,0,0,0,1.179,36.633,1,1,0,0,1,.82,34.666,41.959,41.959,0,0,1,24.3,37.13a1,1,0,0,1-.38,1.925" fill="#889e9c"/>
      <path id="Path_9345" data-name="Path 9345" d="M21.539,45.562a1,1,0,0,1-.321-.053A40.183,40.183,0,0,0,1.179,44.033a1,1,0,1,1-.358-1.967A42.147,42.147,0,0,1,21.86,43.615a1,1,0,0,1-.321,1.947" fill="#889e9c"/>
      <path id="Path_9346" data-name="Path 9346" d="M3.406,30.491a1,1,0,0,1-1-1V14.119a1,1,0,0,1,2,0V29.491a1,1,0,0,1-1,1" fill="#889e9c"/>
      <path id="Path_9347" data-name="Path 9347" d="M26.025,32.627a1,1,0,0,1-1-1V14.119a1,1,0,0,1,2,0V31.627a1,1,0,0,1-1,1" fill="#889e9c"/>
      <path id="Path_9348" data-name="Path 9348" d="M3.163,15.132a3.161,3.161,0,0,1-1.4-6L14.274,2.99a1,1,0,0,1,.882,0L27.663,9.134a3.179,3.179,0,0,1,1.767,2.838,3.16,3.16,0,0,1-3.159,3.157h0a3.182,3.182,0,0,1-1.387-.322h0L14.716,9.813,4.557,14.805a3.132,3.132,0,0,1-1.394.327M14.715,5,2.648,10.929A1.155,1.155,0,0,0,2,11.971a1.161,1.161,0,0,0,1.674,1.04l10.6-5.21a1,1,0,0,1,.881,0l10.6,5.21a1.185,1.185,0,0,0,.511.118h0A1.161,1.161,0,0,0,27.43,11.97a1.165,1.165,0,0,0-.649-1.041Z" fill="#889e9c"/>
      <path id="Path_9349" data-name="Path 9349" d="M19.048,30.84a1,1,0,0,1-1-1V25.063c0-.073,0-.133,0-.193a3.331,3.331,0,0,0-6.66.1v4.069a1,1,0,1,1-2,0V24.972a5.331,5.331,0,0,1,10.658-.192c0,.1.006.2.005.3V29.84a1,1,0,0,1-1,1" fill="#889e9c"/>
      <path id="Path_9350" data-name="Path 9350" d="M14.72,17.882A2.926,2.926,0,0,1,13.6,12.254h0a2.925,2.925,0,1,1,1.123,5.628m-.358-3.78a.925.925,0,0,0,.708,1.709.917.917,0,0,0,.5-.5A.925.925,0,0,0,14.362,14.1" fill="#889e9c"/>
      <path id="Path_9351" data-name="Path 9351" d="M42.91,26.5a1,1,0,0,1-1-1V13.513a1,1,0,0,1,2,0V25.5a1,1,0,0,1-1,1" fill="#889e9c"/>
      <path id="Path_9352" data-name="Path 9352" d="M42.911,20.286h0a6.342,6.342,0,0,1-6.331-6.332C36.576,11.6,38.7,0,42.91,0s6.334,11.6,6.334,13.954a6.333,6.333,0,0,1-6.333,6.332M42.91,2c-1.723,0-4.334,8.488-4.334,11.954a4.339,4.339,0,0,0,4.332,4.332h0a4.336,4.336,0,0,0,4.333-4.332C47.244,10.488,44.633,2,42.91,2m5.334,11.954h0Z" fill="#889e9c"/>
    </g>
  </g>
</svg>
