<svg id="Group_2766" data-name="Group 2766" xmlns="http://www.w3.org/2000/svg" xmlns:xlink="http://www.w3.org/1999/xlink" width="285.641" height="285.641" viewBox="0 0 285.641 285.641">
  <defs>
    <clipPath id="clip-path">
      <rect id="Rectangle_12706" data-name="Rectangle 12706" width="285.641" height="285.641" fill="#3869656e"/>
    </clipPath>
  </defs>
  <g id="Group_2765" data-name="Group 2765" clip-path="url(#clip-path)">
    <path id="Path_8578" data-name="Path 8578" d="M335.685,426.492a90.841,90.841,0,0,1-88.122-68.832l8.465-1.68A82.212,82.212,0,0,0,380.4,404.651l1.627-1.058,29.818,8.248-8.248-29.818,1.057-1.627a82.212,82.212,0,0,0-48.67-124.37l1.68-8.465a90.838,90.838,0,0,1,56.21,134.323l-.935,1.578,11.269,40.742-40.743-11.268-1.578.935a90.705,90.705,0,0,1-46.2,12.621" transform="translate(-140.851 -140.851)" fill="#3869656e"/>
    <path id="Path_8579" data-name="Path 8579" d="M108.049,216.1A107.959,107.959,0,0,1,53.13,201.118l-1.577-.932L2.286,213.812l13.628-49.267-.933-1.577A108.066,108.066,0,1,1,108.049,216.1M54.575,191.888a99.4,99.4,0,1,0-30.364-30.364l1.035,1.619-10.6,38.306,38.306-10.6Z" transform="translate(0 0)" fill="#3869656e"/>
    <rect id="Rectangle_12705" data-name="Rectangle 12705" width="8.621" height="8.621" transform="translate(103.739 155.752)" fill="#3869656e"/>
    <path id="Path_8580" data-name="Path 8580" d="M206.934,198.163V183.334l18.851-17.254a21.326,21.326,0,0,0,7.012-15.906,21.554,21.554,0,0,0-42.672-4.31h-8.747A30.175,30.175,0,1,1,231.6,172.44l-16.049,14.69v11.034Z" transform="translate(-103.195 -68.274)" fill="#3869656e"/>
  </g>
</svg>
